<?xml version="1.0" encoding="UTF-8" standalone="no"?>
<!-- Created with Inkscape (http://www.inkscape.org/) -->

<svg
   xmlns:dc="http://purl.org/dc/elements/1.1/"
   xmlns:cc="http://creativecommons.org/ns#"
   xmlns:rdf="http://www.w3.org/1999/02/22-rdf-syntax-ns#"
   xmlns:svg="http://www.w3.org/2000/svg"
   xmlns="http://www.w3.org/2000/svg"
   version="1.1"
   width="100%"
   height="100%"
   viewBox="0 0 160 160"
   id="Drop_Add"
   xml:space="preserve"><metadata
     id="metadata31"><rdf:RDF><cc:Work
         rdf:about=""><dc:format>image/svg+xml</dc:format><dc:type
           rdf:resource="http://purl.org/dc/dcmitype/StillImage" /><dc:title></dc:title></cc:Work></rdf:RDF></metadata><defs
     id="defs29" /><rect
     width="20"
     height="80"
     x="70"
     y="40"
     id="rect3"
     style="fill:#769e40" /><g
     id="g15" /><g
     id="g17" /><g
     id="g19" /><g
     id="g21" /><g
     id="g23" /><g
     id="g25" /><path
     d="M 15,5 55,5 55,20 20,20 20,55 5,55 5,15 C 4.6159383,9.6532193 9.981538,5 15,5 z"
     id="rect3762"
     style="fill:#5c5d5d;fill-opacity:1" /><path
     d="m 155,15 0,40 -15,0 0,-35 -35,0 0,-15 40,0 c 5.34678,-0.3840617 10,4.981538 10,10 z"
     id="path3877"
     style="fill:#5c5d5d;fill-opacity:1" /><path
     d="m 15,155 40,0 0,-15 -35,0 0,-35 -15,0 0,40 c -0.3840617,5.34678 4.981538,10 10,10 z"
     id="path3881"
     style="fill:#5c5d5d;fill-opacity:1" /><path
     d="m 155,145 0,-40 -15,0 0,35 -35,0 0,15 40,0 c 5.34678,0.38406 10,-4.98154 10,-10 z"
     id="path3883"
     style="fill:#5c5d5d;fill-opacity:1" /><rect
     width="20"
     height="80"
     x="70"
     y="-120"
     transform="matrix(0,1,-1,0,0,0)"
     id="rect2994"
     style="fill:#769e40" /></svg>