<?xml version="1.0" encoding="utf-8"?>
<!-- Generator: Adobe Illustrator 16.0.0, SVG Export Plug-In . SVG Version: 6.00 Build 0)  -->
<!DOCTYPE svg PUBLIC "-//W3C//DTD SVG 1.1 Basic//EN" "http://www.w3.org/Graphics/SVG/1.1/DTD/svg11-basic.dtd">
<svg version="1.1" baseProfile="basic" id="Layer_2"
	 xmlns="http://www.w3.org/2000/svg" xmlns:xlink="http://www.w3.org/1999/xlink" x="0px" y="0px" width="16px" height="16px"
	 viewBox="0 0 16 16" xml:space="preserve">
<circle fill="none" stroke="#5B5C5C" stroke-width="1.5" stroke-miterlimit="10" cx="8" cy="4" r="3"/>
<path fill="none" stroke="#5B5C5C" stroke-width="1.5" stroke-miterlimit="10" d="M1,15.5c0-3.87,3.13-7,7-7s7,3.13,7,7"/>
<line fill="none" stroke="#5B5C5C" stroke-miterlimit="10" x1="0.5" y1="15.5" x2="15.5" y2="15.5"/>
<path fill="#5B5C5C" d="M9.5,9.5c0,0.28-0.22,0.72-0.5,1c-0.27,0.28-0.5,0.95-0.5,1.5v1.5c0,0.55-0.23,1-0.5,1s-0.5-0.45-0.5-1V12
	c0-0.55-0.23-1.22-0.5-1.5s-0.5-0.72-0.5-1S6.95,9,7.5,9h1C9.05,9,9.5,9.22,9.5,9.5z"/>
<g>
</g>
<g>
</g>
<g>
</g>
<g>
</g>
<g>
</g>
</svg>
