<?xml version="1.0" encoding="UTF-8" standalone="no"?>
<!-- Created with Inkscape (http://www.inkscape.org/) -->

<svg
   xmlns:dc="http://purl.org/dc/elements/1.1/"
   xmlns:cc="http://creativecommons.org/ns#"
   xmlns:rdf="http://www.w3.org/1999/02/22-rdf-syntax-ns#"
   xmlns:svg="http://www.w3.org/2000/svg"
   xmlns="http://www.w3.org/2000/svg"
   version="1.1"
   width="100%"
   height="100%"
   viewBox="0 0 200 200"
   id="Artwork"
   xml:space="preserve"><metadata
     id="metadata3853"><rdf:RDF><cc:Work
         rdf:about=""><dc:format>image/svg+xml</dc:format><dc:type
           rdf:resource="http://purl.org/dc/dcmitype/StillImage" /><dc:title></dc:title></cc:Work></rdf:RDF></metadata><defs
     id="defs3851" /><path
     d="M 15.746549,89.47712 26.29672,78.63971 c 4.342551,-4.46079 11.413115,-4.46079 15.81134,0 L 81.385875,119.04412 81.38625,23.9665 C 81.386275,17.64706 86.424347,12.5 92.548457,12.5 l 14.892723,0 c 6.15195,0 11.16258,5.08987 11.16258,11.4665 l 0,95.02043 39.27782,-40.34722 c 4.34255,-4.46079 11.41311,-4.46079 15.81134,0 l 10.55017,10.83741 c 4.34255,4.46079 4.34255,11.72386 0,16.24183 l -76.32868,78.40687 c -2.17128,2.23039 -5.03848,3.37418 -7.87784,3.37418 -2.867193,0 -5.706554,-1.14379 -7.877829,-3.37418 L 15.830059,105.71895 c -4.426061,-4.51797 -4.426061,-11.78104 -0.08351,-16.24183 z"
     id="path3847"
     style="fill:#5c5d5d;fill-opacity:1" /></svg>