<?xml version="1.0" encoding="utf-8"?>
<!DOCTYPE svg PUBLIC "-//W3C//DTD SVG 1.1 Basic//EN" "http://www.w3.org/Graphics/SVG/1.1/DTD/svg11-basic.dtd">
<svg version="1.1" baseProfile="basic" id="Layer_1"
	 xmlns="http://www.w3.org/2000/svg" xmlns:xlink="http://www.w3.org/1999/xlink" x="0px" y="0px" width="32px" height="32px"
	 viewBox="0 0 32 32" xml:space="preserve">
<g>
	<path fill="#CC9252" d="M28.6,13.59c0.19-0.27,0.41-0.62,0.68-1.08c0.45-0.76,0.95-1.7,1.05-1.97c0.07-0.17,0.06-0.36-0.02-0.53
		c-0.08-0.17-0.22-0.3-0.39-0.36c-0.13-0.05-0.27-0.1-0.42-0.15c-0.79-0.29-1.75-0.64-2.65-0.73c0.35-1.13,0.4-2.48,0.32-3.31
		C27.15,5.29,27.06,5.12,26.92,5c-0.14-0.12-0.33-0.17-0.51-0.14c-0.96,0.13-2.17,0.31-3.32,0.61c-0.03-0.19-0.06-0.38-0.09-0.57
		c-0.14-0.92-0.27-1.86-0.63-2.76c-0.12-0.3-0.42-0.47-0.74-0.42c-1.09,0.17-1.98,0.91-2.77,1.57c-0.11,0.1-0.22,0.19-0.34,0.28
		c-0.45-0.71-0.92-1.41-1.38-2.09c-0.17-0.25-0.33-0.49-0.5-0.74c-0.13-0.19-0.34-0.3-0.57-0.3c-0.23,0-0.44,0.11-0.57,0.3
		c-0.23,0.35-0.45,0.72-0.66,1.07c-0.35,0.59-0.68,1.14-1.07,1.61c-0.09,0.1-0.15,0.17-0.19,0.21c-0.12-0.05-0.29-0.15-0.38-0.2
		c-0.8-0.46-1.65-1.12-2.41-1.71c-0.3-0.23-0.73-0.18-0.96,0.12C9.71,1.99,9.67,2.17,9.69,2.35c-0.02,0.2-0.14,0.73-0.35,1.57
		C9.31,4.08,9.29,4.18,9.28,4.21C9.24,4.4,9.22,4.59,9.19,4.76C9.16,4.99,9.11,5.34,9.06,5.41c0,0-0.06,0.03-0.23,0.03
		c-0.06,0-0.12,0-0.18-0.01C8.02,5.37,7.36,5.21,6.71,5.05C6.36,4.96,6.02,4.88,5.68,4.81C5.45,4.76,5.22,4.83,5.06,4.99
		c-0.16,0.16-0.23,0.4-0.19,0.62c0.02,0.08,0.05,0.31,0.1,0.62c0.18,1.21,0.32,2.05,0.45,2.62C4.25,9,2.75,9.5,2.24,9.69
		c-0.21,0.08-0.37,0.26-0.42,0.48c-0.05,0.22,0.01,0.46,0.16,0.62c0.21,0.23,1.42,1.92,1.86,2.67c-0.67,0.6-2.03,1.67-2.51,1.85
		c-0.25-0.05-0.52,0.04-0.68,0.26c-0.23,0.3-0.17,0.73,0.13,0.96c0.27,0.2,0.68,0.41,1.15,0.66c0.51,0.26,1.65,0.84,1.88,1.19
		c-0.23,0.57-1.34,2.3-1.74,2.7c-0.19,0.08-0.35,0.24-0.4,0.46c-0.1,0.37,0.12,0.74,0.49,0.84l0,0c0.31,0.08,0.78,0.13,1.31,0.18
		c0.59,0.06,1.77,0.17,2.15,0.36c0.01,0.66-0.36,2.66-0.56,3.15c-0.14,0.15-0.22,0.36-0.18,0.58c0.06,0.37,0.41,0.62,0.79,0.56l0,0
		c0,0,0,0,0,0c0.39-0.07,0.82-0.22,1.28-0.38c0.58-0.21,1.25-0.45,1.75-0.45c0.17,0,0.3,0.03,0.41,0.08
		c0.32,0.19,0.46,1.75,0.51,2.34c0.04,0.42,0.07,0.78,0.13,1.06c0.06,0.32,0.34,0.55,0.67,0.55c0.24,0,0.24,0,1.51-0.99
		c0.28-0.22,0.51-0.4,0.54-0.42c0.39-0.29,0.93-0.71,1.27-0.55c0.34,0.33,1.49,1.92,1.69,2.42c-0.01,0.24,0.1,0.48,0.33,0.62
		c0.11,0.07,0.24,0.1,0.36,0.1c0.23,0,0.45-0.12,0.58-0.33l0,0c0,0,0,0,0,0c0.16-0.26,0.31-0.59,0.48-0.93
		c0.39-0.83,0.93-1.97,1.58-2.02c0.44,0.13,2,1.03,2.38,1.43c0.04,0.22,0.2,0.42,0.43,0.51c0.35,0.13,0.75-0.04,0.88-0.39
		c0.03-0.07,0.1-0.26,0.47-2.16c0.1-0.48-0.02-0.98,0.22-1.13c0.12-0.07,0.27,0.07,0.41,0.11c0.86,0.23,1.83,0.5,2.7,0.5l0,0
		c0.14,0,0.27-0.01,0.4-0.02c0.37-0.04,0.64-0.36,0.61-0.72c-0.01-0.19-0.12-0.74-0.44-2.28c-0.08-0.38-0.17-0.81-0.24-1.15
		c0.21-0.06,0.42-0.12,0.62-0.18c0.88-0.27,1.71-0.51,2.56-0.54c0.23-0.01,0.44-0.13,0.56-0.32c0.12-0.2,0.14-0.44,0.04-0.65
		c-0.43-0.95-1.12-1.9-1.78-2.78c0.26-0.17,0.6-0.4,1.04-0.71c1.61-1.13,1.76-1.38,1.83-1.5c0.16-0.27,0.11-0.62-0.12-0.83
		C30.51,14.71,29.54,14.14,28.6,13.59z"/>
	<linearGradient id="SVGID_1_" gradientUnits="userSpaceOnUse" x1="6.5317" y1="6.2114" x2="25.8915" y2="25.5712">
		<stop  offset="0" style="stop-color:#F2DEC8;stop-opacity:0.9"/>
		<stop  offset="1" style="stop-color:#E0994A"/>
	</linearGradient>
	<path fill="url(#SVGID_1_)" d="M27.38,17.6c-0.1,0.02-0.2,0.06-0.29,0.13c-0.3,0.23-0.36,0.66-0.13,0.96l0,0l0,0c0,0,0,0,0,0
		l0.14,0.18c0.51,0.67,1.07,1.41,1.51,2.13c-0.64,0.12-1.25,0.3-1.85,0.48c-0.4,0.12-0.78,0.24-1.17,0.33
		c-0.65,0.16-0.54,0.73-0.41,1.35c0.07,0.33,0.16,0.78,0.26,1.24c0.08,0.41,0.19,0.93,0.28,1.35c-0.58-0.07-1.22-0.25-1.84-0.42
		c-0.42-0.11-0.88-0.34-1.18-0.3c-0.25,0.04-0.7,0.39-0.82,0.61c-0.3,0.58-0.28,1.54-0.49,2.56c-0.91-0.64-2.18-1.28-2.63-1.29
		c-1.37,0-2.12,1.29-2.67,2.41c-0.58-0.89-1.36-1.89-1.67-2.07c-0.27-0.16-0.57-0.24-0.88-0.24c-0.78,0-1.45,0.5-1.93,0.86
		c-0.02,0.02-0.27,0.21-0.56,0.44c-0.04,0.03-0.08,0.06-0.12,0.09c-0.12-1.31-0.29-2.71-1.23-3.19C9.41,25.07,9.06,25,8.68,25
		c-0.69,0-1.42,0.25-2.08,0.48c0.27-1.16,0.55-2.86,0.17-3.36c-0.48-0.63-1.58-0.79-3.08-0.93c0.62-0.88,1.59-2.37,1.5-2.96
		c-0.15-0.92-1.29-1.56-2.45-2.15c1.15-0.76,2.38-1.94,2.4-1.95c0.45-0.47,0.16-0.99-0.85-2.47c-0.21-0.3-0.46-0.66-0.68-0.97
		c0.8-0.24,1.8-0.49,2.4-0.49c0.13,0,0.19,0.01,0.21,0.02c0.37,0.09,0.74-0.13,0.83-0.5C7.1,9.48,7.03,9.24,6.88,9.08
		C6.73,8.67,6.5,7.19,6.37,6.37c0,0,0.01,0,0.01,0C7.08,6.55,7.8,6.72,8.52,6.79C8.63,6.8,8.73,6.8,8.82,6.8
		c1.46,0,1.62-1.11,1.73-1.85c0.02-0.15,0.04-0.31,0.08-0.48c0.01-0.03,0.03-0.11,0.05-0.23c0.07-0.29,0.13-0.54,0.18-0.75
		c0.54,0.4,1.1,0.8,1.67,1.12c0.44,0.25,0.75,0.41,1.11,0.41c0.56,0,0.9-0.41,1.18-0.73c0.46-0.55,0.84-1.18,1.2-1.79
		c0.03-0.04,0.05-0.09,0.08-0.13c0.56,0.83,1.14,1.68,1.64,2.54c0.09,0.16,0.25,0.28,0.44,0.32c0.18,0.04,0.38,0.01,0.53-0.1
		c0.35-0.23,0.69-0.52,1.02-0.8c0.51-0.42,1.03-0.86,1.56-1.1c0.16,0.58,0.25,1.21,0.35,1.86c0.07,0.45,0.14,0.92,0.23,1.37
		c0.04,0.19,0.16,0.35,0.32,0.45c0.17,0.1,0.37,0.12,0.55,0.06c1-0.31,2.15-0.52,3.09-0.66c-0.01,1.03-0.22,2.21-0.63,2.81
		c-0.16,0.23-0.16,0.55,0,0.78c0.17,0.23,0.46,0.34,0.74,0.26c0.12-0.03,0.27-0.05,0.44-0.05c0.7,0,1.58,0.29,2.35,0.57
		c-0.43,0.8-1.15,2.04-1.47,2.4c-0.15,0.05-0.28,0.15-0.37,0.3c-0.19,0.32-0.08,0.74,0.24,0.93c0.21,0.13,0.43,0.26,0.66,0.39
		c0.68,0.39,1.38,0.8,1.98,1.25C29.05,16.52,27.78,17.4,27.38,17.6z"/>
</g>
<g>
	<path fill="#CE1906" d="M18.54,7.86c-0.63-0.72-1.54-1.14-2.5-1.14h-0.06c-0.96,0-1.87,0.42-2.5,1.14
		c-0.63,0.72-0.92,1.69-0.79,2.64l0.62,4.47c0.05,0.39,0.41,0.66,0.8,0.61c0.39-0.05,0.66-0.41,0.61-0.8l-0.62-4.47
		c-0.08-0.54,0.09-1.09,0.45-1.51c0.36-0.41,0.88-0.65,1.43-0.65h0.06c0.55,0,1.07,0.24,1.43,0.65c0.36,0.41,0.52,0.96,0.45,1.51
		l-1.04,7.52c-0.06,0.42-0.42,0.74-0.85,0.74h-0.03c-0.43,0-0.79-0.32-0.85-0.74c-0.05-0.39-0.41-0.66-0.8-0.61
		c-0.39,0.05-0.66,0.41-0.61,0.8c0.16,1.12,1.13,1.97,2.26,1.97h0.03c1.13,0,2.11-0.85,2.26-1.97l1.04-7.52
		C19.45,9.54,19.17,8.58,18.54,7.86z"/>
	<path fill="#CE1906" d="M16,21.57c-1.3,0-2.35,1.05-2.35,2.35c0,1.3,1.06,2.35,2.35,2.35s2.35-1.06,2.35-2.35
		C18.35,22.63,17.3,21.57,16,21.57z M16,25.18c-0.69,0-1.25-0.56-1.25-1.25c0-0.69,0.56-1.25,1.25-1.25s1.25,0.56,1.25,1.25
		C17.25,24.62,16.69,25.18,16,25.18z"/>
</g>
</svg>
