<?xml version="1.0" encoding="utf-8"?>
<!-- Generator: Adobe Illustrator 17.1.0, SVG Export Plug-In . SVG Version: 6.00 Build 0)  -->
<!DOCTYPE svg PUBLIC "-//W3C//DTD SVG 1.1//EN" "http://www.w3.org/Graphics/SVG/1.1/DTD/svg11.dtd">
<svg version="1.1" id="Layer_1" xmlns="http://www.w3.org/2000/svg" xmlns:xlink="http://www.w3.org/1999/xlink" x="0px" y="0px"
	 viewBox="0 0 160 160" enable-background="new 0 0 160 160" xml:space="preserve">
<g id="Filter">
	<path fill="none" stroke="#5C5D5D" stroke-width="20" stroke-miterlimit="10" d="M148.981,21.019l-48.395,48.395
		c-0.375,0.375-0.586,0.884-0.586,1.414v68.343c0,0.53-0.211,1.039-0.586,1.414l-8.828,8.828c-0.375,0.375-0.884,0.586-1.414,0.586
		H81.07c-0.669,0-1.293-0.334-1.664-0.891l-19.07-28.606c-0.219-0.329-0.336-0.715-0.336-1.109V70.828
		c0-0.53-0.211-1.039-0.586-1.414L10.933,20.933c-0.566-0.566-0.74-1.414-0.443-2.157l3.007-7.518
		C13.801,10.498,14.536,10,15.354,10h128.41c0.758,0,1.45,0.428,1.789,1.106l3.803,7.605
		C149.74,19.481,149.589,20.411,148.981,21.019z"/>
</g>
</svg>
