<?xml version="1.0" encoding="utf-8"?>
<!DOCTYPE svg PUBLIC "-//W3C//DTD SVG 1.1 Basic//EN" "http://www.w3.org/Graphics/SVG/1.1/DTD/svg11-basic.dtd">
<svg version="1.1" baseProfile="basic" id="Layer_1"
	 xmlns="http://www.w3.org/2000/svg" xmlns:xlink="http://www.w3.org/1999/xlink" x="0px" y="0px" width="16px" height="16px"
	 viewBox="0.5 16.5 16 16" xml:space="preserve">
<g id="Goods_Train">
	<circle fill="#FFFFFF" stroke="#5C5E5F" stroke-width="1.25" stroke-miterlimit="10" cx="4.92" cy="29" r="1.5"/>
	<circle fill="#FFFFFF" stroke="#5C5E5F" stroke-width="1.25" stroke-miterlimit="10" cx="8.92" cy="29" r="1.5"/>
	<path fill="#FFFFFF" stroke="#5C5E5F" stroke-width="1.5" stroke-miterlimit="10" d="M11.42,22.5V26c0,0.28-0.24,0.5-0.53,0.5H3.16
		c-0.23,0-0.43-0.14-0.5-0.34l-1.21-3.52c-0.03-0.09-0.03-0.19-0.01-0.28l0.39-1.48c0.06-0.22,0.27-0.38,0.51-0.38h7.58"/>
	<path fill="#FFFFFF" stroke="#5C5E5F" stroke-width="1.25" stroke-miterlimit="10" d="M10.96,22.5l-1.11-1.44
		C9.6,20.74,9.63,20.29,9.92,20l1.32-1.32c0.12-0.12,0.27-0.2,0.43-0.22l2.27-0.38c0.29-0.05,0.59,0.07,0.77,0.31l0.71,0.95
		c0.27,0.36,0.19,0.88-0.19,1.14l-3.19,2.2C11.7,22.91,11.22,22.84,10.96,22.5z"/>
</g>
</svg>
