<?xml version="1.0" encoding="utf-8"?>
<!DOCTYPE svg PUBLIC "-//W3C//DTD SVG 1.1 Basic//EN" "http://www.w3.org/Graphics/SVG/1.1/DTD/svg11-basic.dtd">
<svg version="1.1" baseProfile="basic" id="Layer_1"
	 xmlns="http://www.w3.org/2000/svg" xmlns:xlink="http://www.w3.org/1999/xlink" x="0px" y="0px" width="16px" height="16px"
	 viewBox="0 0 16 16" xml:space="preserve">
<g id="Goods_Train_2_">
	<ellipse fill="#FFFFFF" stroke="#5C5E5F" stroke-width="0.75" stroke-miterlimit="10" cx="4.47" cy="9.41" rx="1.06" ry="1.09"/>
	<path fill="#FFFFFF" stroke="#5C5E5F" stroke-width="0.75" stroke-miterlimit="10" d="M7.3,8.33c0.58,0,1.06,0.49,1.06,1.08
		S7.89,10.5,7.3,10.5c-0.59,0-1.06-0.49-1.06-1.09S6.71,8.33,7.3,8.33z"/>
	<path fill="#FFFFFF" stroke="#5C5E5F" stroke-miterlimit="10" d="M9.06,4.71v2.53c0,0.2-0.16,0.37-0.37,0.37H3.23
		c-0.16,0-0.3-0.1-0.35-0.25L2.02,4.81C2,4.74,1.99,4.67,2.01,4.61l0.28-1.07c0.04-0.16,0.19-0.27,0.36-0.27h5.36"/>
	<path fill="#FFFFFF" stroke="#5C5E5F" stroke-width="0.75" stroke-miterlimit="10" d="M8.74,4.71L7.96,3.66
		C7.78,3.43,7.8,3.11,8,2.9l0.93-0.96C9.02,1.86,9.12,1.8,9.24,1.78l1.6-0.27c0.21-0.04,0.42,0.05,0.54,0.22l0.5,0.69
		c0.19,0.26,0.13,0.64-0.14,0.82L9.51,4.83C9.26,5.01,8.92,4.95,8.74,4.71z"/>
</g>
<g>
	<path fill="#CE1906" d="M9,15l2.7-8h1.31l2.7,8h-1.12l-0.73-2.23H10.8L10.08,15H9z M13.56,11.86l-1.23-3.77l-1.23,3.77H13.56z"/>
</g>
</svg>
