<?xml version="1.0" encoding="utf-8"?>
<!DOCTYPE svg PUBLIC "-//W3C//DTD SVG 1.1//EN" "http://www.w3.org/Graphics/SVG/1.1/DTD/svg11.dtd">
<svg version="1.1" id="Layer_1" xmlns="http://www.w3.org/2000/svg" xmlns:xlink="http://www.w3.org/1999/xlink" x="0px" y="0px"
	 width="21px" height="21px" viewBox="0 0 21 21" enable-background="new 0 0 21 21" xml:space="preserve">
<path fill="#FFFFFF" d="M4.6,2C4.27,2,4,2.27,4,2.6v15.8C4,18.73,4.27,19,4.6,19h11.8c0.33,0,0.6-0.27,0.6-0.6V3.66
	c0-0.16-0.06-0.31-0.18-0.42l-1.06-1.06C15.65,2.06,15.5,2,15.34,2H4.6z"/>
<path fill="#5C5E5F" d="M11.19,19H4.6C4.27,19,4,18.73,4,18.4V2.6C4,2.27,4.27,2,4.6,2h10.74c0.16,0,0.31,0.06,0.42,0.18l1.06,1.06
	C16.94,3.35,17,3.5,17,3.66v8.09c0.76,0.24,1.45,0.64,2,1.18V3.66c0-0.68-0.28-1.35-0.76-1.84l-1.06-1.06
	C16.69,0.28,16.02,0,15.34,0H4.6C3.17,0,2,1.17,2,2.6v15.8C2,19.83,3.17,21,4.6,21h8.76C12.45,20.57,11.7,19.87,11.19,19z"/>
<g>
	<circle fill="#5C5E5F" cx="15.5" cy="16.5" r="4"/>
	<rect x="15" y="14" fill="#FFFFFF" width="1" height="5"/>
	<rect x="13" y="16" fill="#FFFFFF" width="5" height="1"/>
</g>
</svg>
