<?xml version="1.0" encoding="utf-8"?>
<!DOCTYPE svg PUBLIC "-//W3C//DTD SVG 1.1//EN" "http://www.w3.org/Graphics/SVG/1.1/DTD/svg11.dtd">
<svg version="1.1" id="Layer_1" xmlns="http://www.w3.org/2000/svg" xmlns:xlink="http://www.w3.org/1999/xlink" x="0px" y="0px"
	 width="16px" height="16px" viewBox="0 0 16 16" enable-background="new 0 0 16 16" xml:space="preserve">
<path fill="#FFFFFF" d="M3.6,2C3.275,2,3,2.275,3,2.6v10.8C3,13.726,3.275,14,3.6,14h8.8c0.325,0,0.6-0.274,0.6-0.6V3.66
	c0-0.156-0.064-0.31-0.177-0.423l-1.06-1.061C11.651,2.065,11.496,2,11.34,2H3.6z"/>
<path fill="#5C5E5F" d="M7.193,14H3.6C3.275,14,3,13.726,3,13.4V2.6C3,2.275,3.275,2,3.6,2h7.74c0.156,0,0.312,0.065,0.424,0.177
	l1.06,1.061C12.936,3.35,13,3.504,13,3.66v3.094c0.759,0.24,1.446,0.637,2,1.182V3.66c0-0.683-0.278-1.353-0.764-1.837l-1.06-1.061
	C12.691,0.278,12.022,0,11.34,0H3.6C2.167,0,1,1.167,1,2.6v10.8C1,14.834,2.167,16,3.6,16h5.756C8.446,15.565,7.698,14.867,7.193,14
	z"/>
<g>
	<circle fill="#5C5E5F" cx="11.5" cy="11.5" r="4"/>
	<rect x="11" y="9" fill="#FFFFFF" width="1" height="5"/>
	<rect x="9" y="11" fill="#FFFFFF" width="5" height="1"/>
</g>
</svg>
