<?xml version="1.0" encoding="utf-8"?>
<!DOCTYPE svg PUBLIC "-//W3C//DTD SVG 1.1 Basic//EN" "http://www.w3.org/Graphics/SVG/1.1/DTD/svg11-basic.dtd">
<svg version="1.1" baseProfile="basic" id="Layer_1"
	 xmlns="http://www.w3.org/2000/svg" xmlns:xlink="http://www.w3.org/1999/xlink" x="0px" y="0px" width="16px" height="16px"
	 viewBox="0 0 16 16" xml:space="preserve">
<path fill="#5C5E5F" d="M7.19,14H3.71C3.32,14,3,13.67,3,13.27V3.73C3,3.33,3.32,3,3.71,3h8.57C12.68,3,13,3.33,13,3.73v3.02
	c0.76,0.24,1.45,0.64,2,1.18v-4.2C15,2.23,13.78,1,12.29,1H3.71C2.22,1,1,2.23,1,3.73v9.53C1,14.77,2.22,16,3.71,16h5.64
	C8.45,15.57,7.7,14.87,7.19,14z"/>
<path fill="#FFFFFF" d="M3.71,3C3.32,3,3,3.33,3,3.73v9.53C3,13.67,3.32,14,3.71,14h8.57c0.39,0,0.71-0.33,0.71-0.73V3.73
	C13,3.33,12.68,3,12.29,3H3.71z"/>
<g>
	<circle fill="#5C5E5F" cx="11.5" cy="11.5" r="4"/>
	<rect x="11" y="9" fill="#FFFFFF" width="1" height="5"/>
	<rect x="9" y="11" fill="#FFFFFF" width="5" height="1"/>
</g>
<path fill="#FFFFFF" stroke="#5C5E5F" stroke-width="1.5" stroke-miterlimit="10" d="M11.5,5L9.75,6h-3.5L4.5,5c0,0,0-0.75,0-1
	c0-0.55,2.14-3,2.62-3h1.75c0.48,0,2.62,2.45,2.62,3C11.5,4.25,11.5,5,11.5,5z"/>
<g>
</g>
<g>
</g>
<g>
</g>
<g>
</g>
<g>
</g>
</svg>
