<?xml version="1.0" encoding="utf-8"?>
<!DOCTYPE svg PUBLIC "-//W3C//DTD SVG 1.1 Basic//EN" "http://www.w3.org/Graphics/SVG/1.1/DTD/svg11-basic.dtd">
<svg version="1.1" baseProfile="basic" id="Layer_1"
	 xmlns="http://www.w3.org/2000/svg" xmlns:xlink="http://www.w3.org/1999/xlink" x="0px" y="0px" width="16px" height="16px"
	 viewBox="0 0 16 16" xml:space="preserve">
<polygon fill="#FFFFFF" points="12.18,16 3.94,16 2,14.31 2,2 13.67,2 15,3.72 15,12.02 "/>
<g>
	<path fill="#5C5E5F" d="M12.48,8.4c-0.17-0.22-0.3-0.17-0.3,0.1v7c0,0.28,0.13,0.32,0.3,0.1l2.4-3.2c0.17-0.22,0.17-0.58,0-0.8
		L12.48,8.4z"/>
	<rect x="4.18" y="11" fill="#5C5E5F" width="9" height="2"/>
</g>
<path fill="#5C5E5F" d="M3.71,14C3.32,14,3,13.67,3,13.27V3.73C3,3.33,3.32,3,3.71,3h8.57C12.68,3,13,3.33,13,3.73v3.52l2,2.67V3.73
	C15,2.23,13.78,1,12.29,1H3.71C2.22,1,1,2.23,1,3.73v9.53C1,14.77,2.22,16,3.71,16h7.22v-2H3.71z"/>
<path fill="#FFFFFF" stroke="#5C5E5F" stroke-width="1.5" stroke-miterlimit="10" d="M11.5,5L9.75,6h-3.5L4.5,5c0,0,0-0.75,0-1
	c0-0.55,2.14-3,2.62-3h1.75c0.48,0,2.62,2.45,2.62,3C11.5,4.25,11.5,5,11.5,5z"/>
<g>
</g>
<g>
</g>
<g>
</g>
<g>
</g>
<g>
</g>
</svg>
