<?xml version="1.0" encoding="utf-8"?>
<!DOCTYPE svg PUBLIC "-//W3C//DTD SVG 1.1 Basic//EN" "http://www.w3.org/Graphics/SVG/1.1/DTD/svg11-basic.dtd">
<svg version="1.1" baseProfile="basic" id="Layer_1"
	 xmlns="http://www.w3.org/2000/svg" xmlns:xlink="http://www.w3.org/1999/xlink" x="0px" y="0px" width="16px" height="16px"
	 viewBox="0 0 16 16" xml:space="preserve">
<g>
	<g>
		<path fill="#5C5E5F" d="M3.6,14C3.28,14,3,13.6,3,13.14V3.86C3,3.4,3.28,3,3.6,3h8.8C12.68,3,13,3.35,13,3.86V6.4L15,6V3.86
			C15,2.28,13.83,1,12.4,1H3.6C2.17,1,1,2.28,1,3.86v9.29C1,14.72,2.17,16,3.6,16H10l-0.25-2H3.6z"/>
	</g>
	<path fill="#FFFFFF" stroke="#5C5E5F" stroke-width="1.5" stroke-miterlimit="10" d="M11.5,5L9.75,6h-3.5L4.5,5c0,0,0-0.75,0-1
		c0-0.55,2.14-3,2.62-3h1.75c0.48,0,2.62,2.45,2.62,3C11.5,4.25,11.5,5,11.5,5z"/>
</g>
<rect x="10.75" y="14" fill="#CE1906" width="2.5" height="2"/>
<path fill="#CE1906" d="M15.08,7.33L9.22,8.45L8.78,8.92l1.69,4.33h3.06l1.97-5.5L15.08,7.33z M12.44,12.57l-1.74,0.04L9.76,9.26
	l0.26-0.35l3.37-0.56l0.23,0.31L12.44,12.57z"/>
<g>
</g>
<g>
</g>
<g>
</g>
<g>
</g>
<g>
</g>
</svg>
