<?xml version="1.0" encoding="utf-8"?>
<!DOCTYPE svg PUBLIC "-//W3C//DTD SVG 1.1 Basic//EN" "http://www.w3.org/Graphics/SVG/1.1/DTD/svg11-basic.dtd">
<svg version="1.1" baseProfile="basic" id="Layer_1"
	 xmlns="http://www.w3.org/2000/svg" xmlns:xlink="http://www.w3.org/1999/xlink" x="0px" y="0px" width="16px" height="16px"
	 viewBox="0 0 16 16" xml:space="preserve">
<rect x="3" y="3" fill="#FFFFFF" width="12" height="13"/>
<path fill="#5C5E5F" d="M3.6,14C3.28,14,3,13.6,3,13.14V3.86C3,3.4,3.28,3,3.6,3h8.8C12.68,3,13,3.35,13,3.86V7.5l2,3.5V3.86
	C15,2.28,13.83,1,12.4,1H3.6C2.17,1,1,2.28,1,3.86v9.29C1,14.72,2.17,16,3.6,16h2.9l1-2H3.6z"/>
<path fill="#CE1906" d="M16,16H8l4-7.2L16,16z M9.44,15.16h4.29l-2.15-3.85L9.44,15.16z"/>
<path fill="#FFFFFF" stroke="#5C5E5F" stroke-width="1.5" stroke-miterlimit="10" d="M11.5,5L9.75,6h-3.5L4.5,5c0,0,0-0.75,0-1
	c0-0.55,2.14-3,2.62-3h1.75c0.48,0,2.62,2.45,2.62,3C11.5,4.25,11.5,5,11.5,5z"/>
<g>
</g>
<g>
</g>
<g>
</g>
<g>
</g>
<g>
</g>
</svg>
