<?xml version="1.0" encoding="utf-8"?>
<svg version="1.1" id="Layer_1" xmlns="http://www.w3.org/2000/svg" xmlns:xlink="http://www.w3.org/1999/xlink" x="0px" y="0px"
	 viewBox="0 0 10 10" enable-background="new 0 0 10 10" xml:space="preserve">
<g id="Logoff">
	<polygon fill="#5B5C5C" points="5.75,4.688 4.25,4.688 3.438,0 6.563,0 	"/>
	<path fill="#5B5C5C" d="M3.27,2.36C2.411,2.924,1.844,3.896,1.844,5c0,1.743,1.413,3.156,3.156,3.156S8.156,6.743,8.156,5
		c0-1.104-0.567-2.076-1.426-2.64l0.44-1.691C8.756,1.464,9.844,3.105,9.844,5c0,2.675-2.169,4.844-4.844,4.844S0.156,7.675,0.156,5
		c0-1.895,1.088-3.536,2.674-4.332L3.27,2.36z"/>
</g>
</svg>
