<?xml version="1.0" encoding="utf-8"?>
<!-- Generator: Adobe Illustrator 17.1.0, SVG Export Plug-In . SVG Version: 6.00 Build 0)  -->
<!DOCTYPE svg PUBLIC "-//W3C//DTD SVG 1.1//EN" "http://www.w3.org/Graphics/SVG/1.1/DTD/svg11.dtd">
<svg version="1.1" id="Layer_1" xmlns="http://www.w3.org/2000/svg" xmlns:xlink="http://www.w3.org/1999/xlink" x="0px" y="0px"
	 viewBox="0 0 220 220" enable-background="new 0 0 220 220" xml:space="preserve">
<g id="Main_Man">
	<g>
		<rect x="96.25" y="27.5" fill="#5C5D5D" width="27.5" height="55"/>
		<rect x="82.5" y="41.25" fill="#5C5D5D" width="55" height="27.5"/>
		<rect x="55" y="110" fill="#5C5D5D" width="110" height="27.5"/>
		<rect x="96.25" y="96.25" fill="#5C5D5D" width="27.5" height="68.75"/>
		<rect x="82.5" y="137.5" fill="#5C5D5D" width="55" height="13.75"/>
		<rect x="123.75" y="165" fill="#5C5D5D" width="27.5" height="27.5"/>
		<rect x="137.5" y="178.75" fill="#5C5D5D" width="27.5" height="27.5"/>
		<rect x="68.75" y="165" fill="#5C5D5D" width="27.5" height="27.5"/>
		<rect x="55" y="178.75" fill="#5C5D5D" width="27.5" height="27.5"/>
		<rect x="41.25" y="192.5" fill="#5C5D5D" width="27.5" height="27.5"/>
		<rect x="151.25" y="192.5" fill="#5C5D5D" width="27.5" height="27.5"/>
	</g>
	<g>
		<rect x="27.5" fill="#5C5D5D" width="27.5" height="13.75"/>
		<rect x="13.75" y="13.75" fill="#5C5D5D" width="27.5" height="13.75"/>
		<rect y="27.5" fill="#5C5D5D" width="27.5" height="13.75"/>
		<rect y="41.25" fill="#5C5D5D" width="13.75" height="55"/>
	</g>
	<g>
		<rect x="165" fill="#5C5D5D" width="27.5" height="13.75"/>
		<rect x="178.75" y="13.75" fill="#5C5D5D" width="27.5" height="13.75"/>
		<rect x="192.5" y="27.5" fill="#5C5D5D" width="27.5" height="13.75"/>
		<rect x="206.25" y="41.25" fill="#5C5D5D" width="13.75" height="55"/>
	</g>
</g>
</svg>
