<?xml version="1.0" encoding="utf-8"?>
<!DOCTYPE svg PUBLIC "-//W3C//DTD SVG 1.1 Basic//EN" "http://www.w3.org/Graphics/SVG/1.1/DTD/svg11-basic.dtd">
<svg version="1.1" baseProfile="basic" id="Layer_1"
	 xmlns="http://www.w3.org/2000/svg" xmlns:xlink="http://www.w3.org/1999/xlink" x="0px" y="0px" width="16px" height="16px"
	 viewBox="0 0 16 16" xml:space="preserve">
<g>
	<path fill="#5B5C5C" d="M14.71,12.63l-0.05,0.07C12.88,14.83,10.52,16,8,16s-4.88-1.17-6.66-3.3l-0.05-0.07l0.01-0.08
		c0.34-2.24,1.51-4.03,3.29-5.06l0.13-0.07l0.1,0.11C5.66,8.4,6.79,8.89,8,8.89s2.34-0.48,3.18-1.37l0.1-0.11l0.13,0.07
		c1.78,1.03,2.95,2.82,3.29,5.06L14.71,12.63z"/>
	<path fill="none" stroke="#5B5C5C" stroke-width="1.5" stroke-miterlimit="10" d="M8,6.75c1.65,0,3-1.35,3-3c0-1.65-1.35-3-3-3
		s-3,1.35-3,3S6.35,6.75,8,6.75z"/>
</g>
</svg>
