<?xml version="1.0" encoding="utf-8"?>
<!-- Generator: Adobe Illustrator 17.1.0, SVG Export Plug-In . SVG Version: 6.00 Build 0)  -->
<!DOCTYPE svg PUBLIC "-//W3C//DTD SVG 1.1//EN" "http://www.w3.org/Graphics/SVG/1.1/DTD/svg11.dtd">
<svg version="1.1" id="Measure" xmlns="http://www.w3.org/2000/svg" xmlns:xlink="http://www.w3.org/1999/xlink" x="0px" y="0px"
	 viewBox="0 0 160 160" enable-background="new 0 0 160 160" xml:space="preserve">
<path fill="#4D4E4E" d="M105,153c-5.737,2.531-18.73,1.996-25,2c-6.27,0.004-19.273,0.553-25-2c-14.267-6.36-38.308-32.471-40-48
	c-1.211-11.115,11.465-32.779,20-40c5.398-4.567,22.487-11.584,20-20c-3.489-11.806-36.725-8.133-40-20
	c-2.129-7.716,14.142-11.885,20-13c11.095-2.111,33.706-3.999,45-4c11.294-0.001,33.906,1.883,45,4c5.858,1.118,22.165,5.294,20,13
	c-3.33,11.852-36.51,8.194-40,20c-2.518,8.518,14.6,15.434,20,20c8.538,7.219,21.206,28.885,20,40
	C143.315,120.529,119.291,146.695,105,153z"/>
<g>
	<path fill="#FFFFFF" d="M69.414,86.238c-0.261,0.078-1.758,2.227-4.492,6.445c-1.953,2.995-3.256,4.948-3.906,5.859l-0.469,0.938
		c2.552,2.109,4.752,5,6.602,8.672l4.727,9.258h1.484c2.604,0,4.368,0.3,5.293,0.898c0.924,0.6,1.387,1.628,1.387,3.086
		c0,1.459-0.456,2.494-1.367,3.105c-0.912,0.612-2.683,0.918-5.313,0.918h-0.898c-2.761,0-4.401-0.201-4.922-0.605
		c-0.521-0.403-1.354-1.712-2.5-3.926l-4.727-9.219c-2.578-4.974-5.313-7.461-8.203-7.461h-2.266v13.203
		c0.364-0.025,0.729-0.039,1.094-0.039c3.672,0,5.508,1.342,5.508,4.023c0,1.459-0.449,2.494-1.348,3.105
		c-0.898,0.612-2.65,0.918-5.254,0.918h-8.008c-2.578,0-4.33-0.299-5.254-0.898c-0.925-0.599-1.387-1.627-1.387-3.086
		c0-1.458,0.462-2.493,1.387-3.105c0.924-0.611,2.676-0.918,5.254-0.918V86.082c-0.365,0.026-0.729,0.039-1.094,0.039
		c-3.698,0-5.547-1.354-5.547-4.063c0-1.458,0.455-2.486,1.367-3.086c0.911-0.599,2.669-0.898,5.273-0.898h8.008
		c2.578,0,4.322,0.3,5.234,0.898c0.911,0.6,1.367,1.628,1.367,3.086c0,1.459-0.456,2.494-1.367,3.105
		c-0.912,0.612-2.656,0.918-5.234,0.918V96.16h1.094c0.885,0,1.614-0.182,2.188-0.547c0.572-0.364,1.393-1.354,2.461-2.969
		l5.781-8.789c1.224-1.849,2.604-3.281,4.141-4.297c1.536-1.016,3.697-1.523,6.484-1.523c1.744,0,2.981,0.261,3.711,0.781
		c0.729,0.521,1.185,1.12,1.367,1.797c0.182,0.678,0.273,2.058,0.273,4.141v0.781c0,2.526-0.287,4.238-0.859,5.137
		c-0.573,0.898-1.576,1.348-3.008,1.348C70.846,92.02,69.492,90.093,69.414,86.238z"/>
	<path fill="#FFFFFF" d="M100.664,117.41h4.688c3.567,0,5.352,1.342,5.352,4.023c0,2.656-1.784,3.984-5.352,3.984H88.008
		c-3.568,0-5.352-1.341-5.352-4.023c0-2.656,1.783-3.984,5.352-3.984h4.648V86.082h-4.648c-3.568,0-5.352-1.341-5.352-4.023
		c0-2.656,1.783-3.984,5.352-3.984h37.93V93.66c0,3.542-1.328,5.313-3.984,5.313c-2.683,0-4.023-1.771-4.023-5.313v-7.578h-17.266
		V117.41z"/>
</g>
<g>
</g>
<g>
</g>
<g>
</g>
<g>
</g>
<g>
</g>
<g>
</g>
</svg>
