<?xml version="1.0" encoding="utf-8"?>
<!DOCTYPE svg PUBLIC "-//W3C//DTD SVG 1.1 Basic//EN" "http://www.w3.org/Graphics/SVG/1.1/DTD/svg11-basic.dtd">
<svg version="1.1" baseProfile="basic" id="Layer_1"
	 xmlns="http://www.w3.org/2000/svg" xmlns:xlink="http://www.w3.org/1999/xlink" x="0px" y="0px" width="16px" height="16px"
	 viewBox="0 0 16 16" xml:space="preserve">
<path fill="#8ACE76" d="M7,4.67C7,5.96,5.96,7,4.67,7H2.33C1.04,7,0,5.96,0,4.67V2.33C0,1.04,1.04,0,2.33,0h2.33
	C5.96,0,7,1.04,7,2.33V4.67z"/>
<path fill="#FFD622" d="M16,4.67C16,5.96,14.95,7,13.67,7h-2.33C10.04,7,9,5.96,9,4.67V2.33C9,1.04,10.04,0,11.33,0h2.33
	C14.95,0,16,1.04,16,2.33V4.67z"/>
<path fill="#FFC8C2" d="M7,13.67C7,14.95,5.96,16,4.67,16H2.33C1.04,16,0,14.95,0,13.67v-2.33C0,10.04,1.04,9,2.33,9h2.33
	C5.96,9,7,10.04,7,11.33V13.67z"/>
<path fill="#D2D8E2" d="M16,13.67c0,1.29-1.04,2.33-2.33,2.33h-2.33C10.05,16,9,14.96,9,13.67v-2.33C9,10.04,10.05,9,11.33,9h2.33
	C14.96,9,16,10.04,16,11.33V13.67z"/>
</svg>
