<?xml version="1.0" encoding="utf-8"?>
<!DOCTYPE svg PUBLIC "-//W3C//DTD SVG 1.1//EN" "http://www.w3.org/Graphics/SVG/1.1/DTD/svg11.dtd">
<svg version="1.1" id="Layer_1" xmlns="http://www.w3.org/2000/svg" xmlns:xlink="http://www.w3.org/1999/xlink" x="0px" y="0px"
	 width="15px" height="15px" viewBox="0 0 15 15" enable-background="new 0 0 15 15" xml:space="preserve">
<path fill="#8BC675" d="M7,4.67C7,5.96,5.96,7,4.67,7H0V2.33C0,1.04,1.04,0,2.33,0H7V4.67z"/>
<path fill="#FFD522" d="M12.67,0C13.96,0,15,1.04,15,2.33V7h-4.67C9.04,7,8,5.96,8,4.67V0H12.67z"/>
<path fill="#FFAFA9" d="M4.67,8C5.96,8,7,9.04,7,10.33V15H2.33C1.04,15,0,13.96,0,12.67V8H4.67z"/>
<path fill="#588FE0" d="M15,12.67c0,1.29-1.04,2.33-2.33,2.33H8v-4.67C8,9.04,9.04,8,10.33,8H15V12.67z"/>
</svg>
