<?xml version="1.0" encoding="utf-8"?>
<!DOCTYPE svg PUBLIC "-//W3C//DTD SVG 1.1//EN" "http://www.w3.org/Graphics/SVG/1.1/DTD/svg11.dtd">
<svg version="1.1" id="Layer_1" xmlns="http://www.w3.org/2000/svg" xmlns:xlink="http://www.w3.org/1999/xlink" x="0px" y="0px"
	 width="21px" height="21px" viewBox="0 0 21 21" enable-background="new 0 0 21 21" xml:space="preserve">
<path fill="#FFAFA9" d="M6.67,11H0v6.67C0,19.51,1.49,21,3.33,21H10v-6.67C10,12.49,8.51,11,6.67,11z"/>
<path fill="#588FE0" d="M14.33,11C12.49,11,11,12.49,11,14.33V21h6.67c1.84,0,3.33-1.49,3.33-3.33V11H14.33z"/>
<path fill="#8BC675" d="M3.33,0C1.49,0,0,1.49,0,3.33V10h6.67C8.51,10,10,8.51,10,6.67V0H3.33z"/>
<path fill="#FFD522" d="M11,6.67C11,8.51,12.49,10,14.33,10H21V3.33C21,1.49,19.51,0,17.67,0H11V6.67z"/>
</svg>
