<?xml version="1.0" encoding="utf-8"?>
<!DOCTYPE svg PUBLIC "-//W3C//DTD SVG 1.1 Basic//EN" "http://www.w3.org/Graphics/SVG/1.1/DTD/svg11-basic.dtd">
<svg version="1.1" baseProfile="basic" id="Layer_3"
	 xmlns="http://www.w3.org/2000/svg" xmlns:xlink="http://www.w3.org/1999/xlink" x="0px" y="0px" width="16px" height="16px"
	 viewBox="0 0 16 16" xml:space="preserve">
<g id="Prices">
	<path fill="none" stroke="#5C5E5F" stroke-width="2" stroke-miterlimit="10" d="M8,15H3.6C2.72,15,2,14.28,2,13.4V2.6
		C2,1.72,2.72,1,3.6,1h7.74c0.42,0,0.83,0.17,1.13,0.47l1.06,1.06C13.83,2.83,14,3.24,14,3.66V9"/>
</g>
<path fill="#5C5E5F" d="M15,11c-0.02,1.19-2-2-2-2h2C15,9,15.01,10.58,15,11z"/>
<path fill="#5C5E5F" d="M9.05,16C8.53,16,8,16,8,16v-2C8,14,11.68,16,9.05,16z"/>
<circle fill="#CE1806" cx="12" cy="13" r="2.5"/>
<g>
</g>
<g>
</g>
<g>
</g>
<g>
</g>
<g>
</g>
</svg>
