<?xml version="1.0" encoding="utf-8"?>
<!DOCTYPE svg PUBLIC "-//W3C//DTD SVG 1.1 Basic//EN" "http://www.w3.org/Graphics/SVG/1.1/DTD/svg11-basic.dtd">
<svg version="1.1" baseProfile="basic" id="Layer_3"
	 xmlns="http://www.w3.org/2000/svg" xmlns:xlink="http://www.w3.org/1999/xlink" x="0px" y="0px" width="16px" height="16px"
	 viewBox="0 0 16 16" xml:space="preserve">
<g id="Prices">
	<path fill="none" stroke="#5C5E5F" stroke-width="2" stroke-miterlimit="10" d="M8,15H3.6C2.72,15,2,14.28,2,13.4V2.6
		C2,1.72,2.72,1,3.6,1h7.74c0.42,0,0.83,0.17,1.13,0.47l1.06,1.06C13.83,2.83,14,3.24,14,3.66V9"/>
</g>
<g id="Prices_1_">
	<rect x="5" y="3" fill="#5C5E5F" width="2" height="10"/>
	<path fill="none" stroke="#5C5E5F" stroke-miterlimit="10" d="M8.5,8.5H6v-5h2.5c0.55,0,1,0.45,1,1v3C9.5,8.05,9.05,8.5,8.5,8.5z"
		/>
	<rect x="4" y="8" fill="#5C5E5F" width="1" height="1"/>
	<rect x="4" y="10" fill="#5C5E5F" width="6" height="1"/>
	<path fill="#5C5E5F" d="M10.3,7.5H9.4v-3h0.9c0.33,0,0.6,0.21,0.6,0.46v2.08C10.9,7.29,10.63,7.5,10.3,7.5z"/>
</g>
<path fill="none" stroke="#CE1806" stroke-miterlimit="10" d="M14.5,15.5h-5c0,0,0.99-4.5,2.5-4.5S14.5,15.5,14.5,15.5z"/>
<path fill="#5C5E5F" d="M15,11c-0.02,1.19-2-2-2-2h2C15,9,15.01,10.58,15,11z"/>
<path fill="#5C5E5F" d="M8.25,14C8.12,14,8,14,8,14v2C8,16,8.88,14,8.25,14z"/>
<g>
</g>
<g>
</g>
<g>
</g>
<g>
</g>
<g>
</g>
</svg>
