<?xml version="1.0" encoding="utf-8"?>
<!DOCTYPE svg PUBLIC "-//W3C//DTD SVG 1.1//EN" "http://www.w3.org/Graphics/SVG/1.1/DTD/svg11.dtd">
<svg version="1.1" id="Layer_1" xmlns="http://www.w3.org/2000/svg" xmlns:xlink="http://www.w3.org/1999/xlink" x="0px" y="0px"
	 viewBox="0 0 160 160" enable-background="new 0 0 160 160" xml:space="preserve">
<g id="Reload">
	<g>
		<path fill="none" stroke="#5C5D5D" stroke-width="12" stroke-miterlimit="10" d="M139.958,80h-13.864H97.011
			c-0.898,0-1.348-1.086-0.713-1.722l46.981-46.981c0.635-0.635,1.722-0.185,1.722,0.713v42.947C145,77.742,142.742,80,139.958,80z"
			/>
		<path fill="#5C5D5D" d="M106.038,68.538C107.474,70.467,97.133,43.198,88,36c-8.365-6.592-13.048-7.292-20.766-7.478
			C53.646,28.193,43.923,35.775,35,41.96v-1.793c0.715-10.116,11.872-22.38,21.333-26.667c13.181-5.972,30.599-5.908,45.333,2.833
			c14.956,8.873,30.632,25.944,28.887,27.689L106.038,68.538z"/>
	</g>
	<g>
		<path fill="none" stroke="#5C5D5D" stroke-width="12" stroke-miterlimit="10" d="M20.042,80H38.66h24.329
			c0.898,0,1.348,1.086,0.713,1.722l-46.981,46.981c-0.635,0.635-1.722,0.185-1.722-0.713V85.042C15,82.258,17.258,80,20.042,80z"/>
		<path fill="#5C5D5D" d="M53.962,91.462C52.526,89.533,62.867,116.802,72,124c8.365,6.592,13.048,7.292,20.766,7.478
			c13.588,0.329,23.311-7.253,32.234-13.438v1.793c-0.715,10.116-11.872,22.38-21.333,26.667
			c-13.181,5.972-30.599,5.908-45.333-2.833c-14.956-8.873-30.632-25.944-28.887-27.689L53.962,91.462z"/>
	</g>
</g>
</svg>
