<?xml version="1.0" encoding="utf-8"?>
<!DOCTYPE svg PUBLIC "-//W3C//DTD SVG 1.1//EN" "http://www.w3.org/Graphics/SVG/1.1/DTD/svg11.dtd">
<svg version="1.1" id="Layer_1" xmlns="http://www.w3.org/2000/svg" xmlns:xlink="http://www.w3.org/1999/xlink" x="0px" y="0px"
	 width="16px" height="16px" viewBox="0 0 16 16" enable-background="new 0 0 16 16" xml:space="preserve">
<g>
	<g>
		<path fill="#5B5C5C" d="M15,15c0,0.55-0.45,1-1,1H2c-0.55,0-1-0.45-1-1V1c0-0.55,0.45-1,1-1h12c0.55,0,1,0.45,1,1V15z"/>
	</g>
	<rect x="2" y="2" fill="#FFFFFF" width="12" height="12"/>
</g>
<g>
	<g>
		<rect x="4.25" y="5" fill="#5C5E5F" width="8.75" height="1"/>
		<rect x="3" y="3.5" fill="#3D8AF9" width="2.5" height="2.5"/>
	</g>
	<g>
		<path fill="#5C5E5F" d="M3.98,10.98c0.15,0,0.3-0.04,0.43-0.11l1.12,0.92c-0.01,0.04-0.03,0.08-0.03,0.12
			c0,0.54,0.44,0.98,0.98,0.98c0.54,0,0.98-0.44,0.98-0.98c0-0.16-0.04-0.3-0.11-0.43c0.54-0.81,1.22-1.84,1.64-2.46
			c0.06,0.01,0.12,0.04,0.19,0.04c0.24,0,0.44-0.09,0.61-0.23c0.37,0.21,0.85,0.49,1.26,0.73c0,0.01-0.01,0.02-0.01,0.04
			c0,0.54,0.44,0.98,0.98,0.98c0.54,0,0.98-0.44,0.98-0.98c0-0.54-0.44-0.98-0.98-0.98c-0.24,0-0.45,0.1-0.62,0.24l-1.25-0.73
			c0-0.02,0.01-0.03,0.01-0.05c0-0.54-0.44-0.98-0.98-0.98c-0.54,0-0.98,0.44-0.98,0.98c0,0.18,0.06,0.34,0.15,0.49
			c-0.51,0.77-1.18,1.78-1.61,2.41c-0.08-0.02-0.17-0.05-0.26-0.05c-0.2,0-0.38,0.08-0.54,0.18c-0.31-0.25-0.69-0.57-1.04-0.85
			c0.02-0.09,0.05-0.17,0.05-0.26c0-0.54-0.44-0.98-0.98-0.98C3.44,9.02,3,9.46,3,10C3,10.54,3.44,10.98,3.98,10.98z"/>
		<circle fill="#CE1906" cx="6.48" cy="11.92" r="0.98"/>
	</g>
</g>
</svg>
