<?xml version="1.0" encoding="utf-8"?>
<!DOCTYPE svg PUBLIC "-//W3C//DTD SVG 1.1 Basic//EN" "http://www.w3.org/Graphics/SVG/1.1/DTD/svg11-basic.dtd">
<svg version="1.1" baseProfile="basic" id="Layer_1"
	 xmlns="http://www.w3.org/2000/svg" xmlns:xlink="http://www.w3.org/1999/xlink" x="0px" y="0px" width="48px" height="48px"
	 viewBox="0 0 48 48" xml:space="preserve">
<g>
	<path fill="#999999" d="M46.28,11.86C48.94,19.54,44.01,28.7,35,33.93c-0.62,0.36-1.69,1.61-0.46,3.99C36.05,40.86,40,45,40,45
		s-5.92-2-9-3.99c-3.12-2.01-3.41-3.99-4-3.84c-10.53,2.61-20.52-1.06-23.28-9.03C0.65,19.28,7.69,8.45,19.44,3.95
		C31.2-0.55,43.21,2.99,46.28,11.86z"/>
	<linearGradient id="SVGID_1_" gradientUnits="userSpaceOnUse" x1="10.356" y1="6.356" x2="43.0003" y2="39.0003">
		<stop  offset="0" style="stop-color:#FFDA00"/>
		<stop  offset="0.3752" style="stop-color:#FBD700"/>
		<stop  offset="0.7634" style="stop-color:#EECC00"/>
		<stop  offset="1" style="stop-color:#E3C300"/>
	</linearGradient>
	<path fill="url(#SVGID_1_)" d="M44.28,10.86C46.94,18.54,42.01,27.7,33,32.93c-0.62,0.36-1.69,1.61-0.46,3.99
		C34.05,39.86,38,44,38,44s-5.92-2-9-3.99c-3.12-2.01-3.41-3.99-4-3.84c-10.53,2.61-20.52-1.06-23.28-9.03
		C-1.35,18.28,5.69,7.45,17.44,2.95C29.2-1.55,41.21,1.99,44.28,10.86z"/>
</g>
<g>
	<path fill="#999999" d="M39.86,13.53c-0.07-0.45-0.18-0.9-0.3-1.38c-0.06-0.24-0.12-0.49-0.18-0.74c-1.02-4.51-6.22-5.48-8.7-5.69
		c-0.1-0.01-0.23-0.27-0.25-0.38C30.39,5.09,30.4,4.54,30.5,4.3c0.04-0.1,0.24-0.3,0.34-0.3c5.51,0.45,9.32,3.07,10.22,7.03
		c0.05,0.23,0.11,0.47,0.17,0.7c0.14,0.54,0.28,1.1,0.35,1.69c0.02,0.15-0.19,0.41-0.32,0.47c-0.23,0.12-0.79,0.15-1.04,0.07
		C40.1,13.91,39.88,13.68,39.86,13.53z"/>
	<g>
		<path fill="#FFFFFF" stroke="#999999" stroke-miterlimit="10" d="M15.91,24.8c0.54,0,0.99,0.18,1.35,0.54
			c0.36,0.36,0.55,0.8,0.55,1.33c0,0.64-0.24,1.19-0.72,1.67c-0.48,0.47-1.04,0.71-1.68,0.71c-0.51,0-0.95-0.18-1.31-0.54
			c-0.36-0.36-0.54-0.8-0.54-1.33c0-0.64,0.24-1.19,0.71-1.67C14.74,25.04,15.29,24.8,15.91,24.8z M20.16,13.26L17,23.31h-1.46
			l0.59-10c0.08-1.31,0.33-2.25,0.75-2.83c0.42-0.57,1.07-0.86,1.94-0.86c0.56,0,0.99,0.15,1.3,0.44c0.31,0.29,0.46,0.7,0.46,1.22
			c0,0.2-0.03,0.45-0.09,0.74C20.43,12.33,20.32,12.73,20.16,13.26z"/>
		<path fill="#FFFFFF" stroke="#999999" stroke-miterlimit="10" d="M26.3,24.8c0.53,0,0.97,0.18,1.32,0.54
			c0.35,0.36,0.53,0.8,0.53,1.33c0,0.64-0.24,1.19-0.72,1.67s-1.04,0.71-1.69,0.71c-0.49,0-0.91-0.18-1.26-0.54
			s-0.53-0.79-0.53-1.31c0-0.64,0.23-1.2,0.7-1.68C25.12,25.04,25.67,24.8,26.3,24.8z M27.96,20.88l-0.46,2.58h-1.82l0.7-3.82
			c1.59-0.52,2.83-1.28,3.71-2.27c0.88-0.99,1.32-2.12,1.32-3.38c0-0.87-0.26-1.54-0.79-2.01c-0.52-0.47-1.28-0.7-2.26-0.7h-0.08
			l-1.85,3.16c-0.06,0.01-0.14,0.02-0.22,0.02c-0.08,0-0.2,0.01-0.34,0.01c-0.59,0-1.04-0.12-1.34-0.35s-0.45-0.57-0.45-1.02
			c0-0.95,0.53-1.76,1.6-2.43c1.07-0.67,2.4-1.01,3.99-1.01c1.67,0,2.98,0.38,3.93,1.15c0.95,0.77,1.43,1.83,1.43,3.19
			c0,1.53-0.6,2.89-1.81,4.07S30.26,20.18,27.96,20.88z"/>
	</g>
</g>
<g>
</g>
<g>
</g>
<g>
</g>
<g>
</g>
<g>
</g>
</svg>
