<?xml version="1.0" encoding="utf-8"?>
<!DOCTYPE svg PUBLIC "-//W3C//DTD SVG 1.1 Basic//EN" "http://www.w3.org/Graphics/SVG/1.1/DTD/svg11-basic.dtd">
<svg version="1.1" baseProfile="basic" id="Layer_1"
	 xmlns="http://www.w3.org/2000/svg" xmlns:xlink="http://www.w3.org/1999/xlink" x="0px" y="0px" width="16px" height="16px"
	 viewBox="0 0 16 16" xml:space="preserve">
<g>
	<path fill="#5C5E5F" d="M8,15.9c0.17,0,0.77-0.03,1-0.12c1.27-0.48,3.42-2.26,4.33-3.26c0.75-0.83,1.78-2.89,2.05-3.98
		c0.34-1.34,0.59-3.6,0.5-5.5c-0.01-0.22-0.13-0.41-0.33-0.54c-0.2-0.13-0.46-0.18-0.71-0.13c-0.25,0.05-0.53,0.08-0.81,0.08
		c-2.61,0-5.43-2.14-5.46-2.16C8.42,0.17,8.21,0.1,8,0.1L8,0.1c-0.21,0-0.41,0.07-0.57,0.18C7.4,0.31,4.58,2.45,1.97,2.45
		c-0.28,0-0.56-0.03-0.81-0.08c-0.24-0.05-0.51,0-0.71,0.13c-0.2,0.13-0.32,0.33-0.33,0.54c-0.09,1.9,0.16,4.16,0.5,5.5
		c0.28,1.09,1.3,3.15,2.06,3.98c0.91,1,3.06,2.78,4.33,3.26C7.23,15.87,7.83,15.9,8,15.9L8,15.9z"/>
	<linearGradient id="SVGID_1_" gradientUnits="userSpaceOnUse" x1="7.9976" y1="1.75" x2="7.9976" y2="14.2505">
		<stop  offset="0" style="stop-color:#FFFFFF"/>
		<stop  offset="0.5529" style="stop-color:#FDFDFD"/>
		<stop  offset="0.7875" style="stop-color:#F6F6F6"/>
		<stop  offset="0.9616" style="stop-color:#E9E9E9"/>
		<stop  offset="1" style="stop-color:#E6E6E6"/>
	</linearGradient>
	<path fill="url(#SVGID_1_)" d="M8,14.25c0.13,0,0.61-0.02,0.79-0.1c1-0.38,2.7-1.79,3.43-2.58c0.59-0.66,1.41-2.29,1.62-3.15
		c0.27-1.06,0.46-2.85,0.39-4.35c-0.01-0.17-0.1-0.33-0.26-0.43c-0.16-0.1-0.37-0.14-0.56-0.1c-0.2,0.04-0.42,0.06-0.64,0.06
		c-2.06,0-4.3-1.7-4.32-1.71C8.33,1.8,8.17,1.75,8,1.75l-0.01,0c-0.17,0-0.33,0.05-0.45,0.15C7.52,1.91,5.29,3.61,3.23,3.61
		C3,3.61,2.79,3.59,2.58,3.55c-0.19-0.04-0.4,0-0.56,0.1c-0.16,0.1-0.26,0.26-0.26,0.43c-0.07,1.5,0.13,3.29,0.39,4.35
		c0.22,0.86,1.03,2.49,1.63,3.15c0.72,0.79,2.42,2.2,3.42,2.58C7.39,14.23,7.87,14.25,8,14.25L8,14.25z"/>
</g>
<circle fill="none" stroke="#5C5E5F" stroke-width="1.4" stroke-miterlimit="10" cx="8" cy="8" r="2.5"/>
</svg>
