<?xml version="1.0" encoding="utf-8"?>
<!-- Generator: Adobe Illustrator 17.1.0, SVG Export Plug-In . SVG Version: 6.00 Build 0)  -->
<!DOCTYPE svg PUBLIC "-//W3C//DTD SVG 1.1//EN" "http://www.w3.org/Graphics/SVG/1.1/DTD/svg11.dtd">
<svg version="1.1" id="Layer_1" xmlns="http://www.w3.org/2000/svg" xmlns:xlink="http://www.w3.org/1999/xlink" x="0px" y="0px"
	 viewBox="0 0 160 160" enable-background="new 0 0 160 160" xml:space="preserve">
<g id="Selcol_Frame">
	<polyline fill="#5C5D5D" points="10,30 10,20 50,20 50,30 20,30 20,40 10,40 10,20 20,20 	"/>
	<polyline fill="#5C5D5D" points="150,30 150,20 110,20 110,30 140,30 140,40 150,40 150,20 140,20 	"/>
	<polyline fill="#5C5D5D" points="140,140 150,140 150,70 140,70 140,130 120,130 20,130 20,70 10,70 10,140 20,140 	"/>
</g>
<g id="Selcol_Plus">
	<rect x="73" y="43" fill="#5C5D5D" width="14" height="74"/>
	<rect x="43" y="73" fill="#5C5D5D" width="74" height="14"/>
</g>
</svg>
