<?xml version="1.0" encoding="utf-8"?>
<!-- Generator: Adobe Illustrator 17.1.0, SVG Export Plug-In . SVG Version: 6.00 Build 0)  -->
<!DOCTYPE svg PUBLIC "-//W3C//DTD SVG 1.1//EN" "http://www.w3.org/Graphics/SVG/1.1/DTD/svg11.dtd">
<svg version="1.1" id="Selset" xmlns="http://www.w3.org/2000/svg" xmlns:xlink="http://www.w3.org/1999/xlink" x="0px" y="0px"
	 viewBox="0 0 240 160" enable-background="new 0 0 240 160" xml:space="preserve">
<polygon fill="#5C5D5D" points="175,160 240,27.25 240,0 185,0 185,25 205,25 210,40 165,140 75,139.5 30,40 35,25 55,25 55,0 0,0 
	0,27.25 65,159.5 "/>
<path fill="#E0C4C3" d="M88.207,52.221l-7.351-4.157c-0.633-0.358-1.405-0.366-2.045-0.019l-7.43,4.018
	c-1.561,0.844-3.402-0.495-3.097-2.253l1.544-8.911c0.116-0.673-0.093-1.361-0.563-1.852l-6.169-6.45
	c-1.202-1.257-0.485-3.357,1.23-3.603l8.471-1.214c0.7-0.1,1.304-0.545,1.612-1.185l3.795-7.888c0.782-1.626,3.09-1.603,3.841,0.038
	l3.636,7.953c0.296,0.647,0.893,1.104,1.591,1.217l8.439,1.371c1.711,0.278,2.389,2.392,1.163,3.626l-6.297,6.334
	c-0.479,0.482-0.701,1.165-0.598,1.84l1.367,8.944C91.616,51.793,89.751,53.094,88.207,52.221z"/>
<path fill="#E0C4C3" d="M168.207,52.221l-7.351-4.157c-0.633-0.358-1.405-0.366-2.045-0.019l-7.43,4.018
	c-1.561,0.844-3.402-0.495-3.097-2.253l1.544-8.911c0.117-0.673-0.093-1.361-0.563-1.852l-6.169-6.45
	c-1.202-1.257-0.485-3.357,1.23-3.603l8.471-1.214c0.7-0.1,1.304-0.545,1.612-1.185l3.795-7.888c0.782-1.626,3.09-1.603,3.841,0.038
	l3.636,7.953c0.296,0.647,0.893,1.104,1.591,1.217l8.439,1.371c1.711,0.278,2.389,2.392,1.163,3.626l-6.297,6.334
	c-0.479,0.482-0.701,1.165-0.598,1.84l1.367,8.944C171.616,51.793,169.751,53.094,168.207,52.221z"/>
<path fill="#E0C4C3" d="M128.207,132.221l-7.351-4.157c-0.633-0.358-1.405-0.366-2.045-0.019l-7.43,4.018
	c-1.561,0.844-3.402-0.495-3.097-2.253l1.544-8.911c0.116-0.673-0.093-1.361-0.563-1.852l-6.169-6.45
	c-1.202-1.257-0.485-3.357,1.23-3.603l8.471-1.214c0.7-0.1,1.304-0.545,1.612-1.185l3.795-7.888c0.782-1.626,3.09-1.603,3.841,0.038
	l3.636,7.953c0.296,0.647,0.893,1.104,1.591,1.217l8.439,1.371c1.711,0.278,2.389,2.392,1.163,3.626l-6.297,6.334
	c-0.479,0.482-0.701,1.165-0.598,1.84l1.367,8.944C131.616,131.793,129.751,133.094,128.207,132.221z"/>
<rect x="85" y="65" fill="#ABB9C5" width="20" height="20"/>
<rect x="135" y="65" fill="#ABB9C5" width="20" height="20"/>
<rect x="110" y="15" fill="#ABB9C5" width="20" height="20"/>
<g>
</g>
<g>
</g>
<g>
</g>
<g>
</g>
<g>
</g>
<g>
</g>
</svg>
