<?xml version="1.0" encoding="utf-8"?>
<!-- Generator: Adobe Illustrator 17.1.0, SVG Export Plug-In . SVG Version: 6.00 Build 0)  -->
<!DOCTYPE svg PUBLIC "-//W3C//DTD SVG 1.1//EN" "http://www.w3.org/Graphics/SVG/1.1/DTD/svg11.dtd">
<svg version="1.1" id="Layer_1" xmlns="http://www.w3.org/2000/svg" xmlns:xlink="http://www.w3.org/1999/xlink" x="0px" y="0px"
	 viewBox="0 0 160 160" enable-background="new 0 0 160 160" xml:space="preserve">
<g id="Selset_Frame">
	<polyline fill="#5C5D5D" points="0,10 0,0 30,0 30,10 10,10 10,30 0,30 0,0 10,0 	"/>
	<polyline fill="#5C5D5D" points="10,160 0,160 0,130 10,130 10,150 30,150 30,160 0,160 0,150 	"/>
	<polyline fill="#5C5D5D" points="160,10 160,0 130,0 130,10 150,10 150,30 160,30 160,0 150,0 	"/>
	<polyline fill="#5C5D5D" points="150,160 160,160 160,130 150,130 150,150 130,150 130,160 160,160 160,150 	"/>
</g>
<g id="Selset_Edit">
	<path fill="#5C5D5D" d="M50.686,85.823l13.548,26.25c0.84,1.628,3.18,1.584,3.942-0.082c6.543-14.309,30.183-61.698,64.584-81.689
		c1.551-0.901,3.48,0.338,3.307,2.124c-1.29,13.333-3.969,25.438,1.544,39.738c0.443,1.148-0.196,2.402-1.353,2.822
		c-18.722,6.797-52.889,47.975-66.268,70.835c-0.773,1.321-2.604,1.463-3.585,0.288c-15.767-18.881-33.667-33.57-47.379-39.849
		c-1.6-0.733-1.718-2.949-0.214-3.861l28.784-17.445C48.685,84.294,50.103,84.693,50.686,85.823z"/>
</g>
</svg>
