<?xml version="1.0" encoding="utf-8"?>
<!DOCTYPE svg PUBLIC "-//W3C//DTD SVG 1.1 Basic//EN" "http://www.w3.org/Graphics/SVG/1.1/DTD/svg11-basic.dtd">
<svg version="1.1" baseProfile="basic" id="Layer_1"
	 xmlns="http://www.w3.org/2000/svg" xmlns:xlink="http://www.w3.org/1999/xlink" x="0px" y="0px" width="16px" height="16px"
	 viewBox="0 0 16 16" xml:space="preserve">
<g>
	<path fill="#5C5E5F" d="M7.04,11.31c0,0-0.11-0.11,0.07-0.29c0.8-0.8,2.56-2.56,2.56-2.56c0.2-0.2,0.44-0.09,0.53-0.06
		c1.41,0.49,2.95,0.14,4.08-0.99c0.96-0.96,1.33-2.27,1.13-3.51c-0.02-0.16-0.12-0.44-0.42-0.14L13.03,5.7
		c-0.27,0.27-0.71,0.27-0.98,0l-0.88-0.88L10.3,3.95c-0.27-0.27-0.27-0.71,0-0.98l1.96-1.96c0.3-0.3,0.01-0.39-0.14-0.42
		c-1.24-0.2-2.55,0.17-3.51,1.13c-1.13,1.13-1.48,2.66-1,4.08c0.03,0.08,0.14,0.32-0.06,0.52c0,0-1.76,1.76-2.56,2.56
		c-0.19,0.19-0.3,0.08-0.3,0.08L4.5,8.77C4.15,8.43,3.54,8.48,3.13,8.9l-2.49,2.49c-0.41,0.41-0.41,1.07,0,1.48l2.49,2.48
		c0.41,0.41,1.08,0.41,1.48,0l2.49-2.49c0.41-0.41,0.47-1.02,0.12-1.36L7.04,11.31z"/>
	<path fill="#FFFFFF" d="M4.76,11.24c-0.23-0.23-0.55-0.37-0.89-0.37c-0.69,0-1.25,0.56-1.25,1.25c0,0.34,0.13,0.65,0.36,0.89
		c0.23,0.23,0.55,0.36,0.89,0.36c0.33,0,0.65-0.13,0.89-0.36c0.23-0.23,0.36-0.55,0.36-0.89S5,11.47,4.76,11.24z"/>
</g>
</svg>
