<?xml version="1.0" encoding="utf-8"?>
<!DOCTYPE svg PUBLIC "-//W3C//DTD SVG 1.1 Basic//EN" "http://www.w3.org/Graphics/SVG/1.1/DTD/svg11-basic.dtd">
<svg version="1.1" baseProfile="basic" id="Layer_3"
	 xmlns="http://www.w3.org/2000/svg" xmlns:xlink="http://www.w3.org/1999/xlink" x="0px" y="0px" width="16px" height="16px"
	 viewBox="0 0 16 16" xml:space="preserve">
<g>
	<path fill="#5C5E5F" d="M14.46,8c0-1,0.62-1.79,1.54-2.33c-0.17-0.56-0.39-1.09-0.66-1.59c-1.04,0.27-1.88-0.14-2.58-0.84
		c-0.71-0.7-0.92-1.55-0.65-2.58c-0.5-0.27-1.04-0.49-1.59-0.66C9.97,0.92,9,1.54,8,1.54S6.02,0.92,5.48,0
		C4.93,0.17,4.39,0.39,3.89,0.66C4.16,1.7,3.95,2.54,3.24,3.24C2.54,3.95,1.7,4.35,0.66,4.08C0.39,4.58,0.17,5.12,0,5.67
		C0.92,6.21,1.54,7,1.54,8c0,1-0.61,1.98-1.54,2.52c0.17,0.56,0.39,1.09,0.66,1.59c1.04-0.27,1.88-0.06,2.58,0.65
		c0.71,0.71,0.92,1.54,0.65,2.58c0.5,0.27,1.04,0.49,1.59,0.66C6.02,15.08,7,14.46,8,14.46s1.97,0.62,2.52,1.54
		c0.56-0.17,1.09-0.39,1.59-0.66c-0.27-1.04-0.06-1.88,0.65-2.58c0.71-0.71,1.54-1.11,2.58-0.84c0.27-0.5,0.49-1.04,0.66-1.59
		C15.08,9.78,14.46,9,14.46,8z M8,11.48c-1.92,0-3.48-1.56-3.48-3.48S6.08,4.52,8,4.52c1.92,0,3.48,1.56,3.48,3.48
		S9.92,11.48,8,11.48z"/>
</g>
<g>
</g>
<g>
</g>
<g>
</g>
<g>
</g>
<g>
</g>
</svg>
