<?xml version="1.0" encoding="utf-8"?>
<!DOCTYPE svg PUBLIC "-//W3C//DTD SVG 1.1 Basic//EN" "http://www.w3.org/Graphics/SVG/1.1/DTD/svg11-basic.dtd">
<svg version="1.1" baseProfile="basic" id="Layer_1"
	 xmlns="http://www.w3.org/2000/svg" xmlns:xlink="http://www.w3.org/1999/xlink" x="0px" y="0px" width="16px" height="16px"
	 viewBox="0 0 16 16" xml:space="preserve">
<polygon fill="#FFFFFF" stroke="#BEBEBF" stroke-miterlimit="10" points="0.5,2 0.5,0.5 15.5,0.5 15.5,15.5 4.5,15.5 4.5,13.5 
	0.5,13.5 "/>
<g>
	<polygon fill="#5C5E5F" points="3,5 0,5 0,2 3,2 3,4 	"/>
	<polygon fill="#5C5E5F" points="5,10 2,10 2,7 3,7 5,7 	"/>
	<rect x="2" y="12" fill="#5C5E5F" width="3" height="3"/>
	<g>
		<rect y="5" fill="#848687" width="1" height="9"/>
		<rect y="8" fill="#848687" width="2" height="1"/>
		<rect y="13" fill="#848687" width="2" height="1"/>
	</g>
</g>
<g>
	<rect x="6" y="2" fill="#848687" width="8" height="2"/>
	<rect x="6" y="4" fill="#EAEAEA" width="8" height="2"/>
	<rect x="6" y="6" fill="#848687" width="8" height="2"/>
	<rect x="6" y="8" fill="#EAEAEA" width="8" height="2"/>
	<rect x="6" y="10" fill="#848687" width="8" height="2"/>
	<rect x="6" y="12" fill="#EAEAEA" width="8" height="2"/>
</g>
</svg>
