<?xml version="1.0" encoding="UTF-8" standalone="no"?>
<!-- Created with Inkscape (http://www.inkscape.org/) -->

<svg
   xmlns:dc="http://purl.org/dc/elements/1.1/"
   xmlns:cc="http://creativecommons.org/ns#"
   xmlns:rdf="http://www.w3.org/1999/02/22-rdf-syntax-ns#"
   xmlns:svg="http://www.w3.org/2000/svg"
   xmlns="http://www.w3.org/2000/svg"
   version="1.1"
   width="100%"
   height="100%"
   viewBox="0 0 200 200"
   id="Artwork"
   xml:space="preserve"><metadata
     id="metadata3853"><rdf:RDF><cc:Work
         rdf:about=""><dc:format>image/svg+xml</dc:format><dc:type
           rdf:resource="http://purl.org/dc/dcmitype/StillImage" /><dc:title></dc:title></cc:Work></rdf:RDF></metadata><defs
     id="defs3851" /><path
     d="m 15.746549,110.52288 10.550171,10.83741 c 4.342551,4.46079 11.413115,4.46079 15.81134,0 L 81.385875,80.955882 81.38625,176.0335 c 2.5e-5,6.31944 5.038097,11.4665 11.162207,11.4665 l 14.892723,0 c 6.15195,0 11.16258,-5.08987 11.16258,-11.4665 l 0,-95.020428 39.27782,40.347218 c 4.34255,4.46079 11.41311,4.46079 15.81134,0 l 10.55017,-10.83741 c 4.34255,-4.46079 4.34255,-11.72386 0,-16.241834 L 107.91441,15.874183 C 105.74313,13.643791 102.87593,12.5 100.03657,12.5 c -2.867193,0 -5.706554,1.143791 -7.877829,3.374183 L 15.830059,94.281046 c -4.426061,4.517974 -4.426061,11.781044 -0.08351,16.241834 z"
     id="path3847"
     style="fill:#5c5d5d;fill-opacity:1" /></svg>