<?xml version="1.0" encoding="utf-8"?>
<!DOCTYPE svg PUBLIC "-//W3C//DTD SVG 1.1 Basic//EN" "http://www.w3.org/Graphics/SVG/1.1/DTD/svg11-basic.dtd">
<svg version="1.1" baseProfile="basic" id="Layer_2"
	 xmlns="http://www.w3.org/2000/svg" xmlns:xlink="http://www.w3.org/1999/xlink" x="0px" y="0px" width="16px" height="16px"
	 viewBox="0 0 16 16" xml:space="preserve">
<path fill="#FFFFFF" d="M8.02,9.5H7.99c-3.21,0-5.86,2.43-6.21,5.54c-0.03,0.23,0.35,0.14,0.35,0.14S2.77,15,2.99,15c4.19,0,5,0,5,0
	h0.03c0,0,0.81,0,5,0c0.22,0,0.86,0.19,0.86,0.19s0.38,0.09,0.35-0.14C13.88,11.93,11.23,9.5,8.02,9.5z"/>
<circle fill="#FFFFFF" stroke="#5B5C5C" stroke-width="1.5" stroke-miterlimit="10" cx="7.99" cy="4" r="3"/>
<line fill="none" stroke="#5B5C5C" stroke-miterlimit="10" x1="6.49" y1="9.25" x2="6.49" y2="15.25"/>
<line fill="none" stroke="#5B5C5C" stroke-miterlimit="10" x1="9.49" y1="9.25" x2="9.49" y2="15.25"/>
<path fill="#5B5C5C" d="M8.02,8H7.98c-4.03,0-7.35,3.09-7.72,7.03C0.24,15.27,0.68,16,0.98,16c0.59,0,2,0,2,0h5h0.04h5
	c0,0,1.41,0,2,0c0.3,0,0.74-0.73,0.72-0.97C15.37,11.09,12.05,8,8.02,8z M13.88,15.19c0,0-0.64-0.19-0.86-0.19c-4.19,0-5,0-5,0H7.99
	c0,0-0.81,0-5,0c-0.22,0-0.86,0.19-0.86,0.19s-0.38,0.09-0.35-0.14c0.35-3.12,3-5.54,6.21-5.54h0.03c3.21,0,5.86,2.43,6.21,5.54
	C14.26,15.28,13.88,15.19,13.88,15.19z"/>
</svg>
