<?xml version="1.0" encoding="utf-8"?>
<!DOCTYPE svg PUBLIC "-//W3C//DTD SVG 1.1//EN" "http://www.w3.org/Graphics/SVG/1.1/DTD/svg11.dtd">
<svg version="1.1" id="Layer_1" xmlns="http://www.w3.org/2000/svg" xmlns:xlink="http://www.w3.org/1999/xlink" x="0px" y="0px"
	 width="24px" height="16px" viewBox="0 0 24 16" enable-background="new 0 0 24 16" xml:space="preserve">
<g>
	<path opacity="0.3" fill="#5C5D5D" d="M22.88,4H21v9c0,0.55-0.5,1-1.12,1H6v1c0,0.55,0.5,1,1.12,1h15.75C23.5,16,24,15.55,24,15V5
		C24,4.45,23.5,4,22.88,4z"/>
	<path opacity="0.5" fill="#5C5D5D" d="M21,13V4H7.12C6.5,4,6,4.45,6,5v9h13.88C20.5,14,21,13.55,21,13z"/>
	<path opacity="0.5" fill="#5C5D5D" d="M7.12,4H21V3c0-0.55-0.5-1-1.12-1H4.12C3.5,2,3,2.45,3,3v10c0,0.55,0.5,1,1.12,1H6V5
		C6,4.45,6.5,4,7.12,4z"/>
	<g>
		<path fill="#2A7EBA" d="M18,11c0,0.55-0.5,1-1.12,1H1.12C0.5,12,0,11.55,0,11V1c0-0.55,0.5-1,1.12-1h15.75C17.5,0,18,0.45,18,1V11
			z"/>
		<rect x="1.5" y="2.5" fill="#FFFFFF" width="15" height="8"/>
	</g>
</g>
</svg>
