<?xml version="1.0" encoding="utf-8"?>
<!-- Generator: Adobe Illustrator 17.1.0, SVG Export Plug-In . SVG Version: 6.00 Build 0)  -->
<!DOCTYPE svg PUBLIC "-//W3C//DTD SVG 1.1//EN" "http://www.w3.org/Graphics/SVG/1.1/DTD/svg11.dtd">
<svg version="1.1" id="Layer_1" xmlns="http://www.w3.org/2000/svg" xmlns:xlink="http://www.w3.org/1999/xlink" x="0px" y="0px"
	 viewBox="0 0 160 160" enable-background="new 0 0 160 160" xml:space="preserve">
<g id="Selcol_Frame">
	<polyline fill="#5C5D5D" points="10,30 10,20 50,20 50,30 20,30 20,40 10,40 10,20 20,20 	"/>
	<polyline fill="#5C5D5D" points="150,30 150,20 110,20 110,30 140,30 140,40 150,40 150,20 140,20 	"/>
	<polyline fill="#5C5D5D" points="140,140 150,140 150,70 140,70 140,130 120,130 20,130 20,70 10,70 10,140 20,140 	"/>
</g>
<g id="Selcol_Checked">
	<path fill="#769F43" d="M59.7,78.2l10.161,17.963c0.63,1.114,2.385,1.084,2.956-0.056c4.907-9.792,22.637-42.22,48.438-55.9
		c1.163-0.617,2.61,0.231,2.48,1.453c-0.968,9.124-2.977,17.408,1.158,27.193c0.332,0.786-0.147,1.644-1.014,1.931
		c-14.041,4.651-39.666,32.83-49.701,48.473c-0.58,0.904-1.953,1.001-2.689,0.197c-11.825-12.921-25.251-22.972-35.534-27.269
		c-1.2-0.501-1.289-2.018-0.16-2.642l21.588-11.938C58.199,77.153,59.263,77.427,59.7,78.2z"/>
</g>
</svg>
