<?xml version="1.0" encoding="utf-8"?>
<!-- Generator: Adobe Illustrator 17.1.0, SVG Export Plug-In . SVG Version: 6.00 Build 0)  -->
<!DOCTYPE svg PUBLIC "-//W3C//DTD SVG 1.1//EN" "http://www.w3.org/Graphics/SVG/1.1/DTD/svg11.dtd">
<svg version="1.1" id="Layer_1" xmlns="http://www.w3.org/2000/svg" xmlns:xlink="http://www.w3.org/1999/xlink" x="0px" y="0px"
	 viewBox="0 0 160 160" enable-background="new 0 0 160 160" xml:space="preserve">
<g id="Selset_Frame">
	<polyline fill="#5C5D5D" points="0,10 0,0 30,0 30,10 10,10 10,30 0,30 0,0 10,0 	"/>
	<polyline fill="#5C5D5D" points="10,160 0,160 0,130 10,130 10,150 30,150 30,160 0,160 0,150 	"/>
	<polyline fill="#5C5D5D" points="160,10 160,0 130,0 130,10 150,10 150,30 160,30 160,0 150,0 	"/>
	<polyline fill="#5C5D5D" points="150,160 160,160 160,130 150,130 150,150 130,150 130,160 160,160 160,150 	"/>
</g>
<g id="Selset_Minus">
	<rect x="20" y="70" fill="#5C5D5D" width="120" height="20"/>
</g>
</svg>
