<?xml version="1.0" encoding="utf-8"?>
<!DOCTYPE svg PUBLIC "-//W3C//DTD SVG 1.1 Basic//EN" "http://www.w3.org/Graphics/SVG/1.1/DTD/svg11-basic.dtd">
<svg version="1.1" baseProfile="basic" id="Layer_1"
	 xmlns="http://www.w3.org/2000/svg" xmlns:xlink="http://www.w3.org/1999/xlink" x="0px" y="0px" width="160px" height="270px"
	 viewBox="0 0 160 270" xml:space="preserve">
<g>
	<g>
		
			<radialGradient id="SVGID_1_" cx="78.5005" cy="190.7139" r="22.6596" gradientTransform="matrix(-1 0 0 1 159 0)" gradientUnits="userSpaceOnUse">
			<stop  offset="0.65" style="stop-color:#808080;stop-opacity:0"/>
			<stop  offset="0.6925" style="stop-color:#7D7D7D;stop-opacity:0.0708"/>
			<stop  offset="0.718" style="stop-color:#757575;stop-opacity:0.1133"/>
			<stop  offset="0.739" style="stop-color:#666666;stop-opacity:0.1484"/>
			<stop  offset="0.7577" style="stop-color:#525252;stop-opacity:0.1794"/>
			<stop  offset="0.7747" style="stop-color:#383838;stop-opacity:0.2078"/>
			<stop  offset="0.7903" style="stop-color:#181818;stop-opacity:0.2338"/>
			<stop  offset="0.8" style="stop-color:#000000;stop-opacity:0.25"/>
			<stop  offset="0.85" style="stop-color:#000000;stop-opacity:0.25"/>
			<stop  offset="1" style="stop-color:#4D4D4D;stop-opacity:0.02"/>
		</radialGradient>
		<path fill="none" stroke="url(#SVGID_1_)" stroke-width="8" stroke-miterlimit="10" d="M80.5,172.14
			c10.36,0,18.75,8.3,18.75,18.57c0,10.26-8.39,18.57-18.75,18.57c-10.36,0-18.75-8.31-18.75-18.57
			C61.75,180.45,70.14,172.14,80.5,172.14z"/>
		
			<radialGradient id="SVGID_2_" cx="22.25" cy="135" r="22.6608" gradientTransform="matrix(-1 0 0 1 159 0)" gradientUnits="userSpaceOnUse">
			<stop  offset="0.65" style="stop-color:#808080;stop-opacity:0"/>
			<stop  offset="0.6925" style="stop-color:#7D7D7D;stop-opacity:0.0708"/>
			<stop  offset="0.718" style="stop-color:#757575;stop-opacity:0.1133"/>
			<stop  offset="0.739" style="stop-color:#666666;stop-opacity:0.1484"/>
			<stop  offset="0.7577" style="stop-color:#525252;stop-opacity:0.1794"/>
			<stop  offset="0.7747" style="stop-color:#383838;stop-opacity:0.2078"/>
			<stop  offset="0.7903" style="stop-color:#181818;stop-opacity:0.2338"/>
			<stop  offset="0.8" style="stop-color:#000000;stop-opacity:0.25"/>
			<stop  offset="0.85" style="stop-color:#000000;stop-opacity:0.25"/>
			<stop  offset="1" style="stop-color:#4D4D4D;stop-opacity:0.02"/>
		</radialGradient>
		<path fill="none" stroke="url(#SVGID_2_)" stroke-width="8" stroke-miterlimit="10" d="M136.75,116.43
			c10.36,0,18.75,8.31,18.75,18.57c0,10.27-8.39,18.57-18.75,18.57c-10.36,0-18.75-8.31-18.75-18.57
			C118,124.74,126.39,116.43,136.75,116.43z"/>
		
			<radialGradient id="SVGID_3_" cx="78.5005" cy="135" r="22.6606" gradientTransform="matrix(-1 0 0 1 159 0)" gradientUnits="userSpaceOnUse">
			<stop  offset="0.65" style="stop-color:#808080;stop-opacity:0"/>
			<stop  offset="0.6925" style="stop-color:#7D7D7D;stop-opacity:0.0708"/>
			<stop  offset="0.718" style="stop-color:#757575;stop-opacity:0.1133"/>
			<stop  offset="0.739" style="stop-color:#666666;stop-opacity:0.1484"/>
			<stop  offset="0.7577" style="stop-color:#525252;stop-opacity:0.1794"/>
			<stop  offset="0.7747" style="stop-color:#383838;stop-opacity:0.2078"/>
			<stop  offset="0.7903" style="stop-color:#181818;stop-opacity:0.2338"/>
			<stop  offset="0.8" style="stop-color:#000000;stop-opacity:0.25"/>
			<stop  offset="0.85" style="stop-color:#000000;stop-opacity:0.25"/>
			<stop  offset="1" style="stop-color:#4D4D4D;stop-opacity:0.02"/>
		</radialGradient>
		<path fill="none" stroke="url(#SVGID_3_)" stroke-width="8" stroke-miterlimit="10" d="M80.5,116.43
			c10.36,0,18.75,8.31,18.75,18.57c0,10.27-8.39,18.57-18.75,18.57c-10.36,0-18.75-8.31-18.75-18.57
			C61.75,124.74,70.14,116.43,80.5,116.43z"/>
		
			<radialGradient id="SVGID_4_" cx="134.75" cy="23.5713" r="22.6608" gradientTransform="matrix(-1 0 0 1 159 0)" gradientUnits="userSpaceOnUse">
			<stop  offset="0.65" style="stop-color:#808080;stop-opacity:0"/>
			<stop  offset="0.6925" style="stop-color:#7D7D7D;stop-opacity:0.0708"/>
			<stop  offset="0.718" style="stop-color:#757575;stop-opacity:0.1133"/>
			<stop  offset="0.739" style="stop-color:#666666;stop-opacity:0.1484"/>
			<stop  offset="0.7577" style="stop-color:#525252;stop-opacity:0.1794"/>
			<stop  offset="0.7747" style="stop-color:#383838;stop-opacity:0.2078"/>
			<stop  offset="0.7903" style="stop-color:#181818;stop-opacity:0.2338"/>
			<stop  offset="0.8" style="stop-color:#000000;stop-opacity:0.25"/>
			<stop  offset="0.85" style="stop-color:#000000;stop-opacity:0.25"/>
			<stop  offset="1" style="stop-color:#4D4D4D;stop-opacity:0.02"/>
		</radialGradient>
		<path fill="none" stroke="url(#SVGID_4_)" stroke-width="8" stroke-miterlimit="10" d="M24.25,42.14
			c-10.36,0-18.75-8.31-18.75-18.57C5.5,13.31,13.89,5,24.25,5C34.62,5,43,13.31,43,23.57C43,33.84,34.62,42.14,24.25,42.14z"/>
		
			<radialGradient id="SVGID_5_" cx="134.75" cy="135" r="22.6608" gradientTransform="matrix(-1 0 0 1 159 0)" gradientUnits="userSpaceOnUse">
			<stop  offset="0.65" style="stop-color:#808080;stop-opacity:0"/>
			<stop  offset="0.6925" style="stop-color:#7D7D7D;stop-opacity:0.0708"/>
			<stop  offset="0.718" style="stop-color:#757575;stop-opacity:0.1133"/>
			<stop  offset="0.739" style="stop-color:#666666;stop-opacity:0.1484"/>
			<stop  offset="0.7577" style="stop-color:#525252;stop-opacity:0.1794"/>
			<stop  offset="0.7747" style="stop-color:#383838;stop-opacity:0.2078"/>
			<stop  offset="0.7903" style="stop-color:#181818;stop-opacity:0.2338"/>
			<stop  offset="0.8" style="stop-color:#000000;stop-opacity:0.25"/>
			<stop  offset="0.85" style="stop-color:#000000;stop-opacity:0.25"/>
			<stop  offset="1" style="stop-color:#4D4D4D;stop-opacity:0.02"/>
		</radialGradient>
		<path fill="none" stroke="url(#SVGID_5_)" stroke-width="8" stroke-miterlimit="10" d="M24.25,116.43
			C34.62,116.43,43,124.74,43,135c0,10.27-8.38,18.57-18.75,18.57c-10.36,0-18.75-8.31-18.75-18.57
			C5.5,124.74,13.89,116.43,24.25,116.43z"/>
		
			<radialGradient id="SVGID_6_" cx="134.75" cy="190.7139" r="22.6598" gradientTransform="matrix(-1 0 0 1 159 0)" gradientUnits="userSpaceOnUse">
			<stop  offset="0.65" style="stop-color:#808080;stop-opacity:0"/>
			<stop  offset="0.6925" style="stop-color:#7D7D7D;stop-opacity:0.0708"/>
			<stop  offset="0.718" style="stop-color:#757575;stop-opacity:0.1133"/>
			<stop  offset="0.739" style="stop-color:#666666;stop-opacity:0.1484"/>
			<stop  offset="0.7577" style="stop-color:#525252;stop-opacity:0.1794"/>
			<stop  offset="0.7747" style="stop-color:#383838;stop-opacity:0.2078"/>
			<stop  offset="0.7903" style="stop-color:#181818;stop-opacity:0.2338"/>
			<stop  offset="0.8" style="stop-color:#000000;stop-opacity:0.25"/>
			<stop  offset="0.85" style="stop-color:#000000;stop-opacity:0.25"/>
			<stop  offset="1" style="stop-color:#4D4D4D;stop-opacity:0.02"/>
		</radialGradient>
		<path fill="none" stroke="url(#SVGID_6_)" stroke-width="8" stroke-miterlimit="10" d="M24.25,172.14
			c10.37,0,18.75,8.3,18.75,18.57c0,10.26-8.38,18.57-18.75,18.57c-10.36,0-18.75-8.31-18.75-18.57
			C5.5,180.45,13.89,172.14,24.25,172.14z"/>
		
			<radialGradient id="SVGID_7_" cx="134.75" cy="79.2866" r="22.6608" gradientTransform="matrix(-1 0 0 1 159 0)" gradientUnits="userSpaceOnUse">
			<stop  offset="0.65" style="stop-color:#808080;stop-opacity:0"/>
			<stop  offset="0.6925" style="stop-color:#7D7D7D;stop-opacity:0.0708"/>
			<stop  offset="0.718" style="stop-color:#757575;stop-opacity:0.1133"/>
			<stop  offset="0.739" style="stop-color:#666666;stop-opacity:0.1484"/>
			<stop  offset="0.7577" style="stop-color:#525252;stop-opacity:0.1794"/>
			<stop  offset="0.7747" style="stop-color:#383838;stop-opacity:0.2078"/>
			<stop  offset="0.7903" style="stop-color:#181818;stop-opacity:0.2338"/>
			<stop  offset="0.8" style="stop-color:#000000;stop-opacity:0.25"/>
			<stop  offset="0.85" style="stop-color:#000000;stop-opacity:0.25"/>
			<stop  offset="1" style="stop-color:#4D4D4D;stop-opacity:0.02"/>
		</radialGradient>
		<path fill="none" stroke="url(#SVGID_7_)" stroke-width="8" stroke-miterlimit="10" d="M24.25,60.72
			C34.62,60.72,43,69.02,43,79.29c0,10.27-8.38,18.57-18.75,18.57c-10.36,0-18.75-8.31-18.75-18.57
			C5.5,69.02,13.89,60.72,24.25,60.72z"/>
		
			<radialGradient id="SVGID_8_" cx="134.75" cy="246.4297" r="22.6603" gradientTransform="matrix(-1 0 0 1 159 0)" gradientUnits="userSpaceOnUse">
			<stop  offset="0.65" style="stop-color:#808080;stop-opacity:0"/>
			<stop  offset="0.6925" style="stop-color:#7D7D7D;stop-opacity:0.0708"/>
			<stop  offset="0.718" style="stop-color:#757575;stop-opacity:0.1133"/>
			<stop  offset="0.739" style="stop-color:#666666;stop-opacity:0.1484"/>
			<stop  offset="0.7577" style="stop-color:#525252;stop-opacity:0.1794"/>
			<stop  offset="0.7747" style="stop-color:#383838;stop-opacity:0.2078"/>
			<stop  offset="0.7903" style="stop-color:#181818;stop-opacity:0.2338"/>
			<stop  offset="0.8" style="stop-color:#000000;stop-opacity:0.25"/>
			<stop  offset="0.85" style="stop-color:#000000;stop-opacity:0.25"/>
			<stop  offset="1" style="stop-color:#4D4D4D;stop-opacity:0.02"/>
		</radialGradient>
		<path fill="none" stroke="url(#SVGID_8_)" stroke-width="8" stroke-miterlimit="10" d="M24.25,227.86
			c10.37,0,18.75,8.31,18.75,18.57C43,256.7,34.62,265,24.25,265c-10.36,0-18.75-8.3-18.75-18.57
			C5.5,236.17,13.89,227.86,24.25,227.86z"/>
		
			<radialGradient id="SVGID_9_" cx="78.5005" cy="79.2866" r="22.6606" gradientTransform="matrix(-1 0 0 1 159 0)" gradientUnits="userSpaceOnUse">
			<stop  offset="0.65" style="stop-color:#808080;stop-opacity:0"/>
			<stop  offset="0.6925" style="stop-color:#7D7D7D;stop-opacity:0.0708"/>
			<stop  offset="0.718" style="stop-color:#757575;stop-opacity:0.1133"/>
			<stop  offset="0.739" style="stop-color:#666666;stop-opacity:0.1484"/>
			<stop  offset="0.7577" style="stop-color:#525252;stop-opacity:0.1794"/>
			<stop  offset="0.7747" style="stop-color:#383838;stop-opacity:0.2078"/>
			<stop  offset="0.7903" style="stop-color:#181818;stop-opacity:0.2338"/>
			<stop  offset="0.8" style="stop-color:#000000;stop-opacity:0.25"/>
			<stop  offset="0.85" style="stop-color:#000000;stop-opacity:0.25"/>
			<stop  offset="1" style="stop-color:#4D4D4D;stop-opacity:0.02"/>
		</radialGradient>
		<path fill="none" stroke="url(#SVGID_9_)" stroke-width="8" stroke-miterlimit="10" d="M80.5,60.72
			c10.36,0,18.75,8.31,18.75,18.57c0,10.27-8.39,18.57-18.75,18.57c-10.36,0-18.75-8.31-18.75-18.57
			C61.75,69.02,70.14,60.72,80.5,60.72z"/>
	</g>
</g>
<g opacity="0.8">
	<path fill="none" stroke="#88B7E2" stroke-width="2" stroke-miterlimit="10" d="M79.5,171.14c10.36,0,18.75,8.3,18.75,18.57
		c0,10.26-8.39,18.57-18.75,18.57c-10.36,0-18.75-8.3-18.75-18.57C60.75,179.45,69.14,171.14,79.5,171.14z M117,134
		c0,10.27,8.39,18.57,18.75,18.57c10.36,0,18.75-8.31,18.75-18.57c0-10.26-8.39-18.57-18.75-18.57C125.39,115.43,117,123.74,117,134
		z M60.75,134c0,10.27,8.39,18.57,18.75,18.57c10.36,0,18.75-8.31,18.75-18.57c0-10.26-8.39-18.57-18.75-18.57
		C69.14,115.43,60.75,123.74,60.75,134z M4.5,134c0,10.27,8.39,18.57,18.75,18.57C33.62,152.57,42,144.27,42,134
		c0-10.26-8.38-18.57-18.75-18.57C12.89,115.43,4.5,123.74,4.5,134z M4.5,78.29c0,10.27,8.39,18.57,18.75,18.57
		C33.62,96.86,42,88.55,42,78.29c0-10.26-8.38-18.57-18.75-18.57C12.89,59.72,4.5,68.02,4.5,78.29z M4.5,22.57
		c0,10.26,8.39,18.57,18.75,18.57C33.62,41.14,42,32.84,42,22.57C42,12.31,33.62,4,23.25,4C12.89,4,4.5,12.31,4.5,22.57z
		 M60.75,78.29c0,10.27,8.39,18.57,18.75,18.57c10.36,0,18.75-8.31,18.75-18.57c0-10.26-8.39-18.57-18.75-18.57
		C69.14,59.72,60.75,68.02,60.75,78.29z M4.5,245.43C4.5,255.7,12.89,264,23.25,264C33.62,264,42,255.7,42,245.43
		c0-10.26-8.38-18.57-18.75-18.57C12.89,226.86,4.5,235.17,4.5,245.43z M4.5,189.72c0,10.26,8.39,18.57,18.75,18.57
		c10.37,0,18.75-8.3,18.75-18.57c0-10.27-8.38-18.57-18.75-18.57C12.89,171.14,4.5,179.45,4.5,189.72z"/>
</g>
<g>
</g>
<g>
</g>
<g>
</g>
<g>
</g>
<g>
</g>
</svg>
