<?xml version="1.0" encoding="utf-8"?>
<!DOCTYPE svg PUBLIC "-//W3C//DTD SVG 1.1 Basic//EN" "http://www.w3.org/Graphics/SVG/1.1/DTD/svg11-basic.dtd">
<svg version="1.1" baseProfile="basic" id="Layer_1"
	 xmlns="http://www.w3.org/2000/svg" xmlns:xlink="http://www.w3.org/1999/xlink" x="0px" y="0px" width="160px" height="270px"
	 viewBox="0 0 160 270" xml:space="preserve">
<g>
	<g>
		<radialGradient id="SVGID_1_" cx="80.0005" cy="190.7139" r="22.6596" gradientUnits="userSpaceOnUse">
			<stop  offset="0.65" style="stop-color:#808080;stop-opacity:0"/>
			<stop  offset="0.6925" style="stop-color:#7D7D7D;stop-opacity:0.0708"/>
			<stop  offset="0.718" style="stop-color:#757575;stop-opacity:0.1133"/>
			<stop  offset="0.739" style="stop-color:#666666;stop-opacity:0.1484"/>
			<stop  offset="0.7577" style="stop-color:#525252;stop-opacity:0.1794"/>
			<stop  offset="0.7747" style="stop-color:#383838;stop-opacity:0.2078"/>
			<stop  offset="0.7903" style="stop-color:#181818;stop-opacity:0.2338"/>
			<stop  offset="0.8" style="stop-color:#000000;stop-opacity:0.25"/>
			<stop  offset="0.85" style="stop-color:#000000;stop-opacity:0.25"/>
			<stop  offset="1" style="stop-color:#4D4D4D;stop-opacity:0.02"/>
		</radialGradient>
		<path fill="none" stroke="url(#SVGID_1_)" stroke-width="8" stroke-miterlimit="10" d="M80,172.14c-10.36,0-18.75,8.3-18.75,18.57
			c0,10.26,8.39,18.57,18.75,18.57c10.36,0,18.75-8.31,18.75-18.57C98.75,180.45,90.36,172.14,80,172.14z"/>
		<radialGradient id="SVGID_2_" cx="23.75" cy="135" r="22.6608" gradientUnits="userSpaceOnUse">
			<stop  offset="0.65" style="stop-color:#808080;stop-opacity:0"/>
			<stop  offset="0.6925" style="stop-color:#7D7D7D;stop-opacity:0.0708"/>
			<stop  offset="0.718" style="stop-color:#757575;stop-opacity:0.1133"/>
			<stop  offset="0.739" style="stop-color:#666666;stop-opacity:0.1484"/>
			<stop  offset="0.7577" style="stop-color:#525252;stop-opacity:0.1794"/>
			<stop  offset="0.7747" style="stop-color:#383838;stop-opacity:0.2078"/>
			<stop  offset="0.7903" style="stop-color:#181818;stop-opacity:0.2338"/>
			<stop  offset="0.8" style="stop-color:#000000;stop-opacity:0.25"/>
			<stop  offset="0.85" style="stop-color:#000000;stop-opacity:0.25"/>
			<stop  offset="1" style="stop-color:#4D4D4D;stop-opacity:0.02"/>
		</radialGradient>
		<path fill="none" stroke="url(#SVGID_2_)" stroke-width="8" stroke-miterlimit="10" d="M23.75,116.43C13.39,116.43,5,124.74,5,135
			c0,10.27,8.39,18.57,18.75,18.57c10.36,0,18.75-8.31,18.75-18.57C42.5,124.74,34.11,116.43,23.75,116.43z"/>
		<radialGradient id="SVGID_3_" cx="80.0005" cy="135" r="22.6606" gradientUnits="userSpaceOnUse">
			<stop  offset="0.65" style="stop-color:#808080;stop-opacity:0"/>
			<stop  offset="0.6925" style="stop-color:#7D7D7D;stop-opacity:0.0708"/>
			<stop  offset="0.718" style="stop-color:#757575;stop-opacity:0.1133"/>
			<stop  offset="0.739" style="stop-color:#666666;stop-opacity:0.1484"/>
			<stop  offset="0.7577" style="stop-color:#525252;stop-opacity:0.1794"/>
			<stop  offset="0.7747" style="stop-color:#383838;stop-opacity:0.2078"/>
			<stop  offset="0.7903" style="stop-color:#181818;stop-opacity:0.2338"/>
			<stop  offset="0.8" style="stop-color:#000000;stop-opacity:0.25"/>
			<stop  offset="0.85" style="stop-color:#000000;stop-opacity:0.25"/>
			<stop  offset="1" style="stop-color:#4D4D4D;stop-opacity:0.02"/>
		</radialGradient>
		<path fill="none" stroke="url(#SVGID_3_)" stroke-width="8" stroke-miterlimit="10" d="M80,116.43
			c-10.36,0-18.75,8.31-18.75,18.57c0,10.27,8.39,18.57,18.75,18.57c10.36,0,18.75-8.31,18.75-18.57
			C98.75,124.74,90.36,116.43,80,116.43z"/>
		<radialGradient id="SVGID_4_" cx="136.25" cy="23.5713" r="22.6608" gradientUnits="userSpaceOnUse">
			<stop  offset="0.65" style="stop-color:#808080;stop-opacity:0"/>
			<stop  offset="0.6925" style="stop-color:#7D7D7D;stop-opacity:0.0708"/>
			<stop  offset="0.718" style="stop-color:#757575;stop-opacity:0.1133"/>
			<stop  offset="0.739" style="stop-color:#666666;stop-opacity:0.1484"/>
			<stop  offset="0.7577" style="stop-color:#525252;stop-opacity:0.1794"/>
			<stop  offset="0.7747" style="stop-color:#383838;stop-opacity:0.2078"/>
			<stop  offset="0.7903" style="stop-color:#181818;stop-opacity:0.2338"/>
			<stop  offset="0.8" style="stop-color:#000000;stop-opacity:0.25"/>
			<stop  offset="0.85" style="stop-color:#000000;stop-opacity:0.25"/>
			<stop  offset="1" style="stop-color:#4D4D4D;stop-opacity:0.02"/>
		</radialGradient>
		<path fill="none" stroke="url(#SVGID_4_)" stroke-width="8" stroke-miterlimit="10" d="M136.25,42.14
			c10.36,0,18.75-8.31,18.75-18.57C155,13.31,146.61,5,136.25,5c-10.37,0-18.75,8.31-18.75,18.57
			C117.5,33.84,125.88,42.14,136.25,42.14z"/>
		<radialGradient id="SVGID_5_" cx="136.25" cy="135" r="22.6608" gradientUnits="userSpaceOnUse">
			<stop  offset="0.65" style="stop-color:#808080;stop-opacity:0"/>
			<stop  offset="0.6925" style="stop-color:#7D7D7D;stop-opacity:0.0708"/>
			<stop  offset="0.718" style="stop-color:#757575;stop-opacity:0.1133"/>
			<stop  offset="0.739" style="stop-color:#666666;stop-opacity:0.1484"/>
			<stop  offset="0.7577" style="stop-color:#525252;stop-opacity:0.1794"/>
			<stop  offset="0.7747" style="stop-color:#383838;stop-opacity:0.2078"/>
			<stop  offset="0.7903" style="stop-color:#181818;stop-opacity:0.2338"/>
			<stop  offset="0.8" style="stop-color:#000000;stop-opacity:0.25"/>
			<stop  offset="0.85" style="stop-color:#000000;stop-opacity:0.25"/>
			<stop  offset="1" style="stop-color:#4D4D4D;stop-opacity:0.02"/>
		</radialGradient>
		<path fill="none" stroke="url(#SVGID_5_)" stroke-width="8" stroke-miterlimit="10" d="M136.25,116.43
			c-10.37,0-18.75,8.31-18.75,18.57c0,10.27,8.38,18.57,18.75,18.57c10.36,0,18.75-8.31,18.75-18.57
			C155,124.74,146.61,116.43,136.25,116.43z"/>
		<radialGradient id="SVGID_6_" cx="136.25" cy="190.7139" r="22.6598" gradientUnits="userSpaceOnUse">
			<stop  offset="0.65" style="stop-color:#808080;stop-opacity:0"/>
			<stop  offset="0.6925" style="stop-color:#7D7D7D;stop-opacity:0.0708"/>
			<stop  offset="0.718" style="stop-color:#757575;stop-opacity:0.1133"/>
			<stop  offset="0.739" style="stop-color:#666666;stop-opacity:0.1484"/>
			<stop  offset="0.7577" style="stop-color:#525252;stop-opacity:0.1794"/>
			<stop  offset="0.7747" style="stop-color:#383838;stop-opacity:0.2078"/>
			<stop  offset="0.7903" style="stop-color:#181818;stop-opacity:0.2338"/>
			<stop  offset="0.8" style="stop-color:#000000;stop-opacity:0.25"/>
			<stop  offset="0.85" style="stop-color:#000000;stop-opacity:0.25"/>
			<stop  offset="1" style="stop-color:#4D4D4D;stop-opacity:0.02"/>
		</radialGradient>
		<path fill="none" stroke="url(#SVGID_6_)" stroke-width="8" stroke-miterlimit="10" d="M136.25,172.14
			c-10.37,0-18.75,8.3-18.75,18.57c0,10.26,8.38,18.57,18.75,18.57c10.36,0,18.75-8.31,18.75-18.57
			C155,180.45,146.61,172.14,136.25,172.14z"/>
		<radialGradient id="SVGID_7_" cx="136.25" cy="79.2866" r="22.6608" gradientUnits="userSpaceOnUse">
			<stop  offset="0.65" style="stop-color:#808080;stop-opacity:0"/>
			<stop  offset="0.6925" style="stop-color:#7D7D7D;stop-opacity:0.0708"/>
			<stop  offset="0.718" style="stop-color:#757575;stop-opacity:0.1133"/>
			<stop  offset="0.739" style="stop-color:#666666;stop-opacity:0.1484"/>
			<stop  offset="0.7577" style="stop-color:#525252;stop-opacity:0.1794"/>
			<stop  offset="0.7747" style="stop-color:#383838;stop-opacity:0.2078"/>
			<stop  offset="0.7903" style="stop-color:#181818;stop-opacity:0.2338"/>
			<stop  offset="0.8" style="stop-color:#000000;stop-opacity:0.25"/>
			<stop  offset="0.85" style="stop-color:#000000;stop-opacity:0.25"/>
			<stop  offset="1" style="stop-color:#4D4D4D;stop-opacity:0.02"/>
		</radialGradient>
		<path fill="none" stroke="url(#SVGID_7_)" stroke-width="8" stroke-miterlimit="10" d="M136.25,60.72
			c-10.37,0-18.75,8.31-18.75,18.57c0,10.27,8.38,18.57,18.75,18.57c10.36,0,18.75-8.31,18.75-18.57
			C155,69.02,146.61,60.72,136.25,60.72z"/>
		<radialGradient id="SVGID_8_" cx="136.25" cy="246.4297" r="22.6603" gradientUnits="userSpaceOnUse">
			<stop  offset="0.65" style="stop-color:#808080;stop-opacity:0"/>
			<stop  offset="0.6925" style="stop-color:#7D7D7D;stop-opacity:0.0708"/>
			<stop  offset="0.718" style="stop-color:#757575;stop-opacity:0.1133"/>
			<stop  offset="0.739" style="stop-color:#666666;stop-opacity:0.1484"/>
			<stop  offset="0.7577" style="stop-color:#525252;stop-opacity:0.1794"/>
			<stop  offset="0.7747" style="stop-color:#383838;stop-opacity:0.2078"/>
			<stop  offset="0.7903" style="stop-color:#181818;stop-opacity:0.2338"/>
			<stop  offset="0.8" style="stop-color:#000000;stop-opacity:0.25"/>
			<stop  offset="0.85" style="stop-color:#000000;stop-opacity:0.25"/>
			<stop  offset="1" style="stop-color:#4D4D4D;stop-opacity:0.02"/>
		</radialGradient>
		<path fill="none" stroke="url(#SVGID_8_)" stroke-width="8" stroke-miterlimit="10" d="M136.25,227.86
			c-10.37,0-18.75,8.31-18.75,18.57c0,10.27,8.38,18.57,18.75,18.57c10.36,0,18.75-8.3,18.75-18.57
			C155,236.17,146.61,227.86,136.25,227.86z"/>
		<radialGradient id="SVGID_9_" cx="80.0005" cy="79.2866" r="22.6606" gradientUnits="userSpaceOnUse">
			<stop  offset="0.65" style="stop-color:#808080;stop-opacity:0"/>
			<stop  offset="0.6925" style="stop-color:#7D7D7D;stop-opacity:0.0708"/>
			<stop  offset="0.718" style="stop-color:#757575;stop-opacity:0.1133"/>
			<stop  offset="0.739" style="stop-color:#666666;stop-opacity:0.1484"/>
			<stop  offset="0.7577" style="stop-color:#525252;stop-opacity:0.1794"/>
			<stop  offset="0.7747" style="stop-color:#383838;stop-opacity:0.2078"/>
			<stop  offset="0.7903" style="stop-color:#181818;stop-opacity:0.2338"/>
			<stop  offset="0.8" style="stop-color:#000000;stop-opacity:0.25"/>
			<stop  offset="0.85" style="stop-color:#000000;stop-opacity:0.25"/>
			<stop  offset="1" style="stop-color:#4D4D4D;stop-opacity:0.02"/>
		</radialGradient>
		<path fill="none" stroke="url(#SVGID_9_)" stroke-width="8" stroke-miterlimit="10" d="M80,60.72c-10.36,0-18.75,8.31-18.75,18.57
			c0,10.27,8.39,18.57,18.75,18.57c10.36,0,18.75-8.31,18.75-18.57C98.75,69.02,90.36,60.72,80,60.72z"/>
	</g>
</g>
<g opacity="0.8">
	<path fill="none" stroke="#88B7E2" stroke-width="2" stroke-miterlimit="10" d="M97.75,189.72c0,10.26-8.39,18.57-18.75,18.57
		c-10.36,0-18.75-8.3-18.75-18.57c0-10.27,8.39-18.57,18.75-18.57C89.36,171.14,97.75,179.45,97.75,189.72z M22.75,115.43
		C12.39,115.43,4,123.74,4,134c0,10.27,8.39,18.57,18.75,18.57c10.36,0,18.75-8.31,18.75-18.57
		C41.5,123.74,33.11,115.43,22.75,115.43z M79,115.43c-10.36,0-18.75,8.31-18.75,18.57c0,10.27,8.39,18.57,18.75,18.57
		c10.36,0,18.75-8.31,18.75-18.57C97.75,123.74,89.36,115.43,79,115.43z M135.25,115.43c-10.37,0-18.75,8.31-18.75,18.57
		c0,10.27,8.38,18.57,18.75,18.57c10.36,0,18.75-8.31,18.75-18.57C154,123.74,145.61,115.43,135.25,115.43z M135.25,59.72
		c-10.37,0-18.75,8.31-18.75,18.57c0,10.27,8.38,18.57,18.75,18.57c10.36,0,18.75-8.31,18.75-18.57
		C154,68.02,145.61,59.72,135.25,59.72z M135.25,4c-10.37,0-18.75,8.31-18.75,18.57c0,10.26,8.38,18.57,18.75,18.57
		c10.36,0,18.75-8.31,18.75-18.57C154,12.31,145.61,4,135.25,4z M79,59.72c-10.36,0-18.75,8.31-18.75,18.57
		c0,10.27,8.39,18.57,18.75,18.57c10.36,0,18.75-8.31,18.75-18.57C97.75,68.02,89.36,59.72,79,59.72z M135.25,226.86
		c-10.37,0-18.75,8.31-18.75,18.57c0,10.27,8.38,18.57,18.75,18.57c10.36,0,18.75-8.3,18.75-18.57
		C154,235.17,145.61,226.86,135.25,226.86z M135.25,171.14c-10.37,0-18.75,8.3-18.75,18.57c0,10.26,8.38,18.57,18.75,18.57
		c10.36,0,18.75-8.3,18.75-18.57C154,179.45,145.61,171.14,135.25,171.14z"/>
</g>
<g>
</g>
<g>
</g>
<g>
</g>
<g>
</g>
<g>
</g>
</svg>
