<?xml version="1.0" encoding="utf-8"?>
<!DOCTYPE svg PUBLIC "-//W3C//DTD SVG 1.1 Basic//EN" "http://www.w3.org/Graphics/SVG/1.1/DTD/svg11-basic.dtd">
<svg version="1.1" baseProfile="basic" id="Layer_1"
	 xmlns="http://www.w3.org/2000/svg" xmlns:xlink="http://www.w3.org/1999/xlink" x="0px" y="0px" width="20px" height="37px"
	 viewBox="0 0 20 37" xml:space="preserve">
<g>
	<path opacity="0.2" d="M17.22,9.05c0.2-0.19,0.31-0.45,0.31-0.73V1.7l0.37-0.36C18.14,1.11,18.44,1,18.76,1
		c0.31,0,0.62,0.11,0.86,0.34l0.02,0.02C19.87,1.58,20,1.88,20,2.19v8.17c0,0.31-0.13,0.61-0.36,0.82l-7.24,6.95L10.27,16
		L17.22,9.05z"/>
	<path opacity="0.3" d="M2.35,21.56c-0.47-0.45-0.47-1.2,0-1.65L3.3,19l12.43,12.43c0.2,0.2,0.46,0.31,0.74,0.31
		c0.28,0,0.54-0.11,0.73-0.31l0.02-0.02c0.2-0.19,0.31-0.46,0.31-0.74v-6.15l2.11,2.03c0.23,0.22,0.36,0.51,0.36,0.83v8.17
		c0,0.31-0.13,0.62-0.36,0.83l-0.02,0.02c-0.23,0.22-0.53,0.34-0.86,0.34s-0.63-0.12-0.86-0.34L2.35,21.56z"/>
	<path fill="#7C7C7C" d="M17.22,31.68l-0.02,0.02c-0.19,0.2-0.46,0.31-0.73,0.31c-0.28,0-0.54-0.11-0.74-0.31L1.3,17.27l-0.53-0.53
		c-0.4-0.4-0.4-1.06,0-1.47L15.74,0.3C15.94,0.1,16.2,0,16.47,0C16.74,0,17,0.1,17.2,0.3l0.02,0.02c0.2,0.2,0.31,0.46,0.31,0.74V1.7
		v6.62c0,0.28-0.11,0.54-0.31,0.73L10.27,16l2.13,2.13l4.82,4.82c0.2,0.2,0.31,0.46,0.31,0.74v1.11v6.15
		C17.53,31.22,17.42,31.49,17.22,31.68z"/>
</g>
<g>
</g>
<g>
</g>
<g>
</g>
<g>
</g>
<g>
</g>
</svg>
