<?xml version="1.0" encoding="utf-8"?>
<!DOCTYPE svg PUBLIC "-//W3C//DTD SVG 1.1 Basic//EN" "http://www.w3.org/Graphics/SVG/1.1/DTD/svg11-basic.dtd">
<svg version="1.1" baseProfile="basic" id="Layer_1"
	 xmlns="http://www.w3.org/2000/svg" xmlns:xlink="http://www.w3.org/1999/xlink" x="0px" y="0px" width="20px" height="37px"
	 viewBox="0 0 20 37" xml:space="preserve">
<g>
	<path opacity="0.2" d="M2.78,9.05C2.58,8.86,2.47,8.6,2.47,8.32V1.7L2.1,1.34C1.86,1.11,1.56,1,1.24,1C0.93,1,0.62,1.11,0.38,1.34
		L0.36,1.36C0.13,1.58,0,1.88,0,2.19v8.17c0,0.31,0.13,0.61,0.36,0.82l7.24,6.95L9.73,16L2.78,9.05z"/>
	<path opacity="0.3" d="M17.65,21.56c0.47-0.45,0.47-1.2,0-1.65L16.7,19L4.27,31.43c-0.2,0.2-0.46,0.31-0.74,0.31
		c-0.28,0-0.54-0.11-0.73-0.31l-0.02-0.02c-0.2-0.19-0.31-0.46-0.31-0.74v-6.15l-2.11,2.03C0.13,26.77,0,27.06,0,27.38v8.17
		c0,0.31,0.13,0.62,0.36,0.83l0.02,0.02c0.23,0.22,0.53,0.34,0.86,0.34c0.33,0,0.63-0.12,0.86-0.34L17.65,21.56z"/>
	<path fill="#7C7C7C" d="M2.78,31.68l0.02,0.02C2.99,31.89,3.25,32,3.53,32c0.28,0,0.54-0.11,0.74-0.31L18.7,17.27l0.53-0.53
		c0.4-0.4,0.4-1.06,0-1.47L4.26,0.3C4.06,0.1,3.8,0,3.53,0C3.26,0,3,0.1,2.8,0.3L2.78,0.32c-0.2,0.2-0.31,0.46-0.31,0.74V1.7v6.62
		c0,0.28,0.11,0.54,0.31,0.73L9.73,16L7.6,18.13l-4.82,4.82c-0.2,0.2-0.31,0.46-0.31,0.74v1.11v6.15
		C2.47,31.22,2.58,31.49,2.78,31.68z"/>
</g>
<g>
</g>
<g>
</g>
<g>
</g>
<g>
</g>
<g>
</g>
</svg>
