<?xml version="1.0" encoding="utf-8"?>
<!-- Generator: Adobe Illustrator 17.1.0, SVG Export Plug-In . SVG Version: 6.00 Build 0)  -->
<!DOCTYPE svg PUBLIC "-//W3C//DTD SVG 1.1//EN" "http://www.w3.org/Graphics/SVG/1.1/DTD/svg11.dtd">
<svg version="1.1" id="Layer_1" xmlns="http://www.w3.org/2000/svg" xmlns:xlink="http://www.w3.org/1999/xlink" x="0px" y="0px"
	 viewBox="0 0 360 360" enable-background="new 0 0 360 360" xml:space="preserve">
<g id="Back_Main">
	<path fill="#D1DEEB" stroke="#9CADC6" stroke-miterlimit="10" d="M59.032,346.59c0,6.872-5.57,12.442-12.442,12.442H13.41
		c-6.872,0-12.442-5.57-12.442-12.442v-33.18c0-6.872,5.57-12.442,12.442-12.442h33.18c6.872,0,12.442,5.57,12.442,12.442V346.59z"
		/>
	<path opacity="0.6" fill="#D1DEEB" stroke="#9CADC6" stroke-miterlimit="10" enable-background="new    " d="M119.032,346.59
		c0,6.872-5.57,12.442-12.442,12.442H73.41c-6.872,0-12.442-5.57-12.442-12.442v-33.18c0-6.872,5.57-12.442,12.442-12.442h33.18
		c6.872,0,12.442,5.57,12.442,12.442C119.032,313.41,119.032,346.59,119.032,346.59z"/>
	<path opacity="0.4" fill="#D1DEEB" stroke="#9CADC6" stroke-miterlimit="10" enable-background="new    " d="M179.032,346.59
		c0,6.872-5.57,12.442-12.442,12.442h-33.18c-6.872,0-12.442-5.57-12.442-12.442v-33.18c0-6.872,5.57-12.442,12.442-12.442h33.18
		c6.872,0,12.442,5.57,12.442,12.442V346.59z"/>
	<path opacity="0.6" fill="#D1DEEB" stroke="#9CADC6" stroke-miterlimit="10" enable-background="new    " d="M59.032,286.59
		c0,6.872-5.57,12.442-12.442,12.442H13.41c-6.872,0-12.442-5.57-12.442-12.442v-33.18c0-6.872,5.57-12.442,12.442-12.442h33.18
		c6.872,0,12.442,5.57,12.442,12.442V286.59z"/>
	<path opacity="0.6" fill="#D1DEEB" stroke="#9CADC6" stroke-miterlimit="10" enable-background="new    " d="M119.032,286.59
		c0,6.872-5.57,12.442-12.442,12.442H73.41c-6.872,0-12.442-5.57-12.442-12.442v-33.18c0-6.872,5.57-12.442,12.442-12.442h33.18
		c6.872,0,12.442,5.57,12.442,12.442C119.032,253.41,119.032,286.59,119.032,286.59z"/>
	<path opacity="0.4" fill="#D1DEEB" stroke="#9CADC6" stroke-miterlimit="10" enable-background="new    " d="M359.032,106.59
		c0,6.872-5.57,12.442-12.442,12.442h-33.18c-6.872,0-12.442-5.57-12.442-12.442V73.41c0-6.872,5.57-12.442,12.442-12.442h33.18
		c6.872,0,12.442,5.57,12.442,12.442V106.59z"/>
	<path opacity="0.4" fill="#D1DEEB" stroke="#9CADC6" stroke-miterlimit="10" enable-background="new    " d="M59.032,226.59
		c0,6.872-5.57,12.442-12.442,12.442H13.41c-6.872,0-12.442-5.57-12.442-12.442v-33.18c0-6.872,5.57-12.442,12.442-12.442h33.18
		c6.872,0,12.442,5.57,12.442,12.442V226.59z"/>
	<path opacity="0.4" fill="#D1DEEB" stroke="#9CADC6" stroke-miterlimit="10" enable-background="new    " d="M299.032,46.59
		c0,6.872-5.57,12.442-12.442,12.442h-33.18c-6.872,0-12.442-5.57-12.442-12.442V13.41c0-6.872,5.57-12.442,12.442-12.442h33.18
		c6.872,0,12.442,5.57,12.442,12.442V46.59z"/>
	<path opacity="0.4" fill="#D1DEEB" stroke="#9CADC6" stroke-miterlimit="10" enable-background="new    " d="M359.032,46.59
		c0,6.872-5.57,12.442-12.442,12.442h-33.18c-6.872,0-12.442-5.57-12.442-12.442V13.41c0-6.872,5.57-12.442,12.442-12.442h33.18
		c6.872,0,12.442,5.57,12.442,12.442V46.59z"/>
	<path opacity="0.4" fill="none" stroke="#C1C1C0" stroke-miterlimit="10" enable-background="new    " d="M59.032,46.59
		c0,6.872-5.57,12.442-12.442,12.442H13.41c-6.872,0-12.442-5.57-12.442-12.442V13.41c0-6.872,5.57-12.442,12.442-12.442h33.18
		c6.872,0,12.442,5.57,12.442,12.442V46.59z"/>
	<path opacity="0.4" fill="none" stroke="#C1C1C0" stroke-miterlimit="10" enable-background="new    " d="M359.032,346.59
		c0,6.872-5.57,12.442-12.442,12.442h-33.18c-6.872,0-12.442-5.57-12.442-12.442v-33.18c0-6.872,5.57-12.442,12.442-12.442h33.18
		c6.872,0,12.442,5.57,12.442,12.442V346.59z"/>
</g>
<g id="Back_Area">
	<path opacity="0.4" fill="none" stroke="#C1C1C0" stroke-miterlimit="10" enable-background="new    " d="M298.745,75.095v31.93
		l0,0c0,7.667,6.282,14.032,13.548,14.032h32.994c7.243,0,13.745,6.123,13.745,13.79v30.637l0,0v119.607
		c0,7.267-6.123,13.79-13.79,13.79l-3.568-0.004l-28.37,0.004h-0.723c-7.667,0-13.79,6.524-13.79,13.79v0.001v9.072v24.667
		c0,6.887-5.56,12.47-12.417,12.47h-92.746c-6.857,0-12.417-5.583-12.417-12.47v-33.739c0-7.267-6.123-13.79-13.79-13.79
		l-9.754-0.091h-22.907c-7.243,0-13.745-5.478-13.745-13.79v-0.139v-32.038c0-7.667-6.502-13.79-13.745-13.79h-32.51
		c-7.267,0-13.79-6.123-13.79-13.79v-0.003v-27.581v-4.836c0-7.667-6.524-13.79-13.79-13.79h-0.001h-9.072H13.438
		c-6.887,0-12.47-5.56-12.47-12.417v-93.23c0-6.857,5.583-12.417,12.47-12.417h33.739c7.267,0,13.79-6.123,13.79-13.79V37.134
		V13.306c0-6.815,5.57-12.339,12.442-12.339h152.938c6.872,0,12.442,5.524,12.442,12.339v1.452v31.753v0.429
		c0,7.667,6.04,14.032,13.306,14.032h32.994C292.334,60.971,298.745,67.427,298.745,75.095"/>
</g>
<g id="Controls">
	<g>
		<polyline fill="none" stroke="#9CADC6" stroke-width="1.5" stroke-miterlimit="10" points="111.29,145.161 111.29,135.484 
			246.774,135.484 246.774,145.161 		"/>
		<path fill="none" stroke="#9CADC6" stroke-width="0.75" stroke-miterlimit="10" d="M111.29,154.617"/>
		<path fill="none" stroke="#9CADC6" stroke-width="0.75" stroke-miterlimit="10" d="M246.774,154.839"/>
		<polyline fill="none" stroke="#9CADC6" stroke-width="0.75" stroke-miterlimit="10" points="111.29,145.161 111.29,154.839 
			246.774,154.839 246.774,145.161 		"/>
	</g>
	<g>
		<polyline fill="none" stroke="#9CADC6" stroke-width="1.5" stroke-miterlimit="10" points="111.29,174.194 111.29,183.871 
			246.774,183.871 246.774,174.194 		"/>
		<path fill="none" stroke="#9CADC6" stroke-width="0.75" stroke-miterlimit="10" d="M111.29,164.738"/>
		<path fill="none" stroke="#9CADC6" stroke-width="0.75" stroke-miterlimit="10" d="M246.774,164.516"/>
		<polyline fill="none" stroke="#9CADC6" stroke-width="0.75" stroke-miterlimit="10" points="111.29,174.194 111.29,164.516 
			246.774,164.516 246.774,174.194 		"/>
	</g>
	<g>
		<path fill="#C1C1C0" d="M145.327,149.809h-3.896v-0.469c0.105-0.009,0.259-0.022,0.46-0.04c0.2-0.017,0.339-0.044,0.413-0.079
			c0.133-0.053,0.229-0.134,0.291-0.242c0.062-0.107,0.093-0.248,0.093-0.42v-7.547h-4.32v7.475c0,0.155,0.025,0.285,0.076,0.391
			c0.05,0.106,0.151,0.199,0.301,0.279c0.075,0.04,0.208,0.079,0.401,0.119s0.343,0.062,0.453,0.066v0.469h-3.896v-0.469
			c0.105-0.009,0.259-0.022,0.46-0.04c0.2-0.017,0.339-0.044,0.413-0.079c0.133-0.053,0.229-0.134,0.291-0.242
			c0.062-0.108,0.093-0.248,0.093-0.42v-6.774c0-0.141-0.029-0.27-0.086-0.387c-0.057-0.117-0.157-0.208-0.298-0.275
			c-0.119-0.057-0.263-0.108-0.434-0.152s-0.316-0.071-0.44-0.079v-0.469h9.625v0.469c-0.123,0.004-0.275,0.024-0.453,0.06
			s-0.312,0.069-0.401,0.1c-0.15,0.053-0.251,0.141-0.301,0.264c-0.05,0.123-0.076,0.258-0.076,0.404v6.767
			c0,0.155,0.025,0.285,0.076,0.39s0.151,0.198,0.301,0.278c0.075,0.04,0.208,0.079,0.401,0.119c0.193,0.04,0.343,0.062,0.453,0.066
			L145.327,149.809L145.327,149.809z"/>
		<path fill="#C1C1C0" d="M152.842,146.481c0,0.459-0.073,0.91-0.219,1.353c-0.146,0.443-0.353,0.82-0.623,1.128
			c-0.305,0.353-0.658,0.615-1.06,0.787c-0.402,0.171-0.853,0.258-1.351,0.258c-0.415,0-0.81-0.078-1.185-0.235
			c-0.375-0.157-0.708-0.384-1-0.685c-0.286-0.295-0.516-0.656-0.685-1.082c-0.169-0.426-0.255-0.903-0.255-1.432
			c0-1.019,0.297-1.852,0.89-2.501c0.593-0.648,1.371-0.973,2.334-0.973c0.914,0,1.667,0.308,2.262,0.923
			C152.545,144.639,152.842,145.458,152.842,146.481z M151.472,146.495c0-0.331-0.033-0.68-0.1-1.048s-0.165-0.68-0.299-0.936
			c-0.141-0.274-0.327-0.493-0.556-0.658c-0.229-0.165-0.51-0.248-0.842-0.248c-0.341,0-0.631,0.083-0.871,0.252
			c-0.241,0.167-0.436,0.397-0.586,0.688c-0.141,0.269-0.241,0.576-0.299,0.919c-0.057,0.344-0.086,0.677-0.086,0.999
			c0,0.424,0.034,0.815,0.103,1.174c0.069,0.359,0.178,0.68,0.328,0.963c0.15,0.283,0.339,0.504,0.566,0.665
			c0.227,0.162,0.509,0.242,0.845,0.242c0.553,0,0.99-0.267,1.312-0.8C151.311,148.171,151.472,147.435,151.472,146.495z"/>
		<path fill="#C1C1C0" d="M160.714,149.809h-3.189v-0.436c0.102-0.009,0.205-0.017,0.311-0.026c0.105-0.009,0.198-0.026,0.278-0.053
			c0.123-0.04,0.219-0.109,0.285-0.208c0.066-0.099,0.1-0.228,0.1-0.387v-4.869h-1.813c0,1.076-0.075,2.002-0.225,2.778
			c-0.149,0.776-0.344,1.409-0.583,1.899c-0.234,0.481-0.498,0.84-0.794,1.078c-0.295,0.238-0.598,0.357-0.907,0.357
			c-0.317,0-0.558-0.082-0.721-0.248c-0.163-0.165-0.245-0.358-0.245-0.579c0-0.159,0.052-0.309,0.156-0.45s0.255-0.212,0.453-0.212
			c0.185,0,0.353,0.053,0.503,0.159c0.15,0.105,0.295,0.254,0.436,0.443c0.105-0.097,0.23-0.277,0.374-0.539
			c0.143-0.262,0.275-0.587,0.394-0.975c0.133-0.419,0.241-0.854,0.324-1.304s0.126-0.966,0.126-1.548
			c0-0.229-0.029-0.4-0.086-0.509c-0.057-0.109-0.148-0.196-0.271-0.258c-0.083-0.044-0.221-0.085-0.41-0.122
			c-0.19-0.037-0.344-0.063-0.464-0.076v-0.436h5.941v0.436c-0.128,0.009-0.239,0.02-0.334,0.033
			c-0.095,0.013-0.182,0.029-0.261,0.046c-0.123,0.036-0.215,0.105-0.275,0.208c-0.06,0.104-0.089,0.232-0.089,0.387v4.234
			c0,0.155,0.026,0.279,0.079,0.374c0.053,0.095,0.143,0.168,0.271,0.222c0.093,0.044,0.193,0.077,0.301,0.1s0.22,0.038,0.334,0.046
			L160.714,149.809L160.714,149.809z"/>
		<path fill="#C1C1C0" d="M167.621,147.804c0,0.348-0.075,0.649-0.225,0.903c-0.15,0.254-0.344,0.463-0.583,0.625
			c-0.238,0.159-0.503,0.278-0.794,0.357c-0.29,0.079-0.595,0.119-0.913,0.119h-3.44v-0.436c0.102-0.009,0.206-0.017,0.314-0.026
			c0.108-0.009,0.201-0.026,0.282-0.053c0.123-0.04,0.215-0.109,0.275-0.208c0.06-0.099,0.089-0.228,0.089-0.387v-4.234
			c0-0.145-0.031-0.268-0.093-0.367c-0.062-0.099-0.155-0.175-0.278-0.228c-0.115-0.053-0.225-0.088-0.334-0.105
			c-0.108-0.017-0.208-0.031-0.301-0.04v-0.436h3.287v0.436c-0.133,0.009-0.262,0.019-0.386,0.03
			c-0.127,0.011-0.23,0.027-0.315,0.049c-0.136,0.04-0.231,0.115-0.285,0.225c-0.053,0.109-0.079,0.234-0.079,0.371v1.554
			c0.176-0.004,0.327-0.01,0.454-0.016c0.125-0.007,0.307-0.01,0.545-0.01c0.428,0,0.803,0.034,1.128,0.103
			c0.323,0.069,0.605,0.173,0.843,0.315c0.256,0.15,0.455,0.342,0.595,0.576C167.55,147.153,167.621,147.447,167.621,147.804z
			 M166.284,147.771c0-0.371-0.135-0.687-0.404-0.949s-0.662-0.394-1.178-0.394c-0.216,0-0.395,0.008-0.536,0.023
			s-0.249,0.023-0.324,0.023v2.328c0,0.185,0.067,0.324,0.201,0.417c0.135,0.093,0.378,0.139,0.731,0.139
			c0.3,0,0.55-0.048,0.75-0.145c0.201-0.097,0.354-0.221,0.461-0.371c0.114-0.163,0.193-0.333,0.235-0.509
			C166.264,148.157,166.284,147.97,166.284,147.771z"/>
		<path fill="#C1C1C0" d="M173.779,147.923c0,0.613-0.272,1.109-0.818,1.488c-0.545,0.379-1.255,0.569-2.133,0.569
			c-0.392,0-0.748-0.045-1.068-0.135c-0.319-0.09-0.586-0.213-0.803-0.367c-0.207-0.155-0.366-0.328-0.476-0.523
			s-0.165-0.405-0.165-0.635c0-0.198,0.053-0.362,0.159-0.49c0.105-0.128,0.271-0.192,0.496-0.192c0.238,0,0.419,0.064,0.543,0.192
			c0.124,0.128,0.185,0.262,0.185,0.404c0,0.128-0.019,0.281-0.057,0.457c-0.037,0.176-0.069,0.314-0.096,0.41
			c0.114,0.115,0.283,0.208,0.503,0.282c0.221,0.074,0.478,0.109,0.774,0.109c0.459,0,0.84-0.136,1.145-0.41
			s0.457-0.659,0.457-1.157c0-0.15-0.02-0.302-0.06-0.457c-0.04-0.155-0.114-0.291-0.225-0.41s-0.26-0.216-0.45-0.291
			s-0.438-0.112-0.747-0.112h-0.695v-0.615h0.569c0.529,0,0.9-0.111,1.111-0.334s0.317-0.568,0.317-1.035
			c0-0.326-0.101-0.585-0.304-0.777c-0.203-0.192-0.483-0.287-0.84-0.287c-0.26,0-0.492,0.056-0.695,0.168
			c-0.203,0.112-0.39,0.265-0.562,0.46c-0.154,0.176-0.29,0.383-0.406,0.618c-0.117,0.236-0.214,0.458-0.288,0.665h-0.443
			l0.04-2.361h0.443l0.238,0.364c0.221-0.102,0.487-0.196,0.796-0.285c0.312-0.088,0.661-0.133,1.049-0.133
			c0.485,0,0.88,0.059,1.185,0.175s0.541,0.257,0.707,0.42c0.164,0.159,0.273,0.327,0.331,0.506s0.086,0.325,0.086,0.44
			c0,0.15-0.023,0.303-0.069,0.46c-0.047,0.157-0.135,0.305-0.262,0.446c-0.124,0.141-0.294,0.272-0.513,0.394
			c-0.218,0.121-0.493,0.215-0.824,0.282v0.086c0.207,0.009,0.421,0.042,0.638,0.1c0.22,0.057,0.421,0.148,0.606,0.271
			c0.198,0.136,0.351,0.308,0.461,0.513C173.726,147.398,173.779,147.642,173.779,147.923z"/>
		<path fill="#C1C1C0" d="M181.169,146.481c0,0.459-0.073,0.91-0.219,1.353c-0.146,0.443-0.353,0.82-0.623,1.128
			c-0.304,0.353-0.658,0.615-1.06,0.787s-0.853,0.258-1.351,0.258c-0.415,0-0.81-0.078-1.185-0.235
			c-0.375-0.157-0.708-0.384-1-0.685c-0.287-0.295-0.515-0.656-0.685-1.082c-0.17-0.426-0.255-0.903-0.255-1.432
			c0-1.019,0.297-1.852,0.89-2.501c0.594-0.648,1.372-0.973,2.334-0.973c0.914,0,1.668,0.308,2.263,0.923
			C180.872,144.639,181.169,145.458,181.169,146.481z M179.8,146.495c0-0.331-0.033-0.68-0.1-1.048
			c-0.067-0.368-0.166-0.68-0.299-0.936c-0.141-0.274-0.327-0.493-0.556-0.658c-0.229-0.165-0.51-0.248-0.842-0.248
			c-0.341,0-0.63,0.083-0.871,0.252c-0.24,0.167-0.435,0.397-0.585,0.688c-0.141,0.269-0.241,0.576-0.299,0.919
			c-0.058,0.344-0.086,0.677-0.086,0.999c0,0.424,0.034,0.815,0.103,1.174c0.068,0.36,0.178,0.68,0.328,0.963
			c0.15,0.283,0.34,0.504,0.566,0.665c0.227,0.162,0.509,0.242,0.845,0.242c0.553,0,0.99-0.267,1.312-0.8
			S179.8,147.435,179.8,146.495z"/>
		<path fill="#C1C1C0" d="M188.148,147.99c0,0.322-0.073,0.6-0.219,0.833c-0.146,0.233-0.345,0.426-0.602,0.576
			c-0.233,0.136-0.501,0.239-0.8,0.308s-0.62,0.103-0.959,0.103h-3.447v-0.436c0.101-0.009,0.206-0.017,0.314-0.026
			c0.108-0.009,0.202-0.026,0.282-0.053c0.124-0.04,0.216-0.109,0.274-0.208c0.061-0.1,0.09-0.228,0.09-0.387v-4.234
			c0-0.145-0.031-0.268-0.093-0.367c-0.062-0.099-0.154-0.175-0.278-0.228c-0.114-0.053-0.225-0.088-0.334-0.105
			c-0.108-0.017-0.209-0.031-0.302-0.04v-0.436c0.392,0,0.879-0.002,1.458-0.007c0.581-0.004,1.186-0.007,1.816-0.007
			c0.336,0,0.647,0.023,0.936,0.07c0.289,0.046,0.546,0.125,0.771,0.235c0.233,0.115,0.415,0.27,0.543,0.466
			c0.128,0.196,0.192,0.434,0.192,0.711c0,0.436-0.135,0.782-0.407,1.035c-0.27,0.254-0.626,0.427-1.068,0.52v0.073
			c0.225,0.031,0.446,0.081,0.666,0.152c0.218,0.071,0.413,0.167,0.585,0.291c0.177,0.128,0.317,0.285,0.424,0.473
			S188.148,147.716,188.148,147.99z M186.474,144.808c0-0.221-0.041-0.401-0.122-0.539c-0.081-0.138-0.19-0.248-0.327-0.327
			c-0.136-0.079-0.288-0.134-0.459-0.162c-0.169-0.029-0.344-0.043-0.524-0.043c-0.114,0-0.241,0.003-0.38,0.01
			c-0.138,0.007-0.26,0.013-0.366,0.016v2.382h0.64c0.303,0,0.558-0.036,0.765-0.105c0.206-0.071,0.362-0.165,0.467-0.285
			c0.109-0.115,0.188-0.252,0.234-0.41C186.45,145.186,186.474,145.006,186.474,144.808z M186.832,147.89
			c0-0.388-0.143-0.695-0.431-0.919c-0.287-0.225-0.699-0.338-1.234-0.338c-0.234,0-0.419,0.004-0.554,0.014
			c-0.135,0.009-0.239,0.014-0.315,0.014v2.157c0,0.172,0.073,0.305,0.22,0.401c0.145,0.095,0.369,0.142,0.669,0.142
			c0.318,0,0.588-0.042,0.81-0.126s0.393-0.198,0.517-0.344c0.119-0.141,0.202-0.295,0.249-0.464
			C186.81,148.259,186.832,148.08,186.832,147.89z"/>
		<path fill="#C1C1C0" d="M195.306,149.69c-0.207,0.075-0.389,0.135-0.546,0.182c-0.156,0.046-0.334,0.07-0.532,0.07
			c-0.344,0-0.619-0.08-0.824-0.242c-0.206-0.162-0.337-0.396-0.394-0.705h-0.04c-0.286,0.317-0.594,0.56-0.923,0.728
			c-0.328,0.167-0.724,0.252-1.187,0.252c-0.49,0-0.892-0.15-1.208-0.45c-0.315-0.3-0.472-0.692-0.472-1.178
			c0-0.252,0.035-0.476,0.105-0.675c0.071-0.198,0.177-0.377,0.317-0.536c0.11-0.133,0.256-0.251,0.436-0.354
			c0.18-0.104,0.35-0.186,0.509-0.248c0.198-0.075,0.601-0.214,1.207-0.417c0.607-0.202,1.016-0.362,1.228-0.476v-0.655
			c0-0.057-0.013-0.167-0.037-0.331c-0.023-0.163-0.075-0.317-0.155-0.464c-0.088-0.163-0.213-0.305-0.375-0.427
			c-0.161-0.121-0.388-0.182-0.684-0.182c-0.203,0-0.391,0.034-0.565,0.103c-0.175,0.069-0.297,0.14-0.368,0.215
			c0,0.088,0.02,0.219,0.063,0.39c0.042,0.172,0.062,0.331,0.062,0.476c0,0.155-0.07,0.295-0.208,0.424
			c-0.14,0.128-0.333,0.192-0.58,0.192c-0.221,0-0.383-0.078-0.487-0.235c-0.103-0.157-0.155-0.332-0.155-0.525
			c0-0.202,0.072-0.397,0.216-0.583c0.142-0.185,0.329-0.35,0.558-0.496c0.198-0.123,0.438-0.228,0.721-0.315
			c0.283-0.086,0.557-0.129,0.826-0.129c0.371,0,0.694,0.025,0.969,0.076c0.276,0.05,0.526,0.16,0.751,0.327
			c0.225,0.163,0.396,0.384,0.513,0.665c0.116,0.281,0.175,0.641,0.175,1.082c0,0.631-0.007,1.189-0.02,1.677
			c-0.014,0.488-0.02,1.02-0.02,1.598c0,0.172,0.029,0.309,0.09,0.41c0.059,0.102,0.15,0.188,0.274,0.258
			c0.066,0.04,0.171,0.062,0.314,0.066c0.143,0.004,0.29,0.007,0.44,0.007v0.425H195.306z M192.998,146.197
			c-0.375,0.11-0.704,0.219-0.986,0.325c-0.283,0.105-0.545,0.239-0.787,0.398c-0.221,0.15-0.395,0.328-0.523,0.534
			s-0.192,0.45-0.192,0.733c0,0.367,0.096,0.637,0.288,0.809c0.191,0.172,0.435,0.258,0.731,0.258c0.313,0,0.588-0.076,0.826-0.228
			c0.238-0.152,0.438-0.333,0.602-0.541L192.998,146.197z"/>
		<path fill="#C1C1C0" d="M201.71,145.377h-0.404c-0.04-0.123-0.099-0.269-0.175-0.436c-0.077-0.167-0.163-0.326-0.255-0.476
			c-0.098-0.163-0.206-0.308-0.327-0.434c-0.122-0.126-0.249-0.197-0.381-0.215c-0.137-0.014-0.289-0.023-0.457-0.03
			c-0.167-0.007-0.311-0.01-0.43-0.01v4.856c0,0.15,0.031,0.274,0.093,0.371c0.062,0.097,0.154,0.172,0.278,0.225
			c0.098,0.044,0.207,0.077,0.331,0.1c0.124,0.022,0.245,0.038,0.364,0.046v0.436h-3.327v-0.436
			c0.102-0.009,0.219-0.017,0.349-0.026c0.131-0.009,0.236-0.026,0.315-0.053c0.125-0.04,0.217-0.109,0.277-0.208
			c0.06-0.1,0.09-0.228,0.09-0.387v-4.922c-0.141,0.004-0.3,0.01-0.476,0.016s-0.315,0.015-0.417,0.023
			c-0.114,0.009-0.237,0.081-0.367,0.219c-0.131,0.136-0.244,0.281-0.342,0.43c-0.093,0.15-0.179,0.316-0.258,0.499
			c-0.079,0.183-0.135,0.321-0.165,0.413h-0.404v-2.09h6.086v2.089H201.71z"/>
		<path fill="#C1C1C0" d="M208.126,148.275c-0.273,0.521-0.64,0.935-1.098,1.244c-0.459,0.309-0.986,0.464-1.581,0.464
			c-0.525,0-0.985-0.093-1.379-0.278c-0.395-0.185-0.72-0.436-0.976-0.754c-0.256-0.317-0.447-0.688-0.572-1.111
			c-0.127-0.424-0.189-0.871-0.189-1.343c0-0.424,0.067-0.839,0.202-1.247c0.135-0.407,0.332-0.775,0.591-1.101
			c0.252-0.314,0.563-0.565,0.936-0.758c0.374-0.192,0.791-0.287,1.254-0.287c0.476,0,0.885,0.075,1.224,0.225
			c0.34,0.149,0.615,0.355,0.826,0.615c0.203,0.247,0.354,0.538,0.453,0.873c0.101,0.335,0.149,0.699,0.149,1.092v0.436h-4.32
			c0,0.429,0.041,0.818,0.122,1.167c0.082,0.349,0.211,0.656,0.387,0.921c0.172,0.256,0.397,0.459,0.675,0.607
			c0.278,0.148,0.609,0.222,0.992,0.222c0.392,0,0.732-0.092,1.015-0.276c0.285-0.184,0.559-0.516,0.825-0.994L208.126,148.275z
			 M206.665,145.786c0-0.246-0.02-0.51-0.063-0.792c-0.042-0.282-0.108-0.517-0.201-0.705c-0.101-0.202-0.24-0.367-0.417-0.495
			s-0.404-0.192-0.681-0.192c-0.464,0-0.848,0.193-1.154,0.577c-0.307,0.384-0.473,0.92-0.5,1.606H206.665z"/>
		<path fill="#C1C1C0" d="M215.814,149.809h-3.189v-0.436c0.101-0.009,0.205-0.017,0.311-0.026c0.105-0.009,0.198-0.026,0.278-0.053
			c0.124-0.04,0.219-0.109,0.285-0.208c0.066-0.099,0.1-0.228,0.1-0.387v-4.869h-1.813c0,1.076-0.075,2.002-0.225,2.778
			c-0.15,0.776-0.344,1.409-0.583,1.899c-0.233,0.481-0.498,0.84-0.794,1.078s-0.597,0.357-0.907,0.357
			c-0.317,0-0.557-0.082-0.721-0.248c-0.164-0.165-0.245-0.358-0.245-0.579c0-0.159,0.052-0.309,0.155-0.45
			c0.104-0.141,0.255-0.212,0.454-0.212c0.185,0,0.352,0.053,0.503,0.159c0.151,0.105,0.296,0.254,0.436,0.443
			c0.105-0.097,0.23-0.277,0.375-0.539c0.142-0.262,0.274-0.587,0.393-0.975c0.133-0.419,0.24-0.854,0.324-1.304
			s0.126-0.966,0.126-1.548c0-0.229-0.028-0.4-0.086-0.509c-0.058-0.109-0.147-0.196-0.271-0.258
			c-0.084-0.044-0.221-0.085-0.41-0.122c-0.19-0.037-0.344-0.063-0.464-0.076v-0.436h5.941v0.436
			c-0.128,0.009-0.239,0.02-0.335,0.033c-0.095,0.014-0.182,0.029-0.261,0.046c-0.124,0.036-0.216,0.105-0.274,0.208
			c-0.061,0.104-0.09,0.232-0.09,0.387v4.234c0,0.155,0.026,0.279,0.079,0.374s0.143,0.168,0.271,0.222
			c0.093,0.044,0.193,0.077,0.301,0.1c0.108,0.022,0.221,0.038,0.335,0.046L215.814,149.809L215.814,149.809z"/>
		<path fill="#C1C1C0" d="M222.721,147.804c0,0.348-0.075,0.649-0.225,0.903c-0.15,0.254-0.344,0.463-0.583,0.625
			c-0.238,0.159-0.503,0.278-0.794,0.357c-0.29,0.079-0.595,0.119-0.913,0.119h-3.44v-0.436c0.101-0.009,0.206-0.017,0.314-0.026
			c0.108-0.009,0.202-0.026,0.282-0.053c0.124-0.04,0.216-0.109,0.274-0.208c0.061-0.1,0.09-0.228,0.09-0.387v-4.234
			c0-0.145-0.031-0.268-0.093-0.367c-0.062-0.099-0.154-0.175-0.278-0.228c-0.114-0.053-0.225-0.088-0.334-0.105
			c-0.108-0.017-0.209-0.031-0.302-0.04v-0.436h3.287v0.436c-0.133,0.009-0.261,0.019-0.387,0.03
			c-0.125,0.011-0.229,0.027-0.314,0.049c-0.137,0.04-0.231,0.115-0.285,0.225s-0.079,0.234-0.079,0.371v1.554
			c0.177-0.004,0.328-0.01,0.453-0.016c0.127-0.007,0.308-0.01,0.546-0.01c0.428,0,0.803,0.034,1.128,0.103
			c0.323,0.069,0.605,0.173,0.843,0.315c0.256,0.15,0.455,0.342,0.595,0.576C222.648,147.153,222.721,147.447,222.721,147.804z
			 M221.385,147.771c0-0.371-0.135-0.687-0.404-0.949c-0.269-0.262-0.662-0.394-1.178-0.394c-0.217,0-0.395,0.008-0.536,0.023
			c-0.141,0.015-0.25,0.023-0.324,0.023v2.328c0,0.185,0.067,0.324,0.201,0.417c0.135,0.093,0.379,0.139,0.732,0.139
			c0.3,0,0.55-0.048,0.75-0.145c0.201-0.097,0.354-0.221,0.461-0.371c0.114-0.163,0.193-0.333,0.235-0.509
			C221.363,148.157,221.385,147.97,221.385,147.771z"/>
	</g>
	<g>
		<path fill="#C1C1C0" d="M165.593,178.842h-3.896v-0.469c0.105-0.009,0.259-0.021,0.46-0.04c0.201-0.017,0.339-0.044,0.413-0.079
			c0.133-0.053,0.229-0.134,0.291-0.242c0.062-0.107,0.093-0.248,0.093-0.42v-7.548h-4.32v7.475c0,0.155,0.025,0.285,0.076,0.391
			c0.051,0.105,0.151,0.198,0.301,0.278c0.075,0.04,0.208,0.079,0.401,0.119c0.193,0.04,0.343,0.062,0.453,0.066v0.469h-3.896
			v-0.469c0.105-0.009,0.259-0.021,0.46-0.04c0.201-0.017,0.339-0.044,0.413-0.079c0.133-0.053,0.229-0.134,0.291-0.241
			c0.062-0.108,0.093-0.249,0.093-0.421v-6.774c0-0.141-0.029-0.27-0.086-0.386c-0.057-0.117-0.157-0.209-0.298-0.275
			c-0.119-0.057-0.263-0.107-0.434-0.152c-0.169-0.044-0.316-0.07-0.44-0.079v-0.469h9.625v0.469
			c-0.123,0.005-0.275,0.024-0.453,0.06c-0.179,0.036-0.312,0.069-0.401,0.1c-0.15,0.053-0.251,0.141-0.301,0.264
			c-0.05,0.124-0.076,0.258-0.076,0.404v6.767c0,0.155,0.025,0.285,0.076,0.39c0.051,0.105,0.151,0.198,0.301,0.278
			c0.075,0.04,0.208,0.079,0.401,0.119c0.193,0.04,0.343,0.062,0.453,0.066L165.593,178.842L165.593,178.842z"/>
		<path fill="#C1C1C0" d="M172.923,178.723c-0.207,0.075-0.389,0.136-0.546,0.182c-0.157,0.045-0.334,0.069-0.532,0.069
			c-0.344,0-0.618-0.08-0.824-0.241c-0.205-0.162-0.337-0.396-0.394-0.705h-0.04c-0.286,0.317-0.594,0.56-0.923,0.728
			c-0.328,0.168-0.725,0.252-1.187,0.252c-0.49,0-0.892-0.149-1.208-0.45c-0.315-0.3-0.473-0.692-0.473-1.178
			c0-0.252,0.036-0.476,0.105-0.675c0.07-0.198,0.176-0.377,0.317-0.536c0.11-0.133,0.255-0.251,0.436-0.353
			c0.181-0.104,0.35-0.186,0.509-0.249c0.198-0.075,0.601-0.214,1.208-0.417c0.606-0.202,1.015-0.361,1.227-0.476v-0.655
			c0-0.057-0.013-0.167-0.037-0.331c-0.024-0.163-0.076-0.317-0.156-0.464c-0.088-0.163-0.213-0.305-0.374-0.426
			c-0.162-0.122-0.389-0.182-0.685-0.182c-0.202,0-0.391,0.034-0.565,0.103c-0.174,0.068-0.297,0.14-0.367,0.215
			c0,0.089,0.02,0.219,0.063,0.39s0.063,0.331,0.063,0.476c0,0.155-0.07,0.296-0.208,0.424c-0.139,0.129-0.332,0.192-0.579,0.192
			c-0.221,0-0.383-0.078-0.486-0.234c-0.104-0.157-0.156-0.332-0.156-0.526c0-0.202,0.072-0.397,0.215-0.583
			c0.143-0.186,0.33-0.35,0.559-0.496c0.198-0.123,0.439-0.227,0.721-0.314s0.558-0.13,0.826-0.13c0.371,0,0.694,0.025,0.969,0.076
			c0.276,0.05,0.525,0.16,0.751,0.327c0.225,0.164,0.396,0.384,0.513,0.666c0.117,0.28,0.175,0.641,0.175,1.081
			c0,0.631-0.007,1.189-0.02,1.677c-0.014,0.487-0.02,1.02-0.02,1.597c0,0.172,0.03,0.309,0.089,0.41
			c0.06,0.102,0.151,0.188,0.275,0.258c0.066,0.04,0.171,0.062,0.315,0.066c0.143,0.005,0.29,0.007,0.44,0.007v0.426H172.923z
			 M170.614,175.229c-0.375,0.11-0.704,0.22-0.986,0.325c-0.283,0.105-0.545,0.239-0.787,0.398c-0.221,0.15-0.395,0.328-0.523,0.534
			c-0.128,0.205-0.192,0.45-0.192,0.733c0,0.367,0.096,0.636,0.287,0.809c0.192,0.172,0.435,0.258,0.731,0.258
			c0.314,0,0.588-0.075,0.826-0.228c0.238-0.152,0.439-0.333,0.602-0.541L170.614,175.229z"/>
		<path fill="#C1C1C0" d="M179.532,173.092c0.26,0.309,0.463,0.667,0.605,1.075c0.143,0.407,0.215,0.874,0.215,1.398
			c0,0.516-0.086,0.987-0.258,1.413c-0.172,0.425-0.4,0.788-0.681,1.088c-0.295,0.304-0.624,0.539-0.986,0.702
			c-0.362,0.164-0.745,0.245-1.151,0.245c-0.393,0-0.714-0.044-0.966-0.133c-0.252-0.088-0.457-0.192-0.615-0.311h-0.053v1.963
			c0,0.16,0.031,0.292,0.093,0.398c0.062,0.105,0.157,0.183,0.285,0.232c0.105,0.04,0.257,0.078,0.453,0.116
			c0.196,0.037,0.358,0.059,0.486,0.062v0.436h-3.645v-0.436c0.136-0.009,0.269-0.02,0.397-0.033
			c0.128-0.013,0.242-0.035,0.344-0.066c0.133-0.044,0.225-0.121,0.278-0.231c0.053-0.109,0.079-0.24,0.079-0.39v-6.94
			c0-0.133-0.033-0.26-0.1-0.383c-0.066-0.123-0.152-0.222-0.258-0.298c-0.079-0.053-0.19-0.094-0.331-0.122
			c-0.141-0.029-0.278-0.047-0.41-0.057v-0.436l2.223-0.145l0.093,0.079v0.735l0.053,0.014c0.229-0.264,0.514-0.485,0.854-0.662
			c0.34-0.176,0.677-0.264,1.012-0.264c0.405,0,0.777,0.086,1.115,0.258C178.996,172.571,179.29,172.802,179.532,173.092z
			 M178.454,177.783c0.176-0.273,0.307-0.59,0.39-0.952c0.083-0.361,0.126-0.765,0.126-1.211c0-0.326-0.036-0.659-0.105-0.999
			c-0.071-0.34-0.181-0.635-0.331-0.886c-0.15-0.255-0.346-0.464-0.588-0.622c-0.242-0.159-0.533-0.238-0.873-0.238
			c-0.326,0-0.605,0.072-0.833,0.216c-0.229,0.142-0.428,0.314-0.595,0.512v3.856c0.04,0.119,0.105,0.243,0.195,0.371
			c0.09,0.129,0.191,0.238,0.301,0.331c0.136,0.11,0.285,0.199,0.443,0.268c0.159,0.068,0.353,0.102,0.583,0.102
			c0.247,0,0.485-0.065,0.714-0.195C178.107,178.206,178.299,178.021,178.454,177.783z"/>
		<path fill="#C1C1C0" d="M187.675,175.514c0,0.46-0.073,0.91-0.219,1.353s-0.353,0.82-0.623,1.127
			c-0.304,0.353-0.658,0.615-1.06,0.787c-0.402,0.171-0.853,0.258-1.351,0.258c-0.415,0-0.81-0.078-1.185-0.234
			c-0.375-0.157-0.707-0.384-1-0.685c-0.286-0.295-0.515-0.656-0.685-1.081c-0.17-0.426-0.255-0.904-0.255-1.432
			c0-1.019,0.297-1.852,0.891-2.501c0.593-0.648,1.371-0.973,2.334-0.973c0.913,0,1.667,0.308,2.262,0.923
			C187.378,173.672,187.675,174.492,187.675,175.514z M186.306,175.527c0-0.331-0.033-0.68-0.1-1.048
			c-0.066-0.369-0.166-0.68-0.299-0.937c-0.141-0.273-0.327-0.493-0.556-0.658c-0.229-0.165-0.51-0.249-0.841-0.249
			c-0.341,0-0.631,0.084-0.871,0.252c-0.241,0.168-0.436,0.397-0.586,0.688c-0.141,0.269-0.241,0.576-0.299,0.919
			c-0.057,0.344-0.086,0.677-0.086,0.999c0,0.424,0.034,0.815,0.103,1.175c0.068,0.359,0.178,0.68,0.328,0.962
			c0.15,0.283,0.34,0.504,0.567,0.666c0.226,0.161,0.508,0.241,0.845,0.241c0.552,0,0.989-0.266,1.311-0.8
			C186.144,177.203,186.306,176.467,186.306,175.527z"/>
		<path fill="#C1C1C0" d="M195.547,178.842h-3.189v-0.436c0.101-0.009,0.205-0.017,0.311-0.026c0.105-0.009,0.198-0.026,0.278-0.053
			c0.124-0.04,0.219-0.108,0.285-0.208c0.066-0.1,0.1-0.228,0.1-0.387v-4.869h-1.813c0,1.076-0.075,2.002-0.225,2.778
			c-0.15,0.777-0.344,1.409-0.583,1.899c-0.233,0.481-0.498,0.84-0.794,1.078s-0.597,0.357-0.907,0.357
			c-0.317,0-0.557-0.082-0.721-0.248c-0.164-0.165-0.245-0.358-0.245-0.58c0-0.159,0.052-0.308,0.155-0.45
			c0.104-0.141,0.255-0.212,0.454-0.212c0.185,0,0.352,0.053,0.503,0.159c0.151,0.105,0.296,0.255,0.436,0.443
			c0.105-0.097,0.23-0.277,0.375-0.539c0.142-0.262,0.274-0.587,0.393-0.976c0.133-0.419,0.24-0.854,0.324-1.304
			s0.126-0.966,0.126-1.548c0-0.228-0.028-0.399-0.086-0.509c-0.058-0.109-0.147-0.195-0.271-0.258
			c-0.084-0.044-0.221-0.085-0.41-0.122c-0.19-0.038-0.344-0.063-0.464-0.076v-0.436h5.941v0.436
			c-0.128,0.01-0.239,0.02-0.335,0.033c-0.095,0.014-0.182,0.029-0.261,0.046c-0.124,0.036-0.216,0.105-0.274,0.209
			c-0.061,0.103-0.09,0.232-0.09,0.386v4.234c0,0.155,0.026,0.279,0.079,0.375c0.053,0.095,0.143,0.168,0.271,0.222
			c0.093,0.045,0.193,0.077,0.301,0.1c0.108,0.022,0.221,0.038,0.335,0.046L195.547,178.842L195.547,178.842z"/>
		<path fill="#C1C1C0" d="M202.454,176.836c0,0.348-0.075,0.649-0.225,0.904c-0.15,0.254-0.344,0.463-0.583,0.625
			c-0.238,0.159-0.503,0.278-0.794,0.357c-0.29,0.079-0.595,0.119-0.913,0.119h-3.44v-0.436c0.101-0.009,0.206-0.017,0.314-0.026
			c0.108-0.009,0.202-0.026,0.282-0.053c0.124-0.04,0.216-0.108,0.274-0.208c0.061-0.1,0.09-0.228,0.09-0.387v-4.234
			c0-0.145-0.031-0.267-0.093-0.367c-0.062-0.1-0.154-0.176-0.278-0.228c-0.114-0.053-0.225-0.088-0.334-0.105
			c-0.108-0.017-0.209-0.03-0.302-0.04v-0.436h3.287v0.436c-0.133,0.01-0.261,0.019-0.387,0.03
			c-0.125,0.011-0.229,0.027-0.314,0.049c-0.137,0.04-0.231,0.115-0.285,0.225c-0.053,0.11-0.079,0.234-0.079,0.371v1.554
			c0.177-0.004,0.328-0.01,0.453-0.016c0.127-0.007,0.308-0.011,0.546-0.011c0.428,0,0.803,0.034,1.128,0.103
			c0.323,0.068,0.605,0.173,0.843,0.314c0.256,0.15,0.455,0.343,0.595,0.576C202.383,176.185,202.454,176.479,202.454,176.836z
			 M201.117,176.804c0-0.371-0.135-0.687-0.404-0.948c-0.269-0.262-0.662-0.394-1.178-0.394c-0.217,0-0.395,0.008-0.536,0.023
			c-0.141,0.015-0.25,0.022-0.324,0.022v2.328c0,0.185,0.067,0.324,0.201,0.417c0.135,0.093,0.379,0.139,0.732,0.139
			c0.3,0,0.55-0.048,0.75-0.145c0.201-0.097,0.354-0.221,0.461-0.371c0.114-0.163,0.193-0.333,0.235-0.509
			C201.097,177.191,201.117,177.002,201.117,176.804z"/>
	</g>
</g>
</svg>
