<?xml version="1.0" encoding="utf-8"?>
<!-- Generator: Adobe Illustrator 17.1.0, SVG Export Plug-In . SVG Version: 6.00 Build 0)  -->
<!DOCTYPE svg PUBLIC "-//W3C//DTD SVG 1.1//EN" "http://www.w3.org/Graphics/SVG/1.1/DTD/svg11.dtd">
<svg version="1.1" id="Layer_1" xmlns="http://www.w3.org/2000/svg" xmlns:xlink="http://www.w3.org/1999/xlink" x="0px" y="0px"
	 viewBox="0 0 360 360" enable-background="new 0 0 360 360" xml:space="preserve">
<g id="Controls_Shaded">
	<path fill="none" stroke="#C1C1C0" stroke-miterlimit="10" d="M157.258,216.958c0,2.036,0.328,3.687,6.171,3.687h31.206
		c5.842,0,6.171-1.651,6.171-3.687v-11.981c0-2.036-0.328-3.687-6.171-3.687h-31.206c-5.842,0-6.171,1.651-6.171,3.687V216.958z"/>
	<g>
		<path fill="#B0AFB0" d="M168.856,211.342c0.234,0.159,0.429,0.367,0.585,0.624c0.156,0.257,0.232,0.569,0.232,0.936
			c0,0.374-0.081,0.7-0.244,0.975c-0.163,0.276-0.375,0.503-0.635,0.68c-0.254,0.174-0.54,0.306-0.859,0.397
			c-0.319,0.091-0.649,0.136-0.989,0.136h-3.811v-0.403c0.091-0.008,0.223-0.023,0.397-0.048c0.174-0.025,0.299-0.054,0.375-0.088
			c0.117-0.053,0.2-0.124,0.25-0.213c0.049-0.089,0.074-0.203,0.074-0.343v-5.784c0-0.129-0.021-0.242-0.065-0.341
			c-0.044-0.099-0.13-0.178-0.258-0.238c-0.113-0.057-0.24-0.101-0.38-0.131c-0.14-0.03-0.257-0.049-0.351-0.057v-0.403h3.714
			c0.287,0,0.562,0.028,0.825,0.085s0.513,0.157,0.751,0.301c0.223,0.133,0.406,0.312,0.55,0.539
			c0.143,0.227,0.216,0.503,0.216,0.827c0,0.284-0.051,0.536-0.153,0.757s-0.246,0.411-0.431,0.57
			c-0.174,0.151-0.374,0.279-0.598,0.383c-0.225,0.105-0.467,0.184-0.729,0.241v0.051c0.23,0.026,0.489,0.084,0.774,0.173
			C168.38,211.061,168.634,211.184,168.856,211.342z M167.485,210.128c0.139-0.163,0.236-0.342,0.291-0.534
			c0.055-0.193,0.082-0.423,0.082-0.687c0-0.443-0.121-0.791-0.362-1.042c-0.242-0.253-0.622-0.378-1.143-0.378
			c-0.121,0-0.273,0.003-0.456,0.009c-0.183,0.006-0.337,0.011-0.462,0.015v3.096h0.718c0.31,0,0.575-0.04,0.795-0.119
			C167.172,210.406,167.35,210.286,167.485,210.128z M168.273,212.697c0-0.476-0.16-0.867-0.479-1.174
			c-0.319-0.307-0.776-0.46-1.369-0.46c-0.242,0-0.446,0.003-0.613,0.009c-0.166,0.006-0.291,0.011-0.375,0.015v2.835
			c0,0.238,0.097,0.418,0.289,0.539c0.193,0.121,0.462,0.182,0.805,0.182c0.563,0,0.994-0.165,1.293-0.494
			C168.124,213.821,168.273,213.336,168.273,212.697z"/>
		<path fill="#B0AFB0" d="M178.451,215.09h-3.765v-0.403c0.31-0.008,0.56-0.037,0.751-0.088c0.191-0.051,0.286-0.13,0.286-0.235
			c0-0.057-0.044-0.174-0.131-0.351c-0.087-0.177-0.198-0.376-0.335-0.595c-0.151-0.242-0.331-0.527-0.539-0.855
			c-0.208-0.327-0.414-0.641-0.618-0.94c-0.333,0.438-0.71,0.968-1.134,1.586c-0.424,0.619-0.635,0.983-0.635,1.093
			c0,0.125,0.058,0.217,0.173,0.275c0.115,0.058,0.37,0.096,0.763,0.11v0.403h-3.005v-0.403c0.099-0.008,0.224-0.021,0.377-0.043
			c0.154-0.021,0.279-0.056,0.377-0.105c0.196-0.105,0.354-0.221,0.473-0.343c0.119-0.122,0.239-0.267,0.36-0.434
			c0.242-0.333,0.551-0.747,0.929-1.245c0.378-0.497,0.712-0.949,1.003-1.358c-0.22-0.321-0.499-0.729-0.839-1.222
			c-0.342-0.493-0.705-1.021-1.09-1.584c-0.163-0.238-0.29-0.406-0.382-0.504c-0.093-0.099-0.217-0.183-0.372-0.255
			c-0.091-0.042-0.216-0.075-0.376-0.1c-0.161-0.024-0.287-0.041-0.382-0.048v-0.403h3.726v0.403
			c-0.219,0.008-0.446,0.035-0.682,0.082c-0.235,0.047-0.353,0.12-0.353,0.219c0,0.072,0.047,0.197,0.141,0.377
			c0.094,0.18,0.206,0.372,0.335,0.576c0.133,0.212,0.28,0.446,0.442,0.704c0.163,0.258,0.361,0.555,0.596,0.891
			c0.426-0.579,0.795-1.101,1.104-1.566c0.31-0.465,0.465-0.767,0.465-0.908c0-0.121-0.071-0.21-0.213-0.266
			c-0.142-0.057-0.382-0.093-0.718-0.107v-0.403h3v0.403c-0.095,0.004-0.219,0.018-0.372,0.043s-0.281,0.06-0.383,0.105
			c-0.196,0.095-0.343,0.196-0.439,0.306c-0.097,0.109-0.225,0.268-0.388,0.476c-0.303,0.39-0.582,0.757-0.835,1.099
			c-0.255,0.343-0.562,0.76-0.921,1.252c0.303,0.431,0.64,0.919,1.012,1.467c0.372,0.548,0.728,1.07,1.068,1.569
			c0.117,0.17,0.252,0.332,0.403,0.485c0.151,0.153,0.274,0.258,0.369,0.314c0.091,0.053,0.213,0.086,0.366,0.1
			c0.153,0.014,0.283,0.021,0.388,0.025v0.401H178.451z"/>
		<path fill="#B0AFB0" d="M185.494,207.997c0.355,0.371,0.633,0.818,0.833,1.341c0.2,0.524,0.301,1.103,0.301,1.738
			c0,0.639-0.102,1.219-0.306,1.741c-0.204,0.522-0.488,0.966-0.851,1.333c-0.351,0.363-0.76,0.643-1.225,0.839
			c-0.465,0.196-0.96,0.295-1.485,0.295c-0.559,0-1.076-0.105-1.551-0.315s-0.882-0.502-1.222-0.876
			c-0.341-0.367-0.608-0.812-0.802-1.335c-0.195-0.524-0.292-1.084-0.292-1.681c0-0.654,0.102-1.237,0.306-1.75
			c0.204-0.513,0.486-0.955,0.845-1.33c0.355-0.371,0.768-0.654,1.239-0.851c0.47-0.196,0.963-0.295,1.477-0.295
			c0.533,0,1.035,0.101,1.509,0.301C184.741,207.353,185.149,207.634,185.494,207.997z M184.649,213.701
			c0.212-0.344,0.366-0.734,0.463-1.168c0.097-0.435,0.144-0.92,0.144-1.457c0-0.552-0.054-1.059-0.162-1.519
			c-0.107-0.461-0.265-0.855-0.473-1.18c-0.208-0.321-0.468-0.572-0.783-0.751c-0.315-0.179-0.673-0.269-1.077-0.269
			c-0.454,0-0.839,0.104-1.156,0.312c-0.317,0.208-0.577,0.486-0.777,0.833c-0.189,0.333-0.33,0.722-0.423,1.168
			c-0.093,0.446-0.139,0.915-0.139,1.406c0,0.545,0.049,1.035,0.147,1.474c0.098,0.438,0.254,0.827,0.465,1.168
			c0.204,0.333,0.462,0.592,0.771,0.78c0.31,0.188,0.68,0.281,1.111,0.281c0.405,0,0.769-0.095,1.095-0.284
			C184.179,214.305,184.445,214.041,184.649,213.701z"/>
		<path fill="#B0AFB0" d="M188.782,215.073c-0.151,0.019-0.298,0.105-0.439,0.258c-0.141,0.154-0.269,0.328-0.383,0.525
			c-0.105,0.182-0.2,0.383-0.284,0.604s-0.141,0.39-0.176,0.507h-0.425v-2.37h0.783c0.458-0.688,0.874-1.626,1.25-2.812
			s0.564-2.243,0.564-3.169c0-0.284-0.025-0.5-0.076-0.649c-0.051-0.149-0.148-0.258-0.292-0.326
			c-0.095-0.045-0.244-0.086-0.448-0.122s-0.353-0.06-0.448-0.071v-0.403h6.481v0.403c-0.105,0.004-0.235,0.02-0.388,0.051
			c-0.153,0.031-0.267,0.059-0.343,0.085c-0.129,0.045-0.215,0.121-0.258,0.226c-0.044,0.105-0.065,0.222-0.065,0.345v5.886
			c0,0.212,0.053,0.358,0.159,0.439c0.105,0.081,0.276,0.122,0.51,0.122h0.476v2.364h-0.425c-0.038-0.147-0.087-0.31-0.147-0.488
			s-0.155-0.385-0.284-0.624c-0.113-0.212-0.232-0.389-0.357-0.533s-0.27-0.226-0.436-0.25h-4.548V215.073z M192.627,214.087v-6.566
			h-2.257c0,1.35-0.169,2.654-0.507,3.913c-0.338,1.259-0.765,2.314-1.278,3.165h3.516c0.182,0,0.315-0.042,0.4-0.125
			C192.585,214.39,192.627,214.26,192.627,214.087z"/>
	</g>
</g>
</svg>
