<?xml version="1.0" encoding="utf-8"?>
<!-- Generator: Adobe Illustrator 17.1.0, SVG Export Plug-In . SVG Version: 6.00 Build 0)  -->
<!DOCTYPE svg PUBLIC "-//W3C//DTD SVG 1.1//EN" "http://www.w3.org/Graphics/SVG/1.1/DTD/svg11.dtd">
<svg version="1.1" id="Layer_1" xmlns="http://www.w3.org/2000/svg" xmlns:xlink="http://www.w3.org/1999/xlink" x="0px" y="0px"
	 viewBox="0 0 360 360" enable-background="new 0 0 360 360" xml:space="preserve">
<g id="Back_Error">
	<path fill="#D1DEEB" stroke="#9CADC6" stroke-miterlimit="10" d="M59.032,346.59c0,6.872-5.57,12.442-12.442,12.442H13.41
		c-6.872,0-12.442-5.57-12.442-12.442v-33.18c0-6.872,5.57-12.442,12.442-12.442h33.18c6.872,0,12.442,5.57,12.442,12.442V346.59z"
		/>
	<path opacity="0.6" fill="#D1DEEB" stroke="#9CADC6" stroke-miterlimit="10" enable-background="new    " d="M119.032,346.59
		c0,6.872-5.57,12.442-12.442,12.442H73.41c-6.872,0-12.442-5.57-12.442-12.442v-33.18c0-6.872,5.57-12.442,12.442-12.442h33.18
		c6.872,0,12.442,5.57,12.442,12.442C119.032,313.41,119.032,346.59,119.032,346.59z"/>
	<path opacity="0.4" fill="#D1DEEB" stroke="#9CADC6" stroke-miterlimit="10" enable-background="new    " d="M179.032,346.59
		c0,6.872-5.57,12.442-12.442,12.442h-33.18c-6.872,0-12.442-5.57-12.442-12.442v-33.18c0-6.872,5.57-12.442,12.442-12.442h33.18
		c6.872,0,12.442,5.57,12.442,12.442V346.59z"/>
	<path opacity="0.6" fill="#D1DEEB" stroke="#9CADC6" stroke-miterlimit="10" enable-background="new    " d="M59.032,286.59
		c0,6.872-5.57,12.442-12.442,12.442H13.41c-6.872,0-12.442-5.57-12.442-12.442v-33.18c0-6.872,5.57-12.442,12.442-12.442h33.18
		c6.872,0,12.442,5.57,12.442,12.442V286.59z"/>
	<path opacity="0.4" fill="#D1DEEB" stroke="#9CADC6" stroke-miterlimit="10" enable-background="new    " d="M359.032,106.59
		c0,6.872-5.57,12.442-12.442,12.442h-33.18c-6.872,0-12.442-5.57-12.442-12.442V73.41c0-6.872,5.57-12.442,12.442-12.442h33.18
		c6.872,0,12.442,5.57,12.442,12.442V106.59z"/>
	<path opacity="0.4" fill="#D1DEEB" stroke="#9CADC6" stroke-miterlimit="10" enable-background="new    " d="M59.032,226.59
		c0,6.872-5.57,12.442-12.442,12.442H13.41c-6.872,0-12.442-5.57-12.442-12.442v-33.18c0-6.872,5.57-12.442,12.442-12.442h33.18
		c6.872,0,12.442,5.57,12.442,12.442V226.59z"/>
	<path opacity="0.4" fill="#D1DEEB" stroke="#9CADC6" stroke-miterlimit="10" enable-background="new    " d="M299.032,46.59
		c0,6.872-5.57,12.442-12.442,12.442h-33.18c-6.872,0-12.442-5.57-12.442-12.442V13.41c0-6.872,5.57-12.442,12.442-12.442h33.18
		c6.872,0,12.442,5.57,12.442,12.442V46.59z"/>
	<path opacity="0.4" fill="#D1DEEB" stroke="#9CADC6" stroke-miterlimit="10" enable-background="new    " d="M359.032,46.59
		c0,6.872-5.57,12.442-12.442,12.442h-33.18c-6.872,0-12.442-5.57-12.442-12.442V13.41c0-6.872,5.57-12.442,12.442-12.442h33.18
		c6.872,0,12.442,5.57,12.442,12.442V46.59z"/>
	<path opacity="0.4" fill="none" stroke="#C1C1C0" stroke-miterlimit="10" enable-background="new    " d="M0.968,13.41
		c0-6.872,5.57-12.442,12.442-12.442h213.18c6.872,0,12.442,5.57,12.442,12.442v33.18c0,6.872-5.57,12.442-12.442,12.442H71.475
		c-6.872,0-12.442,5.57-12.442,12.442v95.115c0,6.872-5.57,12.442-12.442,12.442H13.41c-6.872,0-12.442-5.57-12.442-12.442V13.41z"
		/>
	<path opacity="0.4" fill="none" stroke="#C1C1C0" stroke-miterlimit="10" enable-background="new    " d="M346.59,359.032
		c6.872,0,12.442-5.57,12.442-12.442V133.41c0-6.872-5.57-12.442-12.442-12.442h-33.18c-6.872,0-12.442,5.57-12.442,12.442v155.115
		c0,6.872-5.57,12.442-12.442,12.442H193.41c-6.872,0-12.442,5.57-12.442,12.442v33.18c0,6.872,5.57,12.442,12.442,12.442H346.59z"
		/>
</g>
<g id="Can_x27_t_Enter">
	<g>
		<path fill="#981B1F" d="M93.96,160.523c0.208,0.113,0.371,0.263,0.488,0.45c0.117,0.187,0.176,0.406,0.176,0.655
			c0,0.344-0.068,0.645-0.204,0.907c-0.136,0.261-0.315,0.48-0.533,0.657c-0.224,0.182-0.476,0.332-0.758,0.451
			s-0.566,0.206-0.854,0.263v0.05c0.22,0.026,0.446,0.078,0.681,0.156c0.235,0.077,0.446,0.181,0.636,0.31
			c0.2,0.133,0.364,0.303,0.491,0.513c0.127,0.21,0.19,0.459,0.19,0.746c0,0.428-0.1,0.805-0.298,1.131
			c-0.198,0.327-0.449,0.593-0.752,0.797c-0.325,0.22-0.675,0.381-1.047,0.485c-0.373,0.104-0.756,0.156-1.15,0.156h-3.932
			l0.091-0.375c0.091-0.008,0.226-0.023,0.408-0.048s0.312-0.054,0.391-0.088c0.133-0.053,0.233-0.126,0.303-0.219
			c0.07-0.093,0.12-0.205,0.15-0.338l1.35-5.84c0.008-0.038,0.015-0.075,0.02-0.11c0.006-0.036,0.009-0.073,0.009-0.11
			c0-0.079-0.016-0.148-0.048-0.207c-0.032-0.059-0.088-0.108-0.167-0.15c-0.109-0.061-0.225-0.105-0.348-0.134
			c-0.123-0.029-0.237-0.046-0.343-0.054L89,160.203h3.549c0.268,0,0.519,0.023,0.751,0.071
			C93.532,160.321,93.752,160.405,93.96,160.523z M92.388,167.025c0.163-0.223,0.285-0.467,0.369-0.733
			c0.083-0.265,0.125-0.526,0.125-0.784c0-0.405-0.136-0.723-0.409-0.954c-0.273-0.231-0.656-0.346-1.149-0.346
			c-0.239,0-0.443,0.003-0.614,0.009s-0.3,0.011-0.387,0.015l-0.642,2.775c-0.012,0.054-0.02,0.104-0.025,0.149
			c-0.005,0.045-0.009,0.089-0.009,0.131c0,0.197,0.101,0.339,0.301,0.426c0.201,0.087,0.457,0.131,0.767,0.131
			c0.383,0,0.715-0.078,0.997-0.236C91.997,167.45,92.222,167.257,92.388,167.025z M92.758,163.137
			c0.178-0.208,0.305-0.428,0.383-0.661c0.077-0.232,0.116-0.496,0.116-0.791c0-0.2-0.036-0.371-0.108-0.51
			c-0.072-0.14-0.17-0.252-0.295-0.335c-0.125-0.079-0.263-0.135-0.415-0.167c-0.152-0.032-0.311-0.048-0.478-0.048
			c-0.125,0-0.264,0.003-0.418,0.009c-0.154,0.006-0.284,0.011-0.389,0.015l-0.718,3.13h0.709c0.371,0,0.691-0.059,0.962-0.176
			C92.378,163.484,92.595,163.33,92.758,163.137z"/>
		<path fill="#981B1F" d="M100.918,163.154c-0.004,0.22-0.084,0.381-0.241,0.485s-0.328,0.156-0.513,0.156
			c-0.113,0-0.242-0.02-0.385-0.06c-0.143-0.04-0.257-0.073-0.34-0.1c-0.17,0.151-0.368,0.374-0.592,0.669
			c-0.225,0.295-0.437,0.62-0.638,0.975c0.091,0.359,0.171,0.666,0.243,0.921s0.149,0.511,0.232,0.768
			c0.072,0.23,0.184,0.415,0.338,0.553c0.154,0.137,0.354,0.207,0.604,0.207c0.091,0,0.216-0.013,0.375-0.039
			c0.159-0.025,0.282-0.054,0.369-0.086l-0.102,0.377c-0.363,0.152-0.636,0.252-0.82,0.297c-0.184,0.046-0.381,0.069-0.592,0.069
			c-0.264,0-0.483-0.061-0.655-0.182c-0.172-0.121-0.311-0.371-0.417-0.748c-0.075-0.276-0.137-0.507-0.185-0.695
			c-0.047-0.187-0.094-0.374-0.139-0.558c-0.174,0.261-0.317,0.483-0.431,0.666c-0.113,0.183-0.303,0.435-0.567,0.757
			c-0.23,0.28-0.442,0.478-0.635,0.595s-0.389,0.176-0.589,0.176c-0.178,0-0.324-0.052-0.439-0.156
			c-0.115-0.104-0.173-0.249-0.173-0.434c0-0.178,0.068-0.33,0.204-0.457c0.135-0.127,0.322-0.19,0.561-0.19
			c0.121,0,0.239,0.021,0.354,0.065c0.115,0.044,0.235,0.084,0.36,0.122c0.143-0.136,0.334-0.347,0.569-0.635
			c0.236-0.287,0.457-0.615,0.66-0.981c-0.072-0.268-0.15-0.563-0.234-0.885s-0.165-0.603-0.24-0.845
			c-0.099-0.304-0.212-0.498-0.341-0.585s-0.293-0.13-0.494-0.13c-0.109,0-0.225,0.015-0.348,0.045
			c-0.123,0.03-0.237,0.061-0.343,0.091l0.107-0.377c0.291-0.121,0.553-0.222,0.786-0.3s0.39-0.117,0.473-0.117
			c0.261,0,0.477,0.063,0.649,0.19s0.309,0.372,0.411,0.735c0.117,0.42,0.186,0.675,0.206,0.768c0.02,0.093,0.061,0.275,0.122,0.547
			c0.182-0.28,0.329-0.516,0.442-0.708c0.113-0.193,0.299-0.448,0.555-0.765c0.238-0.299,0.459-0.504,0.661-0.615
			c0.202-0.111,0.396-0.167,0.582-0.167c0.166,0,0.307,0.054,0.423,0.162C100.869,162.842,100.922,162.984,100.918,163.154z"/>
		<path fill="#981B1F" d="M106.532,164.755c0,0.447-0.075,0.893-0.226,1.339c-0.151,0.446-0.371,0.838-0.658,1.175
			c-0.291,0.347-0.642,0.627-1.052,0.837c-0.41,0.21-0.885,0.315-1.426,0.315c-0.627,0-1.137-0.202-1.528-0.607
			c-0.391-0.405-0.586-0.949-0.586-1.635c0-0.504,0.083-0.973,0.25-1.408c0.166-0.435,0.389-0.817,0.669-1.147
			c0.284-0.329,0.634-0.595,1.052-0.797c0.418-0.202,0.87-0.304,1.358-0.304c0.673,0,1.199,0.205,1.579,0.615
			C106.342,163.55,106.532,164.089,106.532,164.755z M105.375,164.539c0-0.537-0.096-0.941-0.286-1.21
			c-0.191-0.269-0.465-0.404-0.825-0.404c-0.314,0-0.61,0.097-0.887,0.289c-0.278,0.193-0.517,0.507-0.717,0.943
			c-0.155,0.329-0.268,0.696-0.341,1.098c-0.073,0.403-0.107,0.774-0.107,1.115c0,0.542,0.094,0.95,0.281,1.229
			s0.469,0.417,0.848,0.417c0.337,0,0.635-0.105,0.896-0.318c0.261-0.212,0.472-0.481,0.635-0.806
			c0.163-0.317,0.287-0.682,0.375-1.093C105.331,165.39,105.375,164.971,105.375,164.539z"/>
		<path fill="#981B1F" d="M112.882,163.137c0,0.654-0.068,1.31-0.204,1.97c-0.136,0.66-0.339,1.224-0.607,1.693
			c-0.314,0.548-0.685,0.955-1.114,1.222c-0.429,0.267-0.921,0.4-1.477,0.4c-0.666,0-1.193-0.213-1.585-0.639
			c-0.392-0.426-0.586-0.988-0.586-1.689c0-0.965,0.311-1.801,0.933-2.508c0.622-0.707,1.373-1.062,2.254-1.062
			c0.216,0,0.444,0.03,0.686,0.091s0.448,0.165,0.618,0.312c-0.038-0.89-0.217-1.591-0.536-2.1s-0.723-0.764-1.211-0.764
			c-0.17,0-0.322,0.016-0.457,0.048s-0.262,0.078-0.383,0.139c-0.083,0.042-0.166,0.097-0.25,0.165
			c-0.083,0.068-0.147,0.117-0.193,0.147l-0.226-0.266c0.272-0.276,0.555-0.482,0.848-0.618s0.617-0.204,0.973-0.204
			c0.351,0,0.676,0.074,0.975,0.222c0.299,0.148,0.565,0.378,0.799,0.692c0.234,0.314,0.417,0.692,0.547,1.134
			C112.816,161.964,112.882,162.501,112.882,163.137z M111.159,166.673c0.178-0.39,0.322-0.856,0.434-1.399
			c0.111-0.544,0.179-1.082,0.201-1.615c-0.178-0.265-0.364-0.453-0.558-0.565c-0.195-0.111-0.411-0.167-0.649-0.167
			c-0.585,0-1.084,0.346-1.494,1.038c-0.41,0.693-0.615,1.463-0.615,2.311c0,0.571,0.083,1.005,0.25,1.3
			c0.166,0.295,0.448,0.443,0.845,0.443c0.341,0,0.645-0.125,0.915-0.375C110.757,167.395,110.981,167.071,111.159,166.673z"/>
		<path fill="#981B1F" d="M121.439,163.678c0,0.364-0.128,0.681-0.383,0.951c-0.255,0.27-0.645,0.468-1.171,0.594l-0.006,0.062
			c0.408,0.026,0.742,0.14,1.001,0.341c0.258,0.2,0.388,0.468,0.388,0.805c0,0.585-0.253,1.065-0.757,1.434
			c-0.504,0.37-1.186,0.555-2.044,0.555c-0.704,0-1.22-0.174-1.551-0.523s-0.496-0.848-0.496-1.498c0-0.533,0.068-1.032,0.204-1.495
			c0.136-0.464,0.341-0.875,0.613-1.235c0.264-0.347,0.605-0.626,1.021-0.834c0.416-0.208,0.886-0.313,1.412-0.313
			c0.257,0,0.487,0.02,0.689,0.062s0.388,0.112,0.558,0.21c0.163,0.095,0.29,0.213,0.383,0.355
			C121.393,163.294,121.439,163.469,121.439,163.678z M120.135,166.425c0-0.276-0.101-0.495-0.303-0.658
			c-0.202-0.163-0.534-0.244-0.995-0.244c-0.204,0-0.435,0.017-0.692,0.051s-0.452,0.062-0.585,0.085
			c-0.019,0.125-0.031,0.261-0.037,0.408c-0.006,0.147-0.009,0.27-0.009,0.369c0,0.295,0.035,0.545,0.105,0.748
			c0.07,0.203,0.158,0.367,0.263,0.488c0.105,0.117,0.228,0.204,0.369,0.261s0.282,0.085,0.425,0.085
			c0.268,0,0.498-0.049,0.689-0.147c0.191-0.098,0.343-0.228,0.457-0.391c0.105-0.151,0.184-0.318,0.235-0.502
			C120.108,166.795,120.135,166.611,120.135,166.425z M120.356,163.768c0-0.261-0.087-0.466-0.261-0.616
			c-0.174-0.15-0.395-0.225-0.664-0.225c-0.264,0-0.498,0.066-0.701,0.199c-0.202,0.134-0.381,0.32-0.536,0.563
			c-0.147,0.227-0.263,0.476-0.348,0.745c-0.085,0.269-0.156,0.54-0.213,0.813l1.037-0.113c0.337-0.038,0.618-0.101,0.845-0.188
			c0.226-0.087,0.401-0.19,0.522-0.307c0.117-0.117,0.199-0.247,0.247-0.389C120.332,164.107,120.356,163.947,120.356,163.768z"/>
		<path fill="#981B1F" d="M127.2,168.41c-0.662,0-1.185-0.193-1.568-0.579c-0.383-0.386-0.576-0.935-0.576-1.646
			c0-0.473,0.073-0.926,0.219-1.36s0.348-0.819,0.61-1.155c0.261-0.337,0.59-0.612,0.989-0.825s0.842-0.321,1.33-0.321
			c0.541,0,0.951,0.114,1.233,0.343c0.282,0.228,0.423,0.517,0.423,0.865c0,0.261-0.061,0.49-0.184,0.686
			c-0.123,0.196-0.307,0.295-0.553,0.295c-0.204,0-0.357-0.051-0.46-0.153s-0.153-0.215-0.153-0.34c0-0.121,0.041-0.285,0.122-0.495
			c0.081-0.209,0.147-0.378,0.195-0.506c-0.042-0.102-0.135-0.176-0.278-0.223c-0.143-0.047-0.293-0.071-0.448-0.071
			c-0.514,0-0.957,0.3-1.33,0.899c-0.373,0.599-0.558,1.334-0.558,2.203c0,0.537,0.12,0.963,0.361,1.278
			c0.241,0.315,0.565,0.473,0.975,0.473c0.367,0,0.694-0.099,0.979-0.295c0.285-0.196,0.559-0.474,0.821-0.833l0.323,0.238
			c-0.261,0.412-0.615,0.768-1.064,1.068S127.692,168.41,127.2,168.41z"/>
		<path fill="#981B1F" d="M133.954,167.458h-0.034c-0.174,0.14-0.341,0.268-0.499,0.385c-0.159,0.117-0.315,0.216-0.47,0.295
			c-0.182,0.091-0.345,0.156-0.494,0.195c-0.148,0.04-0.341,0.06-0.579,0.06c-0.363,0-0.645-0.105-0.846-0.315
			c-0.2-0.21-0.301-0.485-0.301-0.825c0-0.091,0.008-0.198,0.022-0.323c0.015-0.125,0.051-0.31,0.107-0.555l0.44-1.797
			c0.038-0.166,0.069-0.314,0.094-0.442c0.025-0.129,0.037-0.252,0.037-0.369c0-0.212-0.035-0.352-0.105-0.423
			c-0.07-0.071-0.212-0.105-0.427-0.105c-0.083,0-0.189,0.016-0.317,0.047c-0.128,0.032-0.227,0.057-0.3,0.077l0.085-0.366
			c0.295-0.134,0.555-0.234,0.78-0.303c0.225-0.069,0.405-0.103,0.542-0.103c0.303,0,0.525,0.071,0.666,0.213
			c0.141,0.142,0.213,0.343,0.213,0.604c0,0.068-0.008,0.161-0.022,0.278c-0.015,0.117-0.038,0.234-0.068,0.351l-0.5,2.098
			c-0.038,0.159-0.069,0.307-0.093,0.445c-0.024,0.138-0.037,0.243-0.037,0.315c0,0.254,0.055,0.454,0.164,0.601
			c0.109,0.147,0.284,0.222,0.522,0.222c0.242,0,0.49-0.063,0.745-0.19c0.255-0.127,0.511-0.318,0.767-0.576l0.987-4.27l0.989-0.068
			l0.068,0.085l-0.843,3.651c-0.038,0.155-0.072,0.311-0.102,0.467c-0.03,0.157-0.045,0.267-0.045,0.332
			c0,0.216,0.045,0.362,0.138,0.439s0.246,0.116,0.462,0.116c0.072,0,0.174-0.012,0.306-0.034c0.132-0.022,0.234-0.047,0.306-0.074
			l-0.085,0.363c-0.314,0.129-0.576,0.225-0.785,0.289c-0.21,0.064-0.404,0.097-0.582,0.097c-0.306,0-0.534-0.089-0.683-0.266
			C134.029,167.906,133.954,167.696,133.954,167.458z"/>
		<path fill="#981B1F" d="M139.148,168.41c-0.662,0-1.185-0.193-1.568-0.579c-0.383-0.386-0.576-0.935-0.576-1.646
			c0-0.473,0.073-0.926,0.219-1.36s0.348-0.819,0.61-1.155c0.261-0.337,0.59-0.612,0.989-0.825s0.842-0.321,1.33-0.321
			c0.541,0,0.951,0.114,1.233,0.343s0.423,0.517,0.423,0.865c0,0.261-0.061,0.49-0.184,0.686c-0.123,0.196-0.307,0.295-0.553,0.295
			c-0.204,0-0.357-0.051-0.46-0.153s-0.153-0.215-0.153-0.34c0-0.121,0.041-0.285,0.122-0.495s0.147-0.378,0.195-0.506
			c-0.042-0.102-0.135-0.176-0.278-0.223c-0.143-0.047-0.293-0.071-0.448-0.071c-0.514,0-0.957,0.3-1.33,0.899
			c-0.373,0.599-0.558,1.334-0.558,2.203c0,0.537,0.12,0.963,0.361,1.278c0.241,0.315,0.565,0.473,0.975,0.473
			c0.367,0,0.694-0.099,0.979-0.295c0.285-0.196,0.559-0.474,0.821-0.833l0.323,0.238c-0.261,0.412-0.615,0.768-1.064,1.068
			S139.638,168.41,139.148,168.41z"/>
		<path fill="#981B1F" d="M151.77,167.611l-0.085,0.363c-0.348,0.14-0.627,0.237-0.836,0.292c-0.208,0.055-0.387,0.082-0.535,0.082
			c-0.303,0-0.531-0.078-0.683-0.236c-0.152-0.157-0.227-0.35-0.227-0.582c0-0.083,0.007-0.175,0.022-0.275
			c0.015-0.101,0.04-0.219,0.075-0.355l0.56-2.117c0.042-0.163,0.075-0.311,0.1-0.443c0.024-0.133,0.037-0.239,0.037-0.318
			c0-0.254-0.054-0.454-0.164-0.602c-0.109-0.148-0.283-0.222-0.519-0.222c-0.253,0-0.499,0.06-0.742,0.179
			c-0.242,0.119-0.516,0.342-0.821,0.667l-0.995,4.206h-1.054l0.894-3.792c0.019-0.083,0.037-0.171,0.054-0.264
			s0.025-0.162,0.025-0.207c0-0.246-0.061-0.439-0.183-0.579c-0.122-0.14-0.301-0.21-0.538-0.21c-0.214,0-0.451,0.054-0.709,0.162
			c-0.259,0.107-0.56,0.349-0.902,0.724l-0.969,4.166h-1.06l0.851-3.678c0.03-0.133,0.06-0.274,0.088-0.426
			c0.028-0.151,0.043-0.28,0.043-0.386c0-0.22-0.037-0.364-0.108-0.435c-0.072-0.071-0.213-0.105-0.422-0.105
			c-0.083,0-0.191,0.016-0.322,0.047c-0.131,0.032-0.232,0.057-0.305,0.077l0.085-0.366c0.296-0.134,0.558-0.232,0.787-0.297
			c0.227-0.065,0.424-0.098,0.586-0.098c0.304,0,0.52,0.082,0.646,0.247c0.128,0.165,0.195,0.389,0.202,0.673h0.034
			c0.445-0.352,0.811-0.604,1.098-0.755c0.287-0.152,0.629-0.227,1.026-0.227c0.336,0,0.609,0.098,0.819,0.292
			c0.209,0.195,0.327,0.44,0.354,0.735H148c0.404-0.337,0.762-0.592,1.076-0.766c0.315-0.174,0.68-0.261,1.098-0.261
			c0.362,0,0.639,0.105,0.832,0.315c0.195,0.21,0.291,0.485,0.291,0.826c0,0.068-0.011,0.189-0.031,0.363
			c-0.02,0.174-0.054,0.345-0.1,0.517l-0.478,1.822c-0.034,0.121-0.066,0.26-0.097,0.417c-0.031,0.157-0.045,0.28-0.045,0.366
			c0,0.216,0.045,0.363,0.136,0.44s0.244,0.116,0.46,0.116c0.072,0,0.176-0.01,0.313-0.028
			C151.592,167.657,151.697,167.637,151.77,167.611z"/>
		<path fill="#981B1F" d="M157.355,163.706c0,0.402-0.126,0.746-0.377,1.034c-0.252,0.287-0.617,0.517-1.097,0.687
			c-0.351,0.129-0.706,0.233-1.066,0.313c-0.359,0.08-0.756,0.146-1.19,0.199c0,0.597,0.11,1.054,0.332,1.369
			c0.222,0.315,0.545,0.473,0.973,0.473c0.378,0,0.711-0.095,1.001-0.284c0.289-0.189,0.574-0.47,0.854-0.845l0.323,0.238
			c-0.303,0.462-0.68,0.829-1.134,1.106c-0.454,0.277-0.924,0.414-1.412,0.414c-0.669,0-1.181-0.187-1.534-0.562
			s-0.53-0.907-0.53-1.595c0-0.477,0.075-0.932,0.224-1.365c0.149-0.434,0.368-0.829,0.655-1.189
			c0.28-0.351,0.623-0.636,1.029-0.851c0.406-0.216,0.855-0.323,1.347-0.323c0.545,0,0.947,0.11,1.211,0.332
			S157.355,163.362,157.355,163.706z M156.312,163.567c0-0.147-0.02-0.263-0.062-0.347c-0.042-0.085-0.095-0.148-0.159-0.19
			c-0.068-0.045-0.14-0.074-0.216-0.085s-0.153-0.017-0.232-0.017c-0.454,0-0.872,0.249-1.256,0.747
			c-0.383,0.497-0.626,1.118-0.729,1.861c0.264-0.038,0.563-0.092,0.896-0.162c0.333-0.07,0.609-0.162,0.827-0.275
			c0.314-0.162,0.547-0.371,0.701-0.625S156.312,163.917,156.312,163.567z"/>
		<path fill="#981B1F" d="M161.081,168.161c-0.087-0.979-0.165-1.755-0.235-2.325c-0.07-0.57-0.177-1.21-0.32-1.916h-0.057
			c-0.155,0.847-0.347,1.552-0.579,2.117c-0.231,0.565-0.472,1.02-0.726,1.364c-0.238,0.329-0.471,0.571-0.701,0.726
			s-0.419,0.232-0.57,0.232c-0.212,0-0.361-0.059-0.448-0.176c-0.087-0.117-0.131-0.262-0.131-0.436
			c0-0.147,0.055-0.291,0.165-0.431c0.109-0.139,0.262-0.21,0.46-0.21c0.102,0,0.214,0.022,0.335,0.068
			c0.121,0.046,0.244,0.102,0.369,0.17c0.412-0.507,0.745-1.167,0.998-1.978c0.254-0.812,0.403-1.553,0.448-2.223h-0.987
			l0.113-0.403l1.863-0.113c0.19,0.62,0.355,1.265,0.496,1.934c0.14,0.669,0.245,1.405,0.314,2.208l2.635-4.063l1.026-0.091
			l0.068,0.085l-0.821,3.651c-0.026,0.113-0.056,0.257-0.088,0.431c-0.032,0.173-0.048,0.297-0.048,0.369
			c0,0.216,0.047,0.362,0.141,0.439s0.249,0.116,0.465,0.116c0.072,0,0.172-0.013,0.303-0.037c0.13-0.024,0.231-0.05,0.303-0.076
			l-0.085,0.363c-0.34,0.136-0.598,0.235-0.775,0.298c-0.178,0.062-0.363,0.094-0.555,0.094c-0.302,0-0.524-0.078-0.666-0.235
			c-0.141-0.157-0.212-0.35-0.212-0.582c0-0.091,0.006-0.182,0.017-0.272c0.012-0.09,0.034-0.216,0.068-0.375l0.739-3.107
			l-0.059-0.022l-2.901,4.406L161.081,168.161L161.081,168.161z"/>
		<path fill="#981B1F" d="M170.24,167.429h-0.034c-0.348,0.291-0.679,0.52-0.993,0.686c-0.315,0.166-0.672,0.25-1.072,0.25
			c-0.363,0-0.65-0.105-0.862-0.315s-0.317-0.485-0.317-0.825c0-0.091,0.008-0.198,0.022-0.323c0.015-0.125,0.051-0.31,0.107-0.555
			l0.441-1.769c0.042-0.17,0.074-0.318,0.097-0.445s0.034-0.249,0.034-0.366c0-0.212-0.035-0.352-0.105-0.423
			s-0.213-0.105-0.428-0.105c-0.083,0-0.189,0.016-0.317,0.047c-0.129,0.031-0.228,0.057-0.3,0.077l0.085-0.366
			c0.295-0.134,0.555-0.234,0.78-0.303c0.225-0.069,0.406-0.103,0.542-0.103c0.303,0,0.526,0.068,0.672,0.204
			c0.145,0.136,0.219,0.341,0.219,0.613c0,0.068-0.008,0.161-0.022,0.278c-0.015,0.117-0.038,0.234-0.068,0.351l-0.515,2.07
			c-0.038,0.159-0.07,0.307-0.097,0.445c-0.027,0.138-0.04,0.243-0.04,0.315c0,0.254,0.061,0.454,0.185,0.601
			c0.123,0.147,0.304,0.222,0.543,0.222c0.277,0,0.546-0.068,0.809-0.204s0.51-0.323,0.741-0.561l0.937-4.242l0.979-0.068
			l0.068,0.085l-0.975,4.44c-0.144,0.65-0.328,1.206-0.551,1.667c-0.223,0.462-0.484,0.833-0.783,1.117
			c-0.314,0.299-0.652,0.514-1.015,0.646c-0.363,0.133-0.777,0.198-1.242,0.198c-0.321,0-0.577-0.022-0.765-0.068
			c-0.189-0.046-0.339-0.107-0.448-0.187c-0.109-0.075-0.183-0.161-0.222-0.255c-0.039-0.095-0.057-0.189-0.057-0.284
			c0-0.163,0.049-0.306,0.147-0.431c0.098-0.125,0.24-0.187,0.426-0.187c0.14,0,0.259,0.04,0.357,0.119
			c0.098,0.079,0.178,0.166,0.238,0.261c0.068,0.102,0.131,0.218,0.187,0.345s0.102,0.23,0.136,0.306h0.136
			c0.216,0,0.443-0.053,0.683-0.159c0.24-0.105,0.461-0.27,0.661-0.494c0.216-0.242,0.409-0.554,0.582-0.936
			C170,168.42,170.138,167.962,170.24,167.429z"/>
		<path fill="#981B1F" d="M181.987,167.594l-0.085,0.363c-0.342,0.136-0.607,0.235-0.796,0.298c-0.19,0.062-0.381,0.094-0.575,0.094
			c-0.303,0-0.531-0.078-0.683-0.236c-0.152-0.157-0.227-0.35-0.227-0.582c0-0.083,0.007-0.175,0.022-0.275
			c0.015-0.101,0.04-0.219,0.075-0.355l0.56-2.117c0.042-0.163,0.075-0.311,0.1-0.443c0.024-0.133,0.037-0.239,0.037-0.318
			c0-0.254-0.06-0.454-0.181-0.602c-0.12-0.148-0.298-0.222-0.534-0.222c-0.228,0-0.486,0.075-0.77,0.227
			c-0.285,0.152-0.553,0.371-0.804,0.659l-0.969,4.166h-1.06l0.851-3.678c0.019-0.091,0.046-0.222,0.082-0.395
			c0.036-0.172,0.054-0.311,0.054-0.417c0-0.212-0.037-0.353-0.108-0.426c-0.072-0.072-0.217-0.107-0.433-0.107
			c-0.083,0-0.19,0.015-0.319,0.043c-0.129,0.028-0.229,0.052-0.302,0.071l0.085-0.363c0.296-0.133,0.558-0.23,0.787-0.295
			c0.227-0.064,0.424-0.097,0.586-0.097c0.301,0,0.515,0.081,0.645,0.244c0.13,0.163,0.198,0.387,0.205,0.675h0.034
			c0.414-0.333,0.771-0.58,1.073-0.74c0.302-0.162,0.645-0.242,1.029-0.242c0.362,0,0.644,0.105,0.848,0.315
			c0.203,0.21,0.304,0.485,0.304,0.826c0,0.068-0.01,0.189-0.03,0.363c-0.02,0.174-0.055,0.345-0.101,0.517l-0.476,1.822
			c-0.035,0.121-0.068,0.26-0.1,0.417c-0.032,0.157-0.048,0.28-0.048,0.366c0,0.216,0.047,0.363,0.141,0.44
			c0.095,0.077,0.25,0.116,0.465,0.116c0.072,0,0.175-0.013,0.309-0.037C181.813,167.646,181.915,167.621,181.987,167.594z"/>
		<path fill="#981B1F" d="M188.178,164.755c0,0.447-0.075,0.893-0.226,1.339c-0.151,0.446-0.371,0.838-0.658,1.175
			c-0.291,0.347-0.641,0.627-1.051,0.837c-0.41,0.21-0.886,0.315-1.427,0.315c-0.627,0-1.136-0.202-1.527-0.607
			s-0.587-0.949-0.587-1.635c0-0.504,0.083-0.973,0.25-1.408c0.166-0.435,0.389-0.817,0.669-1.147
			c0.284-0.329,0.635-0.595,1.053-0.797c0.418-0.202,0.869-0.304,1.357-0.304c0.673,0,1.2,0.205,1.58,0.615
			S188.178,164.089,188.178,164.755z M187.022,164.539c0-0.537-0.095-0.941-0.285-1.21c-0.191-0.269-0.466-0.404-0.826-0.404
			c-0.314,0-0.609,0.097-0.886,0.289c-0.278,0.193-0.518,0.507-0.718,0.943c-0.155,0.329-0.268,0.696-0.341,1.098
			c-0.073,0.403-0.107,0.774-0.107,1.115c0,0.542,0.095,0.95,0.282,1.229s0.468,0.417,0.847,0.417c0.337,0,0.635-0.105,0.896-0.318
			c0.261-0.212,0.472-0.481,0.635-0.806c0.163-0.317,0.287-0.682,0.374-1.093C186.978,165.39,187.022,164.971,187.022,164.539z"/>
		<path fill="#981B1F" d="M197.33,163.137c0,0.654-0.068,1.31-0.204,1.97s-0.339,1.224-0.607,1.693
			c-0.314,0.548-0.684,0.955-1.113,1.222c-0.429,0.267-0.922,0.4-1.478,0.4c-0.666,0-1.192-0.213-1.584-0.639
			c-0.392-0.426-0.587-0.988-0.587-1.689c0-0.965,0.312-1.801,0.934-2.508c0.622-0.707,1.372-1.062,2.253-1.062
			c0.216,0,0.444,0.03,0.686,0.091c0.242,0.061,0.448,0.165,0.618,0.312c-0.038-0.89-0.216-1.591-0.535-2.1
			s-0.724-0.764-1.212-0.764c-0.17,0-0.321,0.016-0.456,0.048s-0.262,0.078-0.383,0.139c-0.083,0.042-0.166,0.097-0.25,0.165
			c-0.083,0.068-0.147,0.117-0.193,0.147l-0.226-0.266c0.272-0.276,0.555-0.482,0.849-0.618c0.293-0.136,0.616-0.204,0.972-0.204
			c0.351,0,0.676,0.074,0.975,0.222c0.299,0.148,0.565,0.378,0.799,0.692c0.234,0.314,0.418,0.692,0.548,1.134
			C197.266,161.964,197.33,162.501,197.33,163.137z M195.607,166.673c0.178-0.39,0.323-0.856,0.435-1.399
			c0.111-0.544,0.178-1.082,0.2-1.615c-0.178-0.265-0.363-0.453-0.557-0.565c-0.195-0.111-0.412-0.167-0.65-0.167
			c-0.585,0-1.083,0.346-1.493,1.038c-0.41,0.693-0.616,1.463-0.616,2.311c0,0.571,0.083,1.005,0.25,1.3
			c0.166,0.295,0.448,0.443,0.845,0.443c0.341,0,0.646-0.125,0.916-0.375C195.206,167.395,195.429,167.071,195.607,166.673z"/>
		<path fill="#981B1F" d="M201.483,167.502h-0.04c-0.083,0.068-0.182,0.155-0.298,0.258c-0.116,0.104-0.251,0.203-0.405,0.298
			c-0.147,0.095-0.307,0.177-0.481,0.247c-0.173,0.07-0.362,0.105-0.566,0.105c-0.547,0-0.977-0.196-1.288-0.59
			c-0.312-0.394-0.467-0.931-0.467-1.612c0-0.469,0.087-0.925,0.261-1.368c0.174-0.443,0.414-0.84,0.72-1.192
			c0.291-0.337,0.637-0.608,1.036-0.814c0.4-0.206,0.812-0.31,1.235-0.31c0.268,0,0.524,0.036,0.767,0.107
			c0.244,0.072,0.435,0.154,0.576,0.244l1.04-0.267l0.068,0.085l-0.864,3.662c-0.03,0.117-0.061,0.26-0.093,0.429
			c-0.032,0.168-0.049,0.292-0.049,0.372c0,0.216,0.045,0.362,0.136,0.437c0.091,0.075,0.245,0.113,0.462,0.113
			c0.072,0,0.174-0.012,0.306-0.034c0.132-0.022,0.234-0.047,0.306-0.074l-0.085,0.363c-0.341,0.136-0.594,0.234-0.762,0.295
			c-0.166,0.061-0.369,0.091-0.607,0.091c-0.274,0-0.49-0.079-0.648-0.238C201.585,167.951,201.498,167.748,201.483,167.502z
			 M202.3,163.914c0-0.125-0.014-0.244-0.04-0.357c-0.026-0.114-0.081-0.22-0.165-0.318c-0.075-0.095-0.18-0.17-0.312-0.227
			c-0.132-0.057-0.299-0.085-0.499-0.085c-0.276,0-0.545,0.091-0.806,0.273c-0.261,0.182-0.495,0.426-0.704,0.732
			c-0.197,0.287-0.358,0.636-0.483,1.045c-0.125,0.409-0.187,0.824-0.187,1.244c0,0.231,0.014,0.435,0.04,0.614
			s0.077,0.341,0.153,0.488c0.072,0.143,0.176,0.255,0.312,0.335s0.307,0.119,0.514,0.119c0.212,0,0.433-0.06,0.666-0.179
			c0.232-0.12,0.494-0.328,0.785-0.627L202.3,163.914z"/>
		<path fill="#981B1F" d="M206.607,165.059h2.268l0.561-2.376l0.987-0.068l0.068,0.085l-0.85,3.651
			c-0.026,0.109-0.058,0.253-0.094,0.428s-0.055,0.3-0.055,0.372c0,0.216,0.047,0.362,0.142,0.439
			c0.095,0.077,0.251,0.116,0.467,0.116c0.072,0,0.174-0.013,0.31-0.037c0.135-0.024,0.238-0.05,0.31-0.076l-0.085,0.363
			c-0.341,0.136-0.605,0.235-0.794,0.298c-0.19,0.062-0.381,0.094-0.574,0.094c-0.303,0-0.53-0.078-0.681-0.235
			c-0.151-0.157-0.226-0.35-0.226-0.582c0-0.083,0.009-0.175,0.025-0.275c0.016-0.1,0.041-0.224,0.071-0.372l0.317-1.372H206.5
			l-0.626,2.739h-1.061l0.85-3.674c0.026-0.121,0.055-0.26,0.085-0.417c0.03-0.157,0.045-0.288,0.045-0.394
			c0-0.212-0.035-0.352-0.105-0.423c-0.07-0.071-0.214-0.105-0.429-0.105c-0.084,0-0.191,0.016-0.319,0.047
			c-0.13,0.032-0.229,0.057-0.303,0.077l0.086-0.366c0.296-0.134,0.556-0.234,0.783-0.303s0.407-0.103,0.544-0.103
			c0.304,0,0.527,0.071,0.669,0.213c0.141,0.142,0.214,0.343,0.214,0.604c0,0.061-0.008,0.152-0.022,0.275
			c-0.015,0.123-0.04,0.258-0.074,0.405L206.607,165.059z"/>
		<path fill="#981B1F" d="M213.44,165.059h2.268l0.561-2.376l0.987-0.068l0.068,0.085l-0.849,3.651
			c-0.028,0.109-0.059,0.253-0.095,0.428c-0.036,0.175-0.055,0.3-0.055,0.372c0,0.216,0.047,0.362,0.141,0.439
			c0.097,0.077,0.252,0.116,0.468,0.116c0.072,0,0.176-0.013,0.31-0.037c0.134-0.024,0.238-0.05,0.31-0.076l-0.085,0.363
			c-0.341,0.136-0.605,0.235-0.794,0.298c-0.189,0.063-0.38,0.094-0.575,0.094c-0.303,0-0.529-0.078-0.68-0.235
			c-0.151-0.157-0.226-0.35-0.226-0.582c0-0.083,0.008-0.175,0.024-0.275c0.016-0.1,0.042-0.224,0.072-0.372l0.317-1.372h-2.274
			l-0.627,2.739h-1.061l0.851-3.674c0.026-0.121,0.055-0.26,0.085-0.417c0.03-0.157,0.045-0.288,0.045-0.394
			c0-0.212-0.036-0.352-0.105-0.423c-0.07-0.071-0.214-0.105-0.429-0.105c-0.085,0-0.191,0.016-0.319,0.047
			c-0.129,0.031-0.23,0.057-0.303,0.077l0.085-0.366c0.297-0.134,0.557-0.234,0.783-0.303c0.226-0.069,0.408-0.103,0.545-0.103
			c0.304,0,0.527,0.071,0.669,0.213c0.141,0.142,0.214,0.343,0.214,0.604c0,0.061-0.008,0.152-0.022,0.275
			c-0.015,0.123-0.04,0.258-0.074,0.405L213.44,165.059z"/>
		<path fill="#981B1F" d="M223.715,164.755c0,0.447-0.075,0.893-0.226,1.339c-0.151,0.446-0.371,0.838-0.658,1.175
			c-0.291,0.347-0.641,0.627-1.051,0.837c-0.41,0.21-0.886,0.315-1.427,0.315c-0.627,0-1.136-0.202-1.527-0.607
			c-0.391-0.405-0.587-0.949-0.587-1.635c0-0.504,0.083-0.973,0.25-1.408c0.166-0.435,0.389-0.817,0.669-1.147
			c0.284-0.329,0.635-0.595,1.053-0.797c0.418-0.202,0.869-0.304,1.357-0.304c0.673,0,1.2,0.205,1.58,0.615
			S223.715,164.089,223.715,164.755z M222.558,164.539c0-0.537-0.095-0.941-0.285-1.21c-0.191-0.269-0.466-0.404-0.826-0.404
			c-0.314,0-0.609,0.097-0.886,0.289c-0.278,0.193-0.518,0.507-0.718,0.943c-0.155,0.329-0.268,0.696-0.341,1.098
			c-0.073,0.403-0.107,0.774-0.107,1.115c0,0.542,0.095,0.95,0.282,1.229s0.468,0.417,0.847,0.417c0.337,0,0.635-0.105,0.896-0.318
			c0.261-0.212,0.472-0.481,0.635-0.806c0.163-0.317,0.287-0.682,0.375-1.093C222.515,165.39,222.558,164.971,222.558,164.539z"/>
		<path fill="#981B1F" d="M228.105,167.458h-0.034c-0.174,0.14-0.341,0.268-0.499,0.385c-0.159,0.117-0.315,0.216-0.47,0.295
			c-0.183,0.091-0.347,0.156-0.495,0.195c-0.148,0.04-0.341,0.06-0.579,0.06c-0.363,0-0.645-0.105-0.845-0.315
			s-0.301-0.485-0.301-0.825c0-0.091,0.008-0.198,0.022-0.323s0.051-0.31,0.107-0.555l0.44-1.797
			c0.038-0.166,0.068-0.314,0.093-0.442c0.025-0.129,0.038-0.252,0.038-0.369c0-0.212-0.036-0.352-0.104-0.423
			c-0.07-0.07-0.214-0.105-0.429-0.105c-0.081,0-0.187,0.016-0.315,0.047c-0.129,0.031-0.228,0.057-0.301,0.077l0.085-0.366
			c0.295-0.134,0.555-0.234,0.781-0.303c0.225-0.069,0.405-0.103,0.541-0.103c0.303,0,0.525,0.071,0.667,0.213
			c0.141,0.142,0.212,0.343,0.212,0.604c0,0.068-0.008,0.161-0.022,0.278c-0.015,0.117-0.038,0.234-0.068,0.351l-0.501,2.098
			c-0.036,0.159-0.068,0.307-0.093,0.445c-0.025,0.138-0.036,0.243-0.036,0.315c0,0.254,0.055,0.454,0.165,0.601
			c0.109,0.147,0.282,0.222,0.52,0.222c0.242,0,0.492-0.063,0.745-0.19c0.255-0.127,0.512-0.318,0.769-0.576l0.987-4.27l0.988-0.068
			l0.068,0.085l-0.843,3.651c-0.038,0.155-0.072,0.311-0.102,0.467c-0.03,0.157-0.045,0.267-0.045,0.332
			c0,0.216,0.047,0.362,0.14,0.439s0.246,0.116,0.462,0.116c0.072,0,0.174-0.012,0.306-0.034c0.131-0.022,0.232-0.047,0.304-0.074
			l-0.085,0.363c-0.314,0.129-0.575,0.225-0.785,0.289c-0.21,0.065-0.405,0.097-0.583,0.097c-0.306,0-0.533-0.089-0.682-0.266
			C228.179,167.906,228.105,167.696,228.105,167.458z M228.982,160.668c0.143-0.16,0.266-0.335,0.367-0.526
			c0.101-0.192,0.185-0.395,0.257-0.612l0.357,0.193c-0.068,0.261-0.168,0.513-0.303,0.757c-0.135,0.244-0.301,0.457-0.497,0.638
			c-0.208,0.189-0.431,0.336-0.669,0.439c-0.238,0.104-0.525,0.156-0.862,0.156c-0.438,0-0.773-0.095-1.005-0.284
			c-0.232-0.189-0.349-0.431-0.349-0.726c0-0.234,0.068-0.417,0.202-0.547c0.135-0.13,0.293-0.195,0.478-0.195
			c0.133,0,0.242,0.039,0.329,0.117s0.131,0.191,0.131,0.339c0,0.13-0.024,0.251-0.074,0.365c-0.049,0.114-0.095,0.211-0.136,0.29
			c0.087,0.049,0.178,0.082,0.27,0.1c0.092,0.017,0.191,0.025,0.297,0.025c0.25,0,0.476-0.046,0.678-0.139
			C228.655,160.965,228.831,160.836,228.982,160.668z"/>
		<path fill="#981B1F" d="M236.099,168.41c-0.662,0-1.184-0.193-1.567-0.579c-0.383-0.386-0.577-0.935-0.577-1.646
			c0-0.473,0.074-0.926,0.22-1.36s0.347-0.819,0.609-1.155c0.261-0.337,0.591-0.612,0.99-0.825s0.841-0.321,1.329-0.321
			c0.541,0,0.952,0.114,1.234,0.343c0.282,0.228,0.422,0.517,0.422,0.865c0,0.261-0.061,0.49-0.183,0.686
			c-0.122,0.196-0.308,0.295-0.554,0.295c-0.204,0-0.357-0.051-0.46-0.153s-0.153-0.215-0.153-0.34c0-0.121,0.042-0.285,0.123-0.495
			c0.081-0.209,0.147-0.378,0.195-0.506c-0.042-0.102-0.135-0.176-0.278-0.223c-0.143-0.047-0.293-0.071-0.448-0.071
			c-0.514,0-0.956,0.3-1.329,0.899c-0.373,0.599-0.559,1.334-0.559,2.203c0,0.537,0.121,0.963,0.361,1.278s0.565,0.473,0.974,0.473
			c0.369,0,0.694-0.099,0.981-0.295c0.285-0.196,0.559-0.474,0.821-0.833l0.323,0.238c-0.261,0.412-0.615,0.768-1.063,1.068
			S236.591,168.41,236.099,168.41z"/>
		<path fill="#981B1F" d="M241.366,168.41c-0.662,0-1.184-0.193-1.567-0.579c-0.383-0.386-0.577-0.935-0.577-1.646
			c0-0.473,0.074-0.926,0.22-1.36s0.347-0.819,0.609-1.155c0.261-0.337,0.591-0.612,0.99-0.825s0.841-0.321,1.329-0.321
			c0.541,0,0.952,0.114,1.234,0.343s0.422,0.517,0.422,0.865c0,0.261-0.061,0.49-0.183,0.686c-0.122,0.196-0.308,0.295-0.554,0.295
			c-0.204,0-0.357-0.051-0.46-0.153s-0.153-0.215-0.153-0.34c0-0.121,0.042-0.285,0.123-0.495c0.081-0.209,0.147-0.378,0.195-0.506
			c-0.042-0.102-0.135-0.176-0.278-0.223c-0.143-0.047-0.293-0.071-0.448-0.071c-0.514,0-0.956,0.3-1.329,0.899
			c-0.373,0.599-0.559,1.334-0.559,2.203c0,0.537,0.121,0.963,0.361,1.278s0.565,0.473,0.974,0.473c0.369,0,0.694-0.099,0.981-0.295
			c0.285-0.196,0.559-0.474,0.821-0.833l0.323,0.238c-0.261,0.412-0.615,0.768-1.063,1.068S241.858,168.41,241.366,168.41z"/>
		<path fill="#981B1F" d="M249.402,166.255c0,0.639-0.257,1.159-0.773,1.562c-0.516,0.403-1.208,0.604-2.074,0.604
			c-0.541,0-0.952-0.108-1.236-0.326c-0.284-0.218-0.425-0.517-0.425-0.899c0-0.091,0.006-0.192,0.017-0.303
			c0.012-0.111,0.047-0.286,0.107-0.525l0.494-1.832c0.038-0.151,0.074-0.305,0.107-0.463c0.034-0.158,0.051-0.281,0.051-0.372
			c0-0.2-0.038-0.335-0.113-0.403c-0.076-0.068-0.222-0.102-0.436-0.102c-0.083,0-0.193,0.014-0.331,0.04
			c-0.138,0.026-0.244,0.049-0.315,0.068l0.085-0.363c0.299-0.133,0.565-0.23,0.799-0.295s0.42-0.097,0.555-0.097
			c0.31,0,0.531,0.073,0.662,0.219c0.131,0.146,0.195,0.343,0.195,0.592c0,0.075-0.008,0.17-0.024,0.284
			c-0.016,0.113-0.044,0.23-0.077,0.351l-0.28,0.975c0.105-0.015,0.261-0.036,0.465-0.062s0.378-0.04,0.522-0.04
			c0.645,0,1.142,0.117,1.497,0.351C249.225,165.458,249.402,165.802,249.402,166.255z M248.234,166.306
			c0-0.337-0.093-0.594-0.278-0.774s-0.436-0.269-0.756-0.269c-0.166,0-0.339,0.018-0.52,0.054c-0.18,0.036-0.306,0.063-0.382,0.082
			l-0.234,0.89c-0.034,0.121-0.066,0.272-0.095,0.454c-0.029,0.182-0.044,0.329-0.044,0.442c0,0.291,0.081,0.503,0.242,0.635
			c0.161,0.132,0.353,0.198,0.577,0.198c0.293,0,0.535-0.061,0.732-0.182c0.195-0.121,0.345-0.266,0.452-0.436
			c0.102-0.163,0.18-0.343,0.23-0.539S248.234,166.481,248.234,166.306z M252.367,167.594l-0.085,0.363
			c-0.341,0.136-0.603,0.235-0.79,0.298c-0.187,0.063-0.378,0.094-0.571,0.094c-0.303,0-0.527-0.078-0.674-0.235
			c-0.147-0.157-0.222-0.35-0.222-0.582c0-0.091,0.008-0.18,0.02-0.266c0.013-0.086,0.036-0.214,0.07-0.38l0.924-4.202l1-0.068
			l0.068,0.097l-0.829,3.641c-0.026,0.113-0.057,0.258-0.091,0.434s-0.051,0.298-0.051,0.366c0,0.216,0.049,0.362,0.145,0.439
			s0.252,0.116,0.466,0.116c0.072,0,0.176-0.013,0.31-0.037C252.19,167.647,252.295,167.621,252.367,167.594z"/>
		<path fill="#981B1F" d="M258.797,167.956c-0.341,0.136-0.603,0.235-0.788,0.298c-0.185,0.063-0.375,0.094-0.567,0.094
			c-0.303,0-0.529-0.078-0.678-0.236c-0.149-0.157-0.223-0.35-0.223-0.582c0-0.083,0.008-0.175,0.022-0.275
			c0.015-0.101,0.04-0.219,0.074-0.355l0.569-2.214c0.091-0.363,0.159-0.651,0.204-0.863c0.045-0.212,0.068-0.38,0.068-0.505
			c0-0.064-0.062-0.135-0.189-0.213c-0.127-0.077-0.268-0.116-0.427-0.116c-0.337,0-0.631,0.185-0.888,0.554
			c-0.257,0.369-0.531,0.985-0.825,1.847c-0.113,0.341-0.248,0.695-0.399,1.062c-0.151,0.367-0.31,0.683-0.476,0.947
			c-0.189,0.299-0.385,0.533-0.589,0.704c-0.204,0.17-0.435,0.255-0.692,0.255c-0.195,0-0.343-0.06-0.446-0.179
			c-0.104-0.119-0.157-0.263-0.157-0.434c0-0.147,0.055-0.293,0.165-0.436c0.109-0.143,0.262-0.216,0.46-0.216
			c0.102,0,0.208,0.021,0.317,0.065s0.226,0.1,0.351,0.167c0.166-0.17,0.343-0.483,0.527-0.94c0.185-0.456,0.319-0.811,0.403-1.065
			c0.099-0.299,0.218-0.625,0.357-0.979c0.139-0.354,0.297-0.656,0.47-0.906c0.193-0.276,0.435-0.497,0.724-0.664
			c0.289-0.166,0.641-0.25,1.057-0.25c0.412,0,0.737,0.068,0.975,0.204s0.357,0.301,0.357,0.494c0,0.105-0.02,0.27-0.064,0.494
			c-0.044,0.223-0.093,0.43-0.145,0.618l-0.539,2.032c-0.034,0.121-0.068,0.26-0.102,0.417c-0.034,0.157-0.051,0.28-0.051,0.366
			c0,0.216,0.047,0.363,0.143,0.44c0.096,0.077,0.254,0.116,0.468,0.116c0.072,0,0.176-0.013,0.31-0.037s0.236-0.05,0.308-0.076
			L258.797,167.956z"/>
		<path fill="#981B1F" d="M265.602,163.199c0,0.17-0.053,0.316-0.159,0.439c-0.105,0.123-0.259,0.184-0.46,0.184
			c-0.117,0-0.238-0.041-0.365-0.122c-0.127-0.081-0.262-0.192-0.406-0.332c-0.068,0.049-0.138,0.162-0.212,0.338
			c-0.074,0.176-0.149,0.338-0.224,0.485c-0.087,0.178-0.198,0.369-0.337,0.573c-0.138,0.204-0.308,0.371-0.508,0.499v0.051
			c0.238,0.113,0.416,0.252,0.531,0.414s0.198,0.397,0.252,0.704c0.008,0.049,0.022,0.133,0.046,0.25
			c0.023,0.117,0.042,0.225,0.057,0.323c0.038,0.226,0.115,0.406,0.23,0.539c0.115,0.133,0.308,0.198,0.581,0.198
			c0.102,0,0.225-0.015,0.369-0.045c0.144-0.03,0.248-0.057,0.312-0.079l-0.091,0.377c-0.385,0.15-0.664,0.246-0.835,0.289
			c-0.171,0.044-0.365,0.065-0.577,0.065c-0.242,0-0.452-0.071-0.631-0.213c-0.182-0.141-0.299-0.386-0.355-0.735
			c-0.019-0.113-0.038-0.242-0.057-0.385s-0.04-0.268-0.062-0.375c-0.072-0.385-0.161-0.643-0.268-0.771
			c-0.107-0.129-0.297-0.193-0.565-0.193c-0.218,0-0.341,0-0.371,0l-0.583,2.574h-1.061l0.851-3.675
			c0.026-0.121,0.055-0.26,0.085-0.417c0.03-0.157,0.045-0.288,0.045-0.394c0-0.212-0.036-0.352-0.105-0.423
			c-0.07-0.071-0.214-0.105-0.429-0.105c-0.085,0-0.191,0.016-0.319,0.047c-0.129,0.031-0.23,0.057-0.303,0.077l0.085-0.366
			c0.297-0.134,0.557-0.234,0.783-0.303c0.226-0.069,0.408-0.103,0.545-0.103c0.304,0,0.527,0.071,0.669,0.213
			c0.141,0.142,0.214,0.343,0.214,0.604c0,0.061-0.008,0.152-0.022,0.275c-0.015,0.123-0.04,0.258-0.074,0.405l-0.276,1.162h0.343
			c0.125,0,0.248-0.021,0.367-0.065c0.119-0.044,0.236-0.114,0.349-0.213c0.135-0.113,0.244-0.242,0.333-0.385
			c0.091-0.143,0.178-0.31,0.264-0.499c0.081-0.182,0.166-0.351,0.254-0.51s0.21-0.327,0.367-0.504
			c0.147-0.163,0.314-0.286,0.497-0.372c0.182-0.085,0.378-0.128,0.586-0.128c0.193,0,0.347,0.058,0.466,0.173
			C265.545,162.865,265.602,163.014,265.602,163.199z"/>
		<path fill="#981B1F" d="M270.745,163.706c0,0.402-0.125,0.746-0.376,1.034c-0.252,0.287-0.618,0.517-1.098,0.687
			c-0.351,0.129-0.706,0.233-1.066,0.313c-0.359,0.08-0.756,0.146-1.19,0.199c0,0.597,0.111,1.054,0.333,1.369
			s0.545,0.473,0.972,0.473c0.378,0,0.712-0.095,1.002-0.284c0.289-0.189,0.573-0.47,0.853-0.845l0.323,0.238
			c-0.303,0.462-0.68,0.829-1.134,1.106c-0.454,0.277-0.924,0.414-1.412,0.414c-0.669,0-1.18-0.187-1.533-0.562
			s-0.531-0.907-0.531-1.595c0-0.477,0.076-0.932,0.225-1.365s0.367-0.829,0.654-1.189c0.28-0.351,0.624-0.636,1.03-0.851
			c0.406-0.216,0.854-0.323,1.346-0.323c0.545,0,0.948,0.11,1.212,0.332C270.614,163.079,270.745,163.362,270.745,163.706z
			 M269.701,163.567c0-0.147-0.02-0.263-0.062-0.347c-0.042-0.085-0.095-0.148-0.159-0.19c-0.068-0.045-0.14-0.074-0.216-0.085
			c-0.075-0.012-0.153-0.017-0.232-0.017c-0.454,0-0.871,0.249-1.255,0.747c-0.383,0.497-0.627,1.118-0.73,1.861
			c0.264-0.038,0.563-0.092,0.896-0.162c0.333-0.07,0.609-0.162,0.827-0.275c0.314-0.162,0.548-0.371,0.702-0.625
			S269.701,163.917,269.701,163.567z"/>
		<path fill="#981B1F" d="M104.113,178.995h2.268l0.561-2.376l0.987-0.068l0.068,0.085l-0.85,3.651
			c-0.026,0.109-0.058,0.253-0.094,0.428c-0.036,0.175-0.054,0.3-0.054,0.372c0,0.216,0.047,0.362,0.142,0.439
			c0.095,0.077,0.251,0.116,0.467,0.116c0.072,0,0.175-0.013,0.311-0.037c0.135-0.024,0.238-0.05,0.311-0.076l-0.085,0.363
			c-0.341,0.136-0.606,0.235-0.795,0.298c-0.19,0.062-0.38,0.094-0.573,0.094c-0.303,0-0.529-0.078-0.681-0.235
			c-0.151-0.157-0.226-0.35-0.226-0.582c0-0.083,0.009-0.175,0.025-0.275c0.016-0.1,0.041-0.224,0.071-0.372l0.317-1.372h-2.274
			l-0.627,2.739h-1.06l0.849-3.675c0.026-0.121,0.055-0.26,0.085-0.417c0.03-0.157,0.045-0.288,0.045-0.394
			c0-0.212-0.035-0.352-0.105-0.423c-0.07-0.071-0.213-0.105-0.43-0.105c-0.083,0-0.19,0.016-0.319,0.047
			c-0.13,0.032-0.229,0.057-0.302,0.077l0.085-0.366c0.296-0.134,0.556-0.234,0.783-0.303c0.226-0.069,0.406-0.103,0.544-0.103
			c0.304,0,0.526,0.071,0.669,0.213c0.142,0.141,0.214,0.343,0.214,0.604c0,0.061-0.008,0.152-0.022,0.275
			c-0.015,0.123-0.04,0.258-0.074,0.405L104.113,178.995z"/>
		<path fill="#981B1F" d="M113.781,177.642c0,0.402-0.126,0.746-0.377,1.034c-0.252,0.287-0.617,0.517-1.097,0.687
			c-0.351,0.129-0.706,0.233-1.066,0.313c-0.359,0.08-0.756,0.146-1.19,0.199c0,0.597,0.11,1.054,0.332,1.369
			s0.545,0.473,0.973,0.473c0.378,0,0.711-0.095,1.001-0.284s0.574-0.47,0.854-0.845l0.323,0.238
			c-0.303,0.462-0.68,0.829-1.134,1.106s-0.924,0.414-1.412,0.414c-0.669,0-1.181-0.187-1.534-0.561
			c-0.353-0.375-0.53-0.907-0.53-1.595c0-0.477,0.075-0.932,0.224-1.365c0.149-0.434,0.368-0.829,0.655-1.189
			c0.28-0.351,0.623-0.636,1.029-0.851c0.406-0.216,0.855-0.323,1.347-0.323c0.545,0,0.947,0.11,1.211,0.332
			C113.65,177.015,113.781,177.297,113.781,177.642z M112.738,177.501c0-0.147-0.02-0.263-0.062-0.347
			c-0.042-0.085-0.095-0.148-0.159-0.19c-0.068-0.045-0.14-0.074-0.216-0.085c-0.075-0.012-0.153-0.017-0.232-0.017
			c-0.454,0-0.872,0.249-1.256,0.747c-0.383,0.497-0.626,1.118-0.729,1.861c0.264-0.038,0.563-0.092,0.896-0.162
			c0.333-0.07,0.609-0.162,0.827-0.275c0.314-0.162,0.547-0.371,0.701-0.625C112.663,178.154,112.738,177.853,112.738,177.501z"/>
		<path fill="#981B1F" d="M119.554,177.614c0,0.364-0.128,0.681-0.383,0.951s-0.645,0.468-1.171,0.594l-0.006,0.062
			c0.408,0.026,0.742,0.14,1.001,0.341c0.258,0.2,0.388,0.468,0.388,0.805c0,0.585-0.253,1.065-0.757,1.434
			c-0.504,0.37-1.186,0.555-2.044,0.555c-0.704,0-1.22-0.174-1.551-0.522c-0.331-0.348-0.496-0.849-0.496-1.499
			c0-0.533,0.068-1.032,0.204-1.495c0.136-0.464,0.341-0.875,0.613-1.235c0.264-0.347,0.605-0.626,1.021-0.834
			c0.416-0.208,0.886-0.313,1.412-0.313c0.257,0,0.487,0.02,0.689,0.062c0.202,0.042,0.388,0.112,0.558,0.21
			c0.163,0.095,0.29,0.213,0.383,0.355C119.507,177.229,119.554,177.405,119.554,177.614z M118.249,180.361
			c0-0.276-0.101-0.495-0.303-0.658c-0.202-0.163-0.534-0.244-0.995-0.244c-0.204,0-0.435,0.017-0.692,0.051
			c-0.257,0.034-0.452,0.062-0.585,0.085c-0.019,0.125-0.031,0.261-0.037,0.408c-0.006,0.147-0.009,0.27-0.009,0.369
			c0,0.295,0.035,0.545,0.105,0.748c0.07,0.203,0.158,0.367,0.263,0.488c0.105,0.117,0.228,0.204,0.369,0.261
			c0.14,0.057,0.282,0.085,0.425,0.085c0.268,0,0.498-0.049,0.689-0.147c0.191-0.098,0.343-0.228,0.457-0.391
			c0.105-0.151,0.184-0.318,0.235-0.502C118.223,180.731,118.249,180.546,118.249,180.361z M118.47,177.704
			c0-0.261-0.087-0.466-0.261-0.616s-0.395-0.225-0.664-0.225c-0.264,0-0.498,0.066-0.701,0.199
			c-0.202,0.134-0.381,0.32-0.536,0.563c-0.147,0.227-0.263,0.476-0.348,0.745c-0.085,0.269-0.156,0.54-0.213,0.813l1.037-0.113
			c0.337-0.038,0.618-0.101,0.845-0.188c0.226-0.087,0.401-0.19,0.522-0.307c0.117-0.117,0.199-0.247,0.247-0.389
			C118.447,178.042,118.47,177.883,118.47,177.704z"/>
		<path fill="#981B1F" d="M125.847,178.69c0,0.447-0.075,0.893-0.226,1.339c-0.151,0.446-0.371,0.838-0.658,1.175
			c-0.291,0.347-0.642,0.626-1.052,0.836c-0.41,0.211-0.885,0.315-1.426,0.315c-0.627,0-1.137-0.202-1.528-0.607
			c-0.391-0.406-0.586-0.95-0.586-1.635c0-0.504,0.083-0.973,0.25-1.408c0.166-0.435,0.389-0.817,0.669-1.147
			c0.284-0.329,0.634-0.595,1.052-0.797c0.418-0.202,0.87-0.304,1.358-0.304c0.673,0,1.199,0.205,1.579,0.615
			C125.657,177.484,125.847,178.024,125.847,178.69z M124.691,178.475c0-0.537-0.096-0.941-0.286-1.21s-0.465-0.404-0.825-0.404
			c-0.314,0-0.61,0.097-0.887,0.289c-0.278,0.193-0.517,0.507-0.717,0.943c-0.155,0.329-0.268,0.696-0.341,1.098
			c-0.073,0.403-0.107,0.774-0.107,1.115c0,0.542,0.094,0.95,0.281,1.229c0.187,0.279,0.469,0.418,0.848,0.418
			c0.337,0,0.635-0.105,0.896-0.317c0.261-0.212,0.472-0.481,0.635-0.806c0.163-0.317,0.287-0.682,0.375-1.093
			C124.647,179.327,124.691,178.906,124.691,178.475z"/>
		<path fill="#981B1F" d="M131.308,177.769c0,0.147-0.026,0.296-0.079,0.445c-0.053,0.149-0.136,0.285-0.25,0.405
			c-0.125,0.136-0.273,0.253-0.445,0.348s-0.405,0.171-0.701,0.224l-0.022,0.074c0.143,0.008,0.291,0.03,0.442,0.068
			c0.151,0.038,0.289,0.099,0.414,0.182c0.133,0.087,0.238,0.194,0.317,0.32s0.119,0.296,0.119,0.507
			c0,0.597-0.27,1.079-0.811,1.446c-0.541,0.367-1.223,0.55-2.047,0.55c-0.597,0-1.066-0.116-1.406-0.348s-0.51-0.53-0.51-0.893
			c0-0.2,0.06-0.379,0.179-0.536c0.119-0.157,0.29-0.235,0.513-0.235c0.182,0,0.317,0.05,0.408,0.15
			c0.091,0.1,0.136,0.21,0.136,0.33c0,0.102-0.033,0.23-0.1,0.384c-0.067,0.154-0.124,0.283-0.173,0.384
			c0.072,0.09,0.196,0.173,0.375,0.248c0.178,0.075,0.393,0.113,0.646,0.113c0.454,0,0.839-0.147,1.156-0.441
			c0.317-0.294,0.476-0.671,0.476-1.131c0-0.28-0.094-0.488-0.281-0.625c-0.187-0.137-0.453-0.206-0.796-0.206h-0.675l0.107-0.504
			h0.704c0.226,0,0.42-0.039,0.579-0.116s0.28-0.169,0.363-0.275c0.087-0.105,0.149-0.216,0.187-0.329
			c0.038-0.113,0.057-0.218,0.057-0.312c0-0.261-0.082-0.475-0.247-0.644c-0.165-0.168-0.407-0.253-0.729-0.253
			c-0.351,0-0.685,0.092-1.001,0.275c-0.315,0.183-0.623,0.464-0.921,0.842l-0.335-0.238c0.284-0.454,0.64-0.821,1.068-1.1
			c0.429-0.28,0.912-0.42,1.449-0.42c0.589,0,1.042,0.12,1.358,0.36C131.15,177.057,131.308,177.376,131.308,177.769z"/>
		<path fill="#981B1F" d="M135.226,182.096c-0.087-0.979-0.165-1.755-0.235-2.325c-0.07-0.57-0.177-1.21-0.32-1.916h-0.057
			c-0.155,0.847-0.347,1.552-0.579,2.117c-0.231,0.565-0.472,1.02-0.726,1.364c-0.238,0.329-0.471,0.571-0.701,0.726
			c-0.229,0.155-0.419,0.232-0.57,0.232c-0.212,0-0.361-0.059-0.448-0.176c-0.087-0.117-0.131-0.262-0.131-0.436
			c0-0.147,0.055-0.291,0.165-0.431c0.109-0.139,0.262-0.21,0.46-0.21c0.102,0,0.214,0.022,0.335,0.068s0.244,0.102,0.369,0.17
			c0.412-0.507,0.745-1.167,0.998-1.978c0.254-0.812,0.403-1.553,0.448-2.223h-0.987l0.113-0.403l1.863-0.113
			c0.19,0.62,0.355,1.265,0.496,1.934c0.14,0.669,0.245,1.405,0.314,2.208l2.635-4.063l1.026-0.091l0.068,0.085l-0.821,3.651
			c-0.026,0.113-0.056,0.257-0.088,0.431c-0.032,0.173-0.048,0.297-0.048,0.369c0,0.216,0.047,0.362,0.141,0.439
			s0.249,0.116,0.465,0.116c0.072,0,0.172-0.013,0.303-0.037c0.13-0.024,0.231-0.05,0.303-0.076l-0.085,0.363
			c-0.34,0.136-0.598,0.235-0.775,0.298c-0.178,0.062-0.363,0.094-0.555,0.094c-0.302,0-0.524-0.078-0.666-0.235
			c-0.141-0.157-0.212-0.35-0.212-0.582c0-0.091,0.006-0.182,0.017-0.272c0.012-0.09,0.034-0.216,0.068-0.375l0.739-3.107
			l-0.059-0.022l-2.901,4.406L135.226,182.096L135.226,182.096z"/>
		<path fill="#981B1F" d="M146.175,178.69c0,0.447-0.075,0.893-0.226,1.339c-0.151,0.446-0.371,0.838-0.658,1.175
			c-0.291,0.347-0.642,0.626-1.052,0.836c-0.41,0.211-0.885,0.315-1.426,0.315c-0.627,0-1.137-0.202-1.528-0.607
			c-0.391-0.406-0.586-0.95-0.586-1.635c0-0.504,0.083-0.973,0.25-1.408c0.166-0.435,0.389-0.817,0.669-1.147
			c0.284-0.329,0.634-0.595,1.052-0.797s0.87-0.304,1.358-0.304c0.673,0,1.199,0.205,1.579,0.615
			C145.986,177.484,146.175,178.024,146.175,178.69z M145.019,178.475c0-0.537-0.096-0.941-0.286-1.21
			c-0.191-0.269-0.465-0.404-0.825-0.404c-0.314,0-0.61,0.097-0.887,0.289c-0.278,0.193-0.517,0.507-0.717,0.943
			c-0.155,0.329-0.268,0.696-0.341,1.098c-0.073,0.403-0.107,0.774-0.107,1.115c0,0.542,0.094,0.95,0.281,1.229
			c0.187,0.279,0.469,0.418,0.848,0.418c0.337,0,0.635-0.105,0.896-0.317s0.472-0.481,0.635-0.806
			c0.163-0.317,0.287-0.682,0.375-1.093C144.975,179.327,145.019,178.906,145.019,178.475z"/>
		<path fill="#981B1F" d="M157.052,177.129c0,0.174-0.054,0.315-0.162,0.425c-0.107,0.109-0.256,0.165-0.445,0.165
			c-0.166,0-0.324-0.06-0.473-0.179c-0.149-0.119-0.298-0.285-0.445-0.496c-0.45,0.208-0.79,0.598-1.021,1.171
			c-0.231,0.573-0.345,1.226-0.345,1.959c0,0.212,0.012,0.407,0.034,0.586c0.022,0.179,0.066,0.346,0.131,0.502
			c0.061,0.143,0.151,0.262,0.272,0.354s0.268,0.139,0.442,0.139c0.163,0,0.311-0.031,0.445-0.094
			c0.135-0.063,0.249-0.141,0.343-0.235c0.091-0.083,0.177-0.175,0.258-0.275c0.081-0.1,0.162-0.201,0.241-0.303l0.284,0.255
			c-0.299,0.412-0.602,0.722-0.91,0.93c-0.308,0.208-0.651,0.312-1.029,0.312c-0.499,0-0.877-0.187-1.134-0.561
			c-0.257-0.375-0.385-0.881-0.385-1.519c0-0.113,0.01-0.257,0.028-0.431c0.018-0.173,0.038-0.306,0.057-0.397h-0.96l-0.618,2.75
			h-1.03l0.633-2.739h-0.928c-0.226,0.869-0.621,1.57-1.183,2.101s-1.186,0.796-1.875,0.796c-0.261,0-0.453-0.057-0.576-0.17
			c-0.123-0.113-0.184-0.262-0.184-0.448c0-0.174,0.054-0.315,0.162-0.425s0.256-0.165,0.445-0.165c0.166,0,0.325,0.061,0.476,0.182
			c0.151,0.121,0.299,0.285,0.442,0.494c0.458-0.22,0.799-0.602,1.027-1.149c0.227-0.547,0.341-1.207,0.341-1.982
			c0-0.166-0.014-0.358-0.04-0.576c-0.026-0.218-0.068-0.388-0.125-0.513c-0.072-0.159-0.16-0.281-0.263-0.366
			c-0.104-0.085-0.255-0.128-0.451-0.128c-0.159,0-0.299,0.029-0.42,0.088c-0.121,0.059-0.242,0.139-0.363,0.241
			c-0.095,0.083-0.188,0.185-0.281,0.306c-0.093,0.121-0.167,0.212-0.224,0.272l-0.284-0.255c0.303-0.412,0.609-0.722,0.918-0.93
			c0.31-0.208,0.65-0.312,1.021-0.312c0.503,0,0.882,0.187,1.137,0.561s0.383,0.881,0.383,1.519c0,0.042-0.003,0.111-0.009,0.21
			s-0.011,0.166-0.015,0.204h0.968l0.552-2.387l0.958-0.068l0.068,0.085l-0.556,2.359h0.971c0.264-0.745,0.665-1.345,1.199-1.8
			c0.534-0.455,1.114-0.683,1.738-0.683c0.261,0,0.453,0.057,0.576,0.17C156.992,176.795,157.052,176.944,157.052,177.129z"/>
		<path fill="#981B1F" d="M162.183,177.642c0,0.402-0.126,0.746-0.377,1.034c-0.252,0.287-0.617,0.517-1.097,0.687
			c-0.351,0.129-0.706,0.233-1.066,0.313c-0.359,0.08-0.756,0.146-1.19,0.199c0,0.597,0.11,1.054,0.332,1.369
			c0.222,0.315,0.545,0.473,0.973,0.473c0.378,0,0.711-0.095,1.001-0.284s0.574-0.47,0.854-0.845l0.323,0.238
			c-0.303,0.462-0.68,0.829-1.134,1.106c-0.454,0.277-0.924,0.414-1.412,0.414c-0.669,0-1.181-0.187-1.534-0.561
			c-0.353-0.375-0.53-0.907-0.53-1.595c0-0.477,0.075-0.932,0.224-1.365c0.149-0.434,0.368-0.829,0.655-1.189
			c0.28-0.351,0.623-0.636,1.029-0.851c0.406-0.216,0.855-0.323,1.347-0.323c0.545,0,0.947,0.11,1.211,0.332
			C162.051,177.015,162.183,177.297,162.183,177.642z M161.14,177.501c0-0.147-0.02-0.263-0.062-0.347
			c-0.042-0.085-0.095-0.148-0.159-0.19c-0.068-0.045-0.14-0.074-0.216-0.085c-0.075-0.012-0.153-0.017-0.232-0.017
			c-0.454,0-0.872,0.249-1.256,0.747c-0.383,0.497-0.626,1.118-0.729,1.861c0.264-0.038,0.563-0.092,0.896-0.162
			s0.609-0.162,0.827-0.275c0.314-0.162,0.547-0.371,0.701-0.625S161.14,177.853,161.14,177.501z"/>
		<path fill="#981B1F" d="M164.825,178.995h2.268l0.561-2.376l0.987-0.068l0.068,0.085l-0.85,3.651
			c-0.026,0.109-0.058,0.253-0.094,0.428c-0.036,0.175-0.054,0.3-0.054,0.372c0,0.216,0.047,0.362,0.142,0.439
			s0.251,0.116,0.467,0.116c0.072,0,0.175-0.013,0.311-0.037c0.135-0.024,0.238-0.05,0.311-0.076l-0.085,0.363
			c-0.341,0.136-0.606,0.235-0.795,0.298c-0.19,0.062-0.38,0.094-0.573,0.094c-0.303,0-0.529-0.078-0.681-0.235
			c-0.151-0.157-0.226-0.35-0.226-0.582c0-0.083,0.009-0.175,0.025-0.275s0.041-0.224,0.071-0.372l0.317-1.372h-2.274l-0.627,2.739
			h-1.06l0.849-3.675c0.026-0.121,0.055-0.26,0.085-0.417c0.03-0.157,0.045-0.288,0.045-0.394c0-0.212-0.035-0.352-0.105-0.423
			c-0.07-0.071-0.213-0.105-0.43-0.105c-0.083,0-0.19,0.016-0.319,0.047c-0.13,0.032-0.229,0.057-0.302,0.077l0.085-0.366
			c0.296-0.134,0.556-0.234,0.783-0.303c0.226-0.069,0.406-0.103,0.544-0.103c0.304,0,0.526,0.071,0.669,0.213
			c0.142,0.141,0.214,0.343,0.214,0.604c0,0.061-0.008,0.152-0.022,0.275c-0.015,0.123-0.04,0.258-0.074,0.405L164.825,178.995z"/>
		<path fill="#981B1F" d="M171.568,181.535c0,0.212-0.076,0.392-0.229,0.542s-0.336,0.224-0.547,0.224s-0.394-0.075-0.547-0.224
			c-0.153-0.149-0.229-0.33-0.229-0.542s0.076-0.394,0.229-0.547s0.336-0.229,0.547-0.229s0.394,0.076,0.547,0.229
			S171.568,181.323,171.568,181.535z M173.025,174.497c0,0.068-0.012,0.158-0.034,0.269c-0.022,0.111-0.064,0.256-0.125,0.434
			c-0.178,0.537-0.396,1.172-0.655,1.905c-0.259,0.734-0.555,1.61-0.887,2.631h-0.442c0.129-0.873,0.262-1.881,0.4-3.025
			c0.137-1.144,0.227-1.815,0.269-2.016c0.049-0.23,0.16-0.416,0.332-0.555c0.172-0.139,0.362-0.21,0.57-0.21
			c0.182,0,0.322,0.053,0.423,0.159C172.975,174.195,173.025,174.332,173.025,174.497z"/>
		<path fill="#981B1F" d="M184.264,177.237c0,0.718-0.133,1.394-0.397,2.027c-0.264,0.634-0.611,1.175-1.037,1.625
			c-0.438,0.462-0.94,0.825-1.501,1.092s-1.142,0.4-1.743,0.4c-0.938,0-1.694-0.304-2.268-0.913
			c-0.575-0.609-0.862-1.39-0.862-2.342c0-0.734,0.133-1.415,0.397-2.044c0.264-0.629,0.609-1.173,1.032-1.631
			c0.427-0.465,0.925-0.831,1.494-1.1c0.569-0.269,1.154-0.403,1.755-0.403c0.922,0,1.674,0.298,2.257,0.893
			C183.973,175.437,184.264,176.234,184.264,177.237z M182.098,180.264c0.268-0.468,0.474-0.998,0.618-1.588
			c0.144-0.59,0.216-1.18,0.216-1.769c0-0.756-0.161-1.359-0.482-1.809s-0.794-0.675-1.418-0.675c-0.484,0-0.934,0.143-1.35,0.431
			s-0.779,0.708-1.089,1.265c-0.268,0.488-0.469,1.025-0.604,1.61c-0.135,0.585-0.201,1.138-0.201,1.656
			c0,0.794,0.164,1.412,0.491,1.854c0.327,0.442,0.795,0.664,1.403,0.664c0.518,0,0.983-0.155,1.395-0.465
			C181.489,181.128,181.83,180.737,182.098,180.264z"/>
		<path fill="#981B1F" d="M190.229,178.677c0,0.48-0.079,0.943-0.236,1.387c-0.157,0.444-0.38,0.832-0.671,1.165
			c-0.299,0.351-0.648,0.627-1.049,0.827c-0.401,0.2-0.866,0.301-1.395,0.301c-0.291,0-0.567-0.05-0.827-0.15
			c-0.26-0.1-0.486-0.255-0.675-0.463c-0.193-0.208-0.345-0.476-0.458-0.805s-0.166-0.712-0.166-1.151
			c0-0.575,0.091-1.217,0.272-1.928c0.181-0.71,0.41-1.351,0.686-1.922c0.109-0.23,0.246-0.457,0.408-0.677
			c0.163-0.221,0.343-0.413,0.539-0.576c0.22-0.178,0.452-0.316,0.698-0.417s0.55-0.162,0.913-0.184
			c0.272-0.015,0.539-0.03,0.801-0.045s0.482-0.03,0.656-0.045c0.163-0.012,0.314-0.056,0.456-0.134
			c0.142-0.077,0.304-0.217,0.486-0.417l0.289,0.233c-0.121,0.133-0.248,0.281-0.38,0.443s-0.262,0.309-0.391,0.437
			c-0.208,0.213-0.365,0.336-0.468,0.37c-0.104,0.034-0.299,0.059-0.585,0.074c-0.196,0.008-0.378,0.019-0.543,0.036
			c-0.165,0.016-0.344,0.029-0.541,0.036c-0.284,0.016-0.537,0.076-0.758,0.181c-0.221,0.105-0.424,0.246-0.609,0.419
			c-0.246,0.226-0.468,0.555-0.669,0.983c-0.2,0.429-0.361,0.888-0.482,1.38l0.079,0.017c0.284-0.488,0.633-0.873,1.049-1.156
			c0.416-0.284,0.875-0.425,1.378-0.425c0.692,0,1.23,0.196,1.616,0.589C190.039,177.454,190.229,177.993,190.229,178.677z
			 M188.551,180.855c0.178-0.344,0.308-0.716,0.393-1.116c0.085-0.4,0.129-0.824,0.129-1.269c0-0.525-0.097-0.922-0.287-1.192
			s-0.468-0.405-0.835-0.405c-0.371,0-0.698,0.114-0.979,0.343c-0.282,0.228-0.508,0.531-0.682,0.909
			c-0.151,0.317-0.268,0.675-0.349,1.076c-0.081,0.401-0.121,0.776-0.121,1.127c0,0.532,0.102,0.937,0.308,1.212
			c0.206,0.276,0.503,0.414,0.888,0.414c0.341,0,0.639-0.103,0.898-0.308C188.171,181.44,188.385,181.177,188.551,180.855z"/>
		<path fill="#981B1F" d="M196.926,178.628c0,0.507-0.089,0.988-0.266,1.442c-0.178,0.454-0.414,0.847-0.708,1.181
			c-0.328,0.368-0.684,0.64-1.067,0.818s-0.777,0.266-1.181,0.266c-0.325,0-0.591-0.04-0.799-0.119
			c-0.208-0.079-0.393-0.178-0.555-0.295l-0.332,1.485c-0.022,0.095-0.04,0.183-0.053,0.266c-0.014,0.083-0.02,0.149-0.02,0.198
			c0,0.102,0.038,0.183,0.111,0.244c0.074,0.061,0.157,0.104,0.252,0.131c0.095,0.03,0.2,0.053,0.317,0.068
			c0.117,0.015,0.223,0.026,0.317,0.034l-0.079,0.357h-3.126l0.079-0.357c0.121-0.008,0.234-0.017,0.341-0.028
			c0.106-0.011,0.206-0.03,0.301-0.057c0.117-0.034,0.21-0.098,0.28-0.19c0.07-0.094,0.121-0.207,0.151-0.343l1.184-5.222
			c0.03-0.143,0.059-0.288,0.085-0.434c0.026-0.146,0.04-0.272,0.04-0.377c0-0.212-0.033-0.354-0.1-0.426
			c-0.067-0.072-0.209-0.107-0.428-0.107c-0.083,0-0.188,0.016-0.316,0.048c-0.129,0.032-0.227,0.058-0.3,0.076l0.085-0.363
			c0.287-0.129,0.546-0.227,0.777-0.298c0.231-0.071,0.427-0.105,0.589-0.105c0.264,0,0.465,0.067,0.601,0.201
			c0.136,0.135,0.222,0.32,0.255,0.559h0.045c0.257-0.239,0.532-0.435,0.825-0.59c0.293-0.156,0.585-0.233,0.876-0.233
			c0.575,0,1.021,0.196,1.34,0.587C196.765,177.439,196.926,177.966,196.926,178.628z M195.157,180.973
			c0.193-0.311,0.341-0.664,0.444-1.059c0.104-0.395,0.157-0.815,0.157-1.257c0-0.201-0.019-0.403-0.055-0.605
			s-0.093-0.37-0.172-0.502c-0.083-0.147-0.196-0.262-0.341-0.344c-0.144-0.081-0.333-0.122-0.567-0.122
			c-0.174,0-0.366,0.053-0.576,0.159c-0.21,0.106-0.465,0.305-0.768,0.596l-0.724,3.219c0.026,0.216,0.142,0.417,0.348,0.604
			c0.205,0.188,0.455,0.282,0.745,0.282c0.299,0,0.578-0.087,0.838-0.261C194.746,181.508,194.972,181.271,195.157,180.973z"/>
		<path fill="#981B1F" d="M201.264,181.437h-0.04c-0.083,0.068-0.182,0.154-0.297,0.258c-0.115,0.105-0.25,0.204-0.405,0.299
			c-0.147,0.095-0.308,0.177-0.482,0.247c-0.174,0.07-0.363,0.105-0.566,0.105c-0.547,0-0.976-0.196-1.288-0.589
			c-0.312-0.394-0.466-0.931-0.466-1.612c0-0.469,0.087-0.925,0.261-1.368c0.173-0.443,0.413-0.84,0.718-1.192
			c0.291-0.337,0.637-0.608,1.037-0.814c0.401-0.206,0.813-0.31,1.235-0.31c0.268,0,0.525,0.036,0.768,0.107
			c0.244,0.072,0.435,0.154,0.575,0.244l1.041-0.267l0.068,0.085l-0.864,3.662c-0.03,0.117-0.062,0.26-0.095,0.429
			s-0.047,0.293-0.047,0.373c0,0.216,0.045,0.361,0.136,0.436c0.091,0.076,0.244,0.113,0.46,0.113c0.072,0,0.174-0.012,0.307-0.034
			c0.133-0.022,0.235-0.047,0.307-0.074l-0.085,0.363c-0.343,0.136-0.595,0.234-0.762,0.295c-0.166,0.061-0.37,0.091-0.609,0.091
			c-0.272,0-0.488-0.079-0.647-0.238C201.365,181.887,201.279,181.684,201.264,181.437z M202.081,177.85
			c0-0.125-0.014-0.244-0.04-0.357c-0.026-0.114-0.081-0.22-0.165-0.318c-0.075-0.095-0.18-0.17-0.312-0.227
			c-0.134-0.057-0.3-0.085-0.5-0.085c-0.276,0-0.545,0.091-0.805,0.273c-0.261,0.182-0.495,0.426-0.704,0.732
			c-0.196,0.287-0.357,0.636-0.482,1.045c-0.125,0.409-0.187,0.824-0.187,1.244c0,0.231,0.014,0.435,0.04,0.614
			s0.077,0.341,0.152,0.489c0.072,0.143,0.175,0.255,0.311,0.335s0.308,0.119,0.516,0.119c0.211,0,0.433-0.06,0.665-0.179
			c0.231-0.12,0.494-0.328,0.784-0.627L202.081,177.85z"/>
		<path fill="#981B1F" d="M213.852,181.546l-0.085,0.363c-0.349,0.14-0.629,0.237-0.837,0.292c-0.208,0.055-0.387,0.082-0.535,0.082
			c-0.304,0-0.531-0.078-0.682-0.236c-0.151-0.157-0.228-0.349-0.228-0.582c0-0.083,0.008-0.175,0.022-0.275s0.04-0.22,0.075-0.355
			l0.559-2.117c0.042-0.163,0.075-0.311,0.101-0.443c0.024-0.133,0.036-0.239,0.036-0.318c0-0.254-0.055-0.454-0.163-0.602
			c-0.109-0.148-0.284-0.222-0.52-0.222c-0.252,0-0.499,0.06-0.741,0.179c-0.244,0.119-0.516,0.342-0.821,0.667l-0.996,4.206h-1.053
			l0.894-3.792c0.019-0.083,0.036-0.171,0.053-0.264s0.026-0.162,0.026-0.207c0-0.246-0.061-0.439-0.183-0.579
			c-0.123-0.14-0.302-0.21-0.539-0.21c-0.214,0-0.45,0.054-0.708,0.162c-0.26,0.107-0.56,0.349-0.902,0.724l-0.97,4.166h-1.059
			l0.851-3.678c0.03-0.133,0.059-0.274,0.087-0.426c0.028-0.151,0.044-0.28,0.044-0.386c0-0.22-0.037-0.364-0.108-0.435
			c-0.072-0.071-0.213-0.105-0.422-0.105c-0.084,0-0.191,0.016-0.322,0.047c-0.131,0.032-0.232,0.057-0.304,0.077l0.085-0.366
			c0.297-0.134,0.558-0.232,0.787-0.297c0.228-0.065,0.424-0.098,0.587-0.098c0.304,0,0.52,0.082,0.646,0.247
			c0.128,0.165,0.195,0.389,0.202,0.673h0.034c0.446-0.352,0.812-0.604,1.098-0.755c0.287-0.152,0.629-0.227,1.027-0.227
			c0.336,0,0.609,0.098,0.819,0.292c0.209,0.195,0.327,0.44,0.353,0.735h0.022c0.403-0.337,0.762-0.592,1.075-0.766
			c0.314-0.174,0.68-0.261,1.098-0.261c0.361,0,0.639,0.105,0.833,0.315c0.193,0.21,0.291,0.485,0.291,0.826
			c0,0.068-0.012,0.189-0.032,0.363c-0.02,0.174-0.053,0.345-0.099,0.517l-0.478,1.822c-0.034,0.121-0.066,0.26-0.097,0.417
			c-0.031,0.157-0.045,0.28-0.045,0.367c0,0.216,0.045,0.362,0.136,0.439c0.091,0.077,0.244,0.116,0.46,0.116
			c0.072,0,0.176-0.01,0.314-0.028C213.676,181.595,213.78,181.573,213.852,181.546z"/>
		<path fill="#981B1F" d="M218.196,181.393h-0.034c-0.174,0.14-0.341,0.268-0.499,0.385c-0.159,0.117-0.315,0.216-0.47,0.295
			c-0.182,0.091-0.345,0.156-0.494,0.195c-0.148,0.04-0.341,0.06-0.579,0.06c-0.363,0-0.645-0.105-0.845-0.315
			c-0.2-0.21-0.301-0.485-0.301-0.825c0-0.091,0.008-0.198,0.022-0.323c0.015-0.125,0.051-0.31,0.107-0.555l0.44-1.797
			c0.036-0.166,0.068-0.314,0.093-0.442s0.036-0.252,0.036-0.369c0-0.212-0.034-0.352-0.104-0.423
			c-0.07-0.071-0.212-0.105-0.427-0.105c-0.083,0-0.189,0.016-0.317,0.047c-0.127,0.032-0.226,0.057-0.299,0.077l0.085-0.366
			c0.295-0.134,0.554-0.234,0.779-0.303c0.225-0.069,0.406-0.103,0.543-0.103c0.303,0,0.524,0.071,0.666,0.213
			s0.214,0.343,0.214,0.604c0,0.068-0.008,0.161-0.022,0.278c-0.015,0.117-0.038,0.234-0.068,0.351l-0.501,2.098
			c-0.038,0.159-0.068,0.307-0.093,0.445c-0.025,0.138-0.038,0.243-0.038,0.315c0,0.254,0.055,0.454,0.165,0.601
			s0.284,0.222,0.522,0.222c0.242,0,0.49-0.063,0.745-0.19s0.51-0.318,0.767-0.576l0.987-4.27l0.99-0.068l0.068,0.085l-0.843,3.651
			c-0.038,0.155-0.072,0.311-0.102,0.467c-0.03,0.157-0.045,0.267-0.045,0.332c0,0.216,0.045,0.362,0.138,0.439
			s0.248,0.116,0.462,0.116c0.072,0,0.174-0.012,0.306-0.034c0.132-0.022,0.234-0.047,0.306-0.074l-0.085,0.363
			c-0.314,0.129-0.577,0.225-0.787,0.289s-0.403,0.097-0.581,0.097c-0.306,0-0.533-0.089-0.682-0.266
			S218.196,181.632,218.196,181.393z"/>
		<path fill="#981B1F" d="M230.745,181.546l-0.085,0.363c-0.349,0.14-0.629,0.237-0.837,0.292c-0.208,0.055-0.387,0.082-0.535,0.082
			c-0.304,0-0.531-0.078-0.682-0.236c-0.151-0.157-0.228-0.349-0.228-0.582c0-0.083,0.008-0.175,0.022-0.275s0.04-0.22,0.075-0.355
			l0.559-2.117c0.042-0.163,0.075-0.311,0.101-0.443c0.024-0.133,0.036-0.239,0.036-0.318c0-0.254-0.055-0.454-0.163-0.602
			c-0.109-0.148-0.284-0.222-0.52-0.222c-0.252,0-0.499,0.06-0.741,0.179c-0.242,0.119-0.516,0.342-0.821,0.667l-0.996,4.206h-1.053
			l0.894-3.792c0.019-0.083,0.036-0.171,0.053-0.264c0.017-0.093,0.026-0.162,0.026-0.207c0-0.246-0.062-0.439-0.183-0.579
			c-0.123-0.14-0.303-0.21-0.539-0.21c-0.214,0-0.45,0.054-0.708,0.162c-0.259,0.107-0.559,0.349-0.902,0.724l-0.97,4.166h-1.059
			l0.851-3.678c0.03-0.133,0.059-0.274,0.087-0.426c0.028-0.151,0.044-0.28,0.044-0.386c0-0.22-0.036-0.364-0.107-0.435
			c-0.074-0.07-0.214-0.105-0.422-0.105c-0.085,0-0.193,0.016-0.323,0.047c-0.131,0.031-0.232,0.057-0.304,0.077l0.085-0.366
			c0.297-0.134,0.557-0.232,0.787-0.297c0.229-0.065,0.424-0.098,0.587-0.098c0.304,0,0.52,0.082,0.646,0.247
			c0.127,0.165,0.195,0.389,0.202,0.673h0.034c0.446-0.352,0.813-0.604,1.098-0.755c0.287-0.152,0.629-0.227,1.027-0.227
			c0.335,0,0.609,0.098,0.819,0.292s0.327,0.44,0.353,0.735h0.022c0.403-0.337,0.762-0.592,1.075-0.766
			c0.314-0.174,0.68-0.261,1.098-0.261c0.361,0,0.639,0.105,0.833,0.315c0.193,0.21,0.291,0.485,0.291,0.826
			c0,0.068-0.012,0.189-0.032,0.363c-0.02,0.174-0.053,0.345-0.099,0.517l-0.478,1.822c-0.034,0.121-0.066,0.26-0.097,0.417
			c-0.031,0.157-0.045,0.28-0.045,0.367c0,0.216,0.045,0.362,0.136,0.439c0.091,0.077,0.244,0.116,0.46,0.116
			c0.072,0,0.176-0.01,0.314-0.028C230.568,181.595,230.672,181.573,230.745,181.546z"/>
		<path fill="#981B1F" d="M236.329,177.642c0,0.402-0.127,0.746-0.378,1.034c-0.252,0.287-0.616,0.517-1.096,0.687
			c-0.351,0.129-0.706,0.233-1.066,0.313c-0.359,0.08-0.756,0.146-1.19,0.199c0,0.597,0.109,1.054,0.331,1.369
			s0.546,0.473,0.974,0.473c0.378,0,0.71-0.095,1-0.284c0.289-0.189,0.575-0.47,0.855-0.845l0.323,0.238
			c-0.303,0.462-0.68,0.829-1.134,1.106c-0.454,0.277-0.924,0.414-1.412,0.414c-0.669,0-1.182-0.187-1.535-0.561
			c-0.353-0.375-0.529-0.907-0.529-1.595c0-0.477,0.074-0.932,0.223-1.365c0.149-0.434,0.369-0.829,0.656-1.189
			c0.28-0.351,0.622-0.636,1.029-0.851c0.406-0.216,0.856-0.323,1.348-0.323c0.545,0,0.947,0.11,1.21,0.332
			C236.197,177.015,236.329,177.297,236.329,177.642z M235.286,177.501c0-0.147-0.02-0.263-0.062-0.347
			c-0.042-0.085-0.095-0.148-0.159-0.19c-0.068-0.045-0.14-0.074-0.216-0.085c-0.075-0.012-0.153-0.017-0.232-0.017
			c-0.454,0-0.873,0.249-1.257,0.747c-0.383,0.497-0.625,1.118-0.728,1.861c0.264-0.038,0.563-0.092,0.896-0.162
			c0.333-0.07,0.609-0.162,0.827-0.275c0.314-0.162,0.546-0.371,0.7-0.625S235.286,177.853,235.286,177.501z"/>
		<path fill="#981B1F" d="M239.08,182.346c-0.662,0-1.185-0.193-1.569-0.579c-0.383-0.386-0.575-0.935-0.575-1.646
			c0-0.473,0.072-0.926,0.218-1.36s0.349-0.819,0.611-1.155s0.589-0.612,0.988-0.825s0.843-0.321,1.331-0.321
			c0.541,0,0.95,0.114,1.232,0.343c0.282,0.228,0.424,0.517,0.424,0.865c0,0.261-0.062,0.49-0.185,0.686
			c-0.123,0.196-0.306,0.295-0.552,0.295c-0.204,0-0.357-0.051-0.46-0.153c-0.103-0.102-0.153-0.215-0.153-0.34
			c0-0.121,0.04-0.285,0.123-0.495c0.081-0.209,0.145-0.378,0.195-0.506c-0.042-0.102-0.135-0.176-0.278-0.223
			c-0.143-0.047-0.293-0.071-0.448-0.071c-0.514,0-0.958,0.3-1.331,0.899c-0.373,0.599-0.557,1.334-0.557,2.203
			c0,0.537,0.119,0.963,0.361,1.278c0.24,0.315,0.565,0.473,0.974,0.473c0.367,0,0.694-0.099,0.979-0.295
			c0.285-0.196,0.559-0.474,0.821-0.833l0.325,0.238c-0.261,0.412-0.616,0.768-1.065,1.068
			C240.041,182.193,239.571,182.346,239.08,182.346z"/>
		<path fill="#981B1F" d="M247.115,180.191c0,0.639-0.259,1.159-0.775,1.562c-0.516,0.403-1.206,0.604-2.072,0.604
			c-0.541,0-0.952-0.108-1.236-0.326c-0.284-0.218-0.425-0.517-0.425-0.899c0-0.091,0.006-0.192,0.017-0.303
			c0.012-0.111,0.047-0.286,0.107-0.525l0.494-1.832c0.038-0.151,0.074-0.305,0.107-0.463c0.034-0.158,0.051-0.281,0.051-0.372
			c0-0.2-0.038-0.335-0.113-0.403s-0.222-0.102-0.436-0.102c-0.083,0-0.195,0.014-0.333,0.04c-0.138,0.026-0.242,0.049-0.314,0.068
			l0.085-0.363c0.299-0.133,0.565-0.23,0.799-0.295c0.234-0.065,0.42-0.097,0.555-0.097c0.31,0,0.529,0.073,0.66,0.219
			c0.131,0.146,0.196,0.343,0.196,0.592c0,0.075-0.01,0.17-0.026,0.284c-0.016,0.113-0.044,0.23-0.077,0.351l-0.28,0.975
			c0.105-0.015,0.261-0.036,0.466-0.062c0.204-0.026,0.378-0.04,0.522-0.04c0.643,0,1.142,0.117,1.495,0.351
			C246.938,179.391,247.115,179.738,247.115,180.191z M245.947,180.242c0-0.337-0.093-0.594-0.278-0.774
			c-0.187-0.18-0.438-0.269-0.756-0.269c-0.166,0-0.341,0.018-0.52,0.054c-0.179,0.036-0.308,0.063-0.383,0.082l-0.234,0.89
			c-0.034,0.121-0.066,0.272-0.095,0.454c-0.029,0.182-0.042,0.329-0.042,0.442c0,0.291,0.079,0.503,0.242,0.635
			c0.161,0.133,0.353,0.198,0.577,0.198c0.291,0,0.535-0.061,0.73-0.182c0.195-0.121,0.345-0.266,0.452-0.436
			c0.102-0.163,0.18-0.343,0.23-0.539S245.947,180.416,245.947,180.242z"/>
		<path fill="#981B1F" d="M256.646,177.135c0,0.17-0.053,0.316-0.159,0.439c-0.105,0.123-0.259,0.184-0.46,0.184
			c-0.117,0-0.24-0.041-0.367-0.122c-0.127-0.081-0.261-0.192-0.405-0.332c-0.068,0.049-0.14,0.162-0.214,0.338
			c-0.074,0.176-0.147,0.338-0.223,0.485c-0.087,0.178-0.2,0.369-0.339,0.573c-0.138,0.204-0.306,0.371-0.506,0.499v0.051
			c0.238,0.113,0.414,0.252,0.529,0.414s0.2,0.397,0.254,0.704c0.008,0.049,0.022,0.133,0.045,0.25s0.042,0.225,0.057,0.323
			c0.038,0.226,0.113,0.406,0.228,0.539c0.115,0.133,0.31,0.198,0.583,0.198c0.102,0,0.225-0.015,0.369-0.045
			c0.144-0.03,0.248-0.057,0.312-0.079l-0.091,0.378c-0.385,0.149-0.666,0.246-0.837,0.289c-0.172,0.043-0.363,0.064-0.575,0.064
			c-0.242,0-0.454-0.071-0.633-0.213c-0.179-0.142-0.297-0.386-0.353-0.735c-0.019-0.113-0.038-0.242-0.057-0.385
			c-0.019-0.143-0.04-0.268-0.062-0.374c-0.072-0.385-0.163-0.643-0.27-0.771c-0.107-0.129-0.297-0.193-0.565-0.193
			c-0.216,0-0.339,0-0.369,0l-0.585,2.574h-1.059l0.849-3.675c0.026-0.121,0.055-0.26,0.085-0.417
			c0.03-0.157,0.045-0.288,0.045-0.394c0-0.212-0.034-0.352-0.104-0.423c-0.072-0.07-0.214-0.105-0.431-0.105
			c-0.083,0-0.189,0.016-0.319,0.047c-0.129,0.032-0.228,0.057-0.301,0.077l0.085-0.366c0.297-0.134,0.557-0.234,0.783-0.303
			c0.225-0.069,0.406-0.103,0.545-0.103c0.303,0,0.525,0.071,0.667,0.213c0.143,0.141,0.214,0.343,0.214,0.604
			c0,0.061-0.008,0.152-0.022,0.275c-0.015,0.123-0.04,0.258-0.074,0.405l-0.274,1.162h0.343c0.125,0,0.248-0.021,0.367-0.065
			s0.236-0.114,0.349-0.213c0.133-0.113,0.244-0.242,0.333-0.385c0.089-0.143,0.176-0.31,0.262-0.499
			c0.083-0.182,0.166-0.351,0.254-0.51c0.087-0.159,0.21-0.327,0.369-0.504c0.147-0.163,0.312-0.286,0.495-0.372
			c0.184-0.085,0.378-0.128,0.586-0.128c0.193,0,0.347,0.058,0.466,0.173C256.588,176.801,256.646,176.95,256.646,177.135z"/>
		<path fill="#981B1F" d="M131.434,195.373h-0.04c-0.083,0.068-0.182,0.155-0.297,0.259c-0.115,0.105-0.25,0.203-0.405,0.298
			c-0.147,0.096-0.308,0.177-0.482,0.247c-0.173,0.07-0.363,0.105-0.566,0.105c-0.547,0-0.976-0.196-1.288-0.59
			c-0.312-0.394-0.467-0.931-0.467-1.611c0-0.47,0.087-0.926,0.261-1.368c0.173-0.442,0.413-0.84,0.719-1.192
			c0.291-0.337,0.637-0.608,1.037-0.814c0.401-0.207,0.812-0.309,1.235-0.309c0.268,0,0.525,0.036,0.767,0.107
			c0.243,0.072,0.435,0.153,0.575,0.244l1.041-0.266l0.068,0.085l-0.864,3.661c-0.03,0.117-0.061,0.261-0.094,0.429
			c-0.033,0.167-0.048,0.292-0.048,0.372c0,0.216,0.045,0.362,0.136,0.437s0.244,0.113,0.461,0.113c0.072,0,0.174-0.012,0.307-0.034
			c0.133-0.022,0.235-0.047,0.307-0.074l-0.085,0.363c-0.342,0.136-0.595,0.234-0.762,0.295c-0.166,0.061-0.369,0.091-0.608,0.091
			c-0.273,0-0.489-0.079-0.647-0.238C131.535,195.822,131.449,195.619,131.434,195.373z M132.251,191.785
			c0-0.125-0.014-0.244-0.04-0.357c-0.026-0.113-0.081-0.22-0.165-0.317c-0.075-0.095-0.18-0.17-0.312-0.226
			c-0.133-0.057-0.299-0.085-0.499-0.085c-0.276,0-0.545,0.091-0.806,0.272c-0.261,0.182-0.495,0.425-0.704,0.732
			c-0.197,0.288-0.358,0.637-0.483,1.045c-0.125,0.408-0.187,0.824-0.187,1.244c0,0.23,0.014,0.435,0.04,0.613
			c0.026,0.178,0.077,0.341,0.153,0.489c0.072,0.143,0.175,0.256,0.312,0.336c0.135,0.079,0.308,0.119,0.515,0.119
			c0.211,0,0.433-0.061,0.665-0.18c0.232-0.119,0.494-0.328,0.784-0.627L132.251,191.785z"/>
		<path fill="#981B1F" d="M140.115,191.008c0,0.654-0.068,1.31-0.204,1.969s-0.339,1.225-0.607,1.694
			c-0.314,0.548-0.685,0.954-1.114,1.221c-0.429,0.267-0.921,0.401-1.477,0.401c-0.666,0-1.193-0.214-1.585-0.639
			c-0.392-0.425-0.586-0.988-0.586-1.689c0-0.965,0.311-1.8,0.933-2.509c0.622-0.706,1.373-1.061,2.254-1.061
			c0.216,0,0.444,0.03,0.686,0.091c0.242,0.061,0.448,0.165,0.618,0.312c-0.038-0.891-0.217-1.592-0.536-2.1
			c-0.319-0.509-0.723-0.764-1.211-0.764c-0.17,0-0.322,0.016-0.457,0.047s-0.262,0.079-0.383,0.14
			c-0.083,0.042-0.166,0.097-0.25,0.165s-0.147,0.117-0.193,0.147l-0.226-0.266c0.272-0.276,0.555-0.482,0.848-0.618
			c0.293-0.136,0.617-0.204,0.973-0.204c0.351,0,0.676,0.074,0.975,0.222c0.299,0.148,0.565,0.378,0.799,0.692
			c0.234,0.314,0.417,0.692,0.547,1.134C140.049,189.835,140.115,190.373,140.115,191.008z M138.39,194.544
			c0.178-0.389,0.322-0.856,0.434-1.398c0.111-0.545,0.179-1.082,0.201-1.616c-0.178-0.264-0.364-0.453-0.558-0.565
			c-0.195-0.111-0.411-0.166-0.649-0.166c-0.585,0-1.084,0.345-1.494,1.037c-0.41,0.694-0.615,1.463-0.615,2.312
			c0,0.571,0.083,1.004,0.25,1.3s0.448,0.443,0.845,0.443c0.341,0,0.645-0.125,0.915-0.375
			C137.988,195.265,138.213,194.941,138.39,194.544z"/>
		<path fill="#981B1F" d="M143.823,196.032c-0.087-0.979-0.165-1.755-0.235-2.325c-0.07-0.57-0.177-1.21-0.32-1.916h-0.057
			c-0.155,0.847-0.347,1.552-0.579,2.117c-0.231,0.565-0.472,1.021-0.726,1.365c-0.238,0.329-0.471,0.571-0.701,0.726
			s-0.419,0.232-0.57,0.232c-0.212,0-0.361-0.059-0.448-0.176c-0.087-0.117-0.131-0.262-0.131-0.436
			c0-0.147,0.055-0.291,0.165-0.431c0.109-0.139,0.262-0.21,0.46-0.21c0.102,0,0.214,0.022,0.335,0.068
			c0.121,0.046,0.244,0.102,0.369,0.17c0.412-0.507,0.745-1.167,0.998-1.979c0.254-0.813,0.403-1.553,0.448-2.223h-0.987
			l0.113-0.403l1.863-0.113c0.19,0.62,0.355,1.265,0.496,1.934c0.14,0.669,0.245,1.404,0.314,2.207l2.635-4.062l1.026-0.091
			l0.068,0.085l-0.821,3.651c-0.026,0.113-0.056,0.257-0.088,0.431c-0.032,0.173-0.048,0.297-0.048,0.369
			c0,0.216,0.047,0.361,0.141,0.438s0.249,0.117,0.465,0.117c0.072,0,0.172-0.014,0.303-0.038c0.13-0.024,0.231-0.049,0.303-0.075
			l-0.085,0.363c-0.34,0.136-0.598,0.234-0.775,0.297c-0.178,0.062-0.363,0.095-0.555,0.095c-0.302,0-0.524-0.079-0.666-0.236
			c-0.141-0.157-0.212-0.349-0.212-0.581c0-0.091,0.006-0.182,0.017-0.272c0.012-0.09,0.034-0.216,0.068-0.375l0.739-3.107
			l-0.059-0.022l-2.901,4.406L143.823,196.032L143.823,196.032z"/>
		<path fill="#981B1F" d="M152.925,195.329h-0.034c-0.174,0.14-0.341,0.268-0.499,0.385c-0.159,0.117-0.315,0.216-0.47,0.295
			c-0.182,0.091-0.345,0.155-0.494,0.195c-0.148,0.04-0.341,0.061-0.579,0.061c-0.363,0-0.645-0.105-0.846-0.315
			c-0.2-0.21-0.301-0.484-0.301-0.825c0-0.091,0.008-0.198,0.022-0.323c0.015-0.125,0.051-0.31,0.107-0.555l0.44-1.797
			c0.038-0.166,0.069-0.314,0.094-0.442c0.025-0.129,0.037-0.252,0.037-0.369c0-0.212-0.035-0.353-0.105-0.424
			c-0.07-0.071-0.212-0.104-0.427-0.104c-0.083,0-0.189,0.015-0.317,0.047c-0.128,0.032-0.227,0.057-0.3,0.077l0.085-0.367
			c0.295-0.133,0.555-0.233,0.78-0.303c0.225-0.068,0.405-0.102,0.542-0.102c0.303,0,0.525,0.07,0.666,0.212
			c0.141,0.142,0.213,0.344,0.213,0.605c0,0.068-0.008,0.161-0.022,0.278s-0.038,0.234-0.068,0.351l-0.5,2.098
			c-0.038,0.159-0.069,0.306-0.093,0.444c-0.024,0.138-0.037,0.244-0.037,0.315c0,0.254,0.055,0.454,0.164,0.601
			c0.109,0.147,0.284,0.222,0.522,0.222c0.242,0,0.49-0.064,0.745-0.191c0.255-0.127,0.511-0.317,0.767-0.575l0.987-4.27
			l0.989-0.068l0.068,0.085l-0.843,3.651c-0.038,0.155-0.072,0.31-0.102,0.466c-0.03,0.157-0.045,0.268-0.045,0.333
			c0,0.216,0.045,0.361,0.138,0.438s0.246,0.117,0.462,0.117c0.072,0,0.174-0.012,0.306-0.034c0.132-0.022,0.234-0.047,0.306-0.074
			l-0.085,0.363c-0.314,0.129-0.576,0.225-0.785,0.289c-0.21,0.064-0.404,0.097-0.582,0.097c-0.306,0-0.534-0.089-0.683-0.266
			C153,195.777,152.925,195.567,152.925,195.329z"/>
		<path fill="#981B1F" d="M158.009,192.93h2.268l0.561-2.376l0.987-0.068l0.068,0.085l-0.85,3.651
			c-0.026,0.109-0.058,0.252-0.094,0.427s-0.054,0.301-0.054,0.373c0,0.216,0.047,0.361,0.142,0.438
			c0.095,0.077,0.251,0.117,0.467,0.117c0.072,0,0.175-0.014,0.311-0.038c0.135-0.024,0.238-0.049,0.311-0.075l-0.085,0.363
			c-0.341,0.136-0.606,0.234-0.795,0.297c-0.19,0.062-0.38,0.095-0.573,0.095c-0.303,0-0.529-0.079-0.681-0.236
			c-0.151-0.157-0.226-0.349-0.226-0.581c0-0.083,0.009-0.176,0.025-0.276c0.016-0.1,0.041-0.223,0.071-0.371l0.317-1.372h-2.274
			l-0.627,2.739h-1.06l0.849-3.675c0.026-0.121,0.055-0.261,0.085-0.418c0.03-0.157,0.045-0.287,0.045-0.393
			c0-0.212-0.035-0.353-0.105-0.424c-0.07-0.071-0.213-0.104-0.43-0.104c-0.083,0-0.19,0.015-0.319,0.047s-0.229,0.057-0.302,0.077
			l0.085-0.367c0.296-0.133,0.556-0.233,0.783-0.303c0.225-0.068,0.406-0.102,0.544-0.102c0.304,0,0.526,0.07,0.669,0.212
			c0.142,0.141,0.214,0.344,0.214,0.605c0,0.061-0.008,0.151-0.022,0.274c-0.015,0.123-0.04,0.259-0.074,0.406L158.009,192.93z"/>
		<path fill="#981B1F" d="M166.437,195.329h-0.034c-0.174,0.14-0.341,0.268-0.499,0.385c-0.159,0.117-0.315,0.216-0.47,0.295
			c-0.182,0.091-0.345,0.155-0.494,0.195c-0.148,0.04-0.341,0.061-0.579,0.061c-0.363,0-0.645-0.105-0.846-0.315
			c-0.2-0.21-0.301-0.484-0.301-0.825c0-0.091,0.008-0.198,0.022-0.323c0.015-0.125,0.051-0.31,0.107-0.555l0.44-1.797
			c0.038-0.166,0.069-0.314,0.094-0.442c0.025-0.129,0.037-0.252,0.037-0.369c0-0.212-0.035-0.353-0.105-0.424
			s-0.212-0.104-0.427-0.104c-0.083,0-0.189,0.015-0.317,0.047c-0.128,0.032-0.227,0.057-0.3,0.077l0.085-0.367
			c0.295-0.133,0.555-0.233,0.78-0.303c0.225-0.068,0.405-0.102,0.542-0.102c0.303,0,0.525,0.07,0.666,0.212
			c0.141,0.142,0.213,0.344,0.213,0.605c0,0.068-0.008,0.161-0.022,0.278s-0.038,0.234-0.068,0.351l-0.5,2.098
			c-0.038,0.159-0.069,0.306-0.093,0.444c-0.024,0.138-0.037,0.244-0.037,0.315c0,0.254,0.055,0.454,0.164,0.601
			c0.109,0.147,0.284,0.222,0.522,0.222c0.242,0,0.49-0.064,0.745-0.191c0.255-0.127,0.511-0.317,0.767-0.575l0.987-4.27
			l0.989-0.068l0.068,0.085l-0.843,3.651c-0.038,0.155-0.072,0.31-0.102,0.466c-0.03,0.157-0.045,0.268-0.045,0.333
			c0,0.216,0.045,0.361,0.138,0.438s0.246,0.117,0.462,0.117c0.072,0,0.174-0.012,0.306-0.034c0.132-0.022,0.234-0.047,0.306-0.074
			l-0.085,0.363c-0.314,0.129-0.576,0.225-0.785,0.289c-0.21,0.064-0.404,0.097-0.582,0.097c-0.306,0-0.534-0.089-0.683-0.266
			C166.513,195.777,166.437,195.567,166.437,195.329z"/>
		<path fill="#981B1F" d="M171.63,196.281c-0.662,0-1.185-0.193-1.568-0.58s-0.576-0.935-0.576-1.645
			c0-0.473,0.073-0.926,0.219-1.36s0.348-0.819,0.61-1.155c0.261-0.337,0.59-0.612,0.989-0.825c0.399-0.215,0.842-0.32,1.33-0.32
			c0.541,0,0.951,0.113,1.233,0.343c0.282,0.229,0.423,0.518,0.423,0.866c0,0.261-0.061,0.49-0.184,0.686
			c-0.123,0.196-0.307,0.295-0.553,0.295c-0.204,0-0.357-0.051-0.46-0.153s-0.153-0.215-0.153-0.34c0-0.12,0.041-0.285,0.122-0.495
			c0.081-0.21,0.147-0.378,0.195-0.506c-0.042-0.101-0.135-0.176-0.278-0.223c-0.143-0.046-0.293-0.07-0.448-0.07
			c-0.514,0-0.957,0.299-1.33,0.898c-0.373,0.599-0.558,1.335-0.558,2.204c0,0.537,0.12,0.962,0.361,1.277
			c0.241,0.315,0.565,0.474,0.975,0.474c0.367,0,0.694-0.099,0.979-0.295c0.285-0.196,0.559-0.474,0.821-0.833l0.323,0.238
			c-0.261,0.412-0.615,0.767-1.064,1.068C172.591,196.132,172.122,196.281,171.63,196.281z"/>
		<path fill="#981B1F" d="M184.253,195.482l-0.086,0.363c-0.348,0.14-0.627,0.236-0.836,0.291c-0.208,0.055-0.387,0.083-0.535,0.083
			c-0.303,0-0.531-0.079-0.682-0.236c-0.152-0.157-0.227-0.35-0.227-0.583c0-0.083,0.007-0.174,0.022-0.274
			c0.015-0.101,0.04-0.22,0.075-0.355l0.559-2.117c0.042-0.163,0.075-0.311,0.101-0.443c0.024-0.134,0.036-0.239,0.036-0.318
			c0-0.254-0.054-0.454-0.163-0.601c-0.109-0.147-0.284-0.222-0.52-0.222c-0.252,0-0.499,0.059-0.741,0.179
			c-0.243,0.119-0.517,0.342-0.821,0.667l-0.995,4.207h-1.054l0.894-3.793c0.019-0.083,0.037-0.171,0.054-0.263
			c0.017-0.092,0.025-0.163,0.025-0.208c0-0.246-0.061-0.438-0.183-0.579c-0.122-0.14-0.301-0.21-0.538-0.21
			c-0.214,0-0.451,0.053-0.709,0.162c-0.259,0.107-0.56,0.348-0.902,0.724l-0.969,4.167h-1.06l0.851-3.679
			c0.03-0.133,0.06-0.274,0.088-0.426c0.028-0.151,0.043-0.28,0.043-0.385c0-0.22-0.037-0.365-0.108-0.435
			c-0.072-0.07-0.213-0.104-0.422-0.104c-0.083,0-0.191,0.015-0.322,0.047c-0.131,0.032-0.232,0.057-0.305,0.077l0.085-0.367
			c0.296-0.133,0.558-0.231,0.787-0.297c0.227-0.064,0.424-0.097,0.586-0.097c0.304,0,0.52,0.081,0.646,0.247
			c0.128,0.165,0.195,0.388,0.202,0.672h0.034c0.445-0.351,0.811-0.603,1.098-0.754c0.287-0.151,0.629-0.226,1.026-0.226
			c0.336,0,0.609,0.097,0.819,0.292c0.209,0.195,0.327,0.439,0.354,0.735h0.022c0.404-0.337,0.763-0.591,1.076-0.765
			c0.314-0.174,0.68-0.261,1.098-0.261c0.362,0,0.639,0.104,0.833,0.315c0.194,0.21,0.291,0.485,0.291,0.826
			c0,0.068-0.012,0.189-0.032,0.364c-0.02,0.174-0.053,0.345-0.099,0.516l-0.478,1.822c-0.034,0.121-0.066,0.261-0.097,0.418
			c-0.031,0.157-0.045,0.279-0.045,0.366c0,0.216,0.045,0.362,0.136,0.439c0.091,0.077,0.244,0.117,0.46,0.117
			c0.072,0,0.177-0.01,0.313-0.028C184.075,195.533,184.181,195.508,184.253,195.482z"/>
		<path fill="#981B1F" d="M190.905,192.563c0,0.506-0.089,0.988-0.266,1.442c-0.178,0.454-0.414,0.847-0.708,1.18
			c-0.328,0.368-0.684,0.64-1.067,0.818c-0.383,0.179-0.777,0.267-1.181,0.267c-0.325,0-0.591-0.04-0.799-0.119
			c-0.208-0.079-0.393-0.179-0.555-0.296l-0.332,1.486c-0.022,0.095-0.04,0.183-0.053,0.266c-0.014,0.083-0.02,0.149-0.02,0.198
			c0,0.102,0.038,0.183,0.111,0.244c0.074,0.061,0.157,0.104,0.252,0.131c0.095,0.03,0.2,0.053,0.317,0.068
			c0.117,0.015,0.223,0.026,0.317,0.034l-0.079,0.357h-3.126l0.079-0.357c0.121-0.008,0.234-0.017,0.341-0.028
			c0.106-0.011,0.206-0.03,0.301-0.057c0.117-0.034,0.21-0.099,0.28-0.191c0.07-0.092,0.121-0.207,0.151-0.343l1.184-5.222
			c0.03-0.143,0.059-0.287,0.085-0.433c0.026-0.146,0.04-0.272,0.04-0.378c0-0.212-0.033-0.353-0.1-0.425
			c-0.067-0.072-0.209-0.107-0.428-0.107c-0.083,0-0.188,0.015-0.316,0.047s-0.227,0.059-0.3,0.077l0.085-0.363
			c0.287-0.129,0.546-0.228,0.777-0.299s0.427-0.104,0.589-0.104c0.264,0,0.465,0.066,0.601,0.201
			c0.136,0.135,0.222,0.32,0.255,0.558h0.045c0.257-0.238,0.532-0.435,0.825-0.589c0.293-0.155,0.585-0.232,0.876-0.232
			c0.575,0,1.021,0.195,1.34,0.586C190.744,191.375,190.905,191.901,190.905,192.563z M189.135,194.907
			c0.193-0.31,0.341-0.664,0.444-1.059c0.104-0.395,0.157-0.815,0.157-1.257c0-0.201-0.019-0.403-0.055-0.605
			c-0.036-0.202-0.093-0.371-0.172-0.503c-0.083-0.147-0.196-0.262-0.341-0.344c-0.144-0.081-0.333-0.121-0.567-0.121
			c-0.174,0-0.366,0.053-0.576,0.159c-0.21,0.105-0.465,0.304-0.768,0.595l-0.724,3.219c0.026,0.216,0.142,0.418,0.348,0.605
			c0.205,0.187,0.455,0.282,0.745,0.282c0.299,0,0.578-0.087,0.838-0.262C188.727,195.443,188.95,195.206,189.135,194.907z"/>
		<path fill="#981B1F" d="M195.242,195.373h-0.04c-0.083,0.068-0.182,0.155-0.297,0.259c-0.115,0.105-0.25,0.203-0.405,0.298
			c-0.147,0.096-0.308,0.177-0.482,0.247c-0.174,0.07-0.363,0.105-0.566,0.105c-0.547,0-0.976-0.196-1.288-0.59
			s-0.466-0.931-0.466-1.611c0-0.47,0.087-0.926,0.261-1.368c0.173-0.442,0.413-0.84,0.718-1.192
			c0.291-0.337,0.637-0.608,1.037-0.814c0.401-0.207,0.813-0.309,1.235-0.309c0.268,0,0.525,0.036,0.768,0.107
			c0.244,0.072,0.435,0.153,0.575,0.244l1.041-0.266l0.068,0.085l-0.864,3.661c-0.03,0.117-0.062,0.261-0.095,0.429
			c-0.033,0.167-0.047,0.292-0.047,0.372c0,0.216,0.045,0.362,0.136,0.437s0.244,0.113,0.46,0.113c0.072,0,0.174-0.012,0.307-0.034
			c0.133-0.022,0.235-0.047,0.307-0.074l-0.085,0.363c-0.343,0.136-0.595,0.234-0.762,0.295c-0.166,0.061-0.37,0.091-0.609,0.091
			c-0.272,0-0.488-0.079-0.647-0.238C195.344,195.822,195.257,195.619,195.242,195.373z M196.06,191.785
			c0-0.125-0.014-0.244-0.04-0.357c-0.026-0.113-0.081-0.22-0.165-0.317c-0.075-0.095-0.18-0.17-0.312-0.226
			c-0.134-0.057-0.3-0.085-0.5-0.085c-0.276,0-0.545,0.091-0.805,0.272c-0.26,0.181-0.495,0.425-0.704,0.732
			c-0.196,0.288-0.357,0.637-0.482,1.045s-0.187,0.824-0.187,1.244c0,0.23,0.014,0.435,0.04,0.613
			c0.026,0.178,0.077,0.341,0.152,0.489c0.072,0.143,0.175,0.256,0.311,0.336c0.135,0.079,0.308,0.119,0.516,0.119
			c0.211,0,0.433-0.061,0.665-0.18c0.232-0.119,0.494-0.328,0.784-0.627L196.06,191.785z"/>
		<path fill="#981B1F" d="M207.83,195.482l-0.086,0.363c-0.348,0.14-0.627,0.236-0.836,0.291c-0.208,0.055-0.387,0.083-0.535,0.083
			c-0.303,0-0.531-0.079-0.682-0.236c-0.152-0.157-0.227-0.35-0.227-0.583c0-0.083,0.007-0.174,0.022-0.274
			c0.015-0.101,0.04-0.22,0.075-0.355l0.559-2.117c0.042-0.163,0.075-0.311,0.101-0.443c0.024-0.134,0.036-0.239,0.036-0.318
			c0-0.254-0.054-0.454-0.163-0.601c-0.109-0.147-0.284-0.222-0.52-0.222c-0.252,0-0.499,0.059-0.741,0.179
			c-0.243,0.119-0.516,0.342-0.821,0.667l-0.996,4.207h-1.053l0.894-3.793c0.019-0.083,0.036-0.171,0.053-0.263
			c0.017-0.092,0.026-0.163,0.026-0.208c0-0.246-0.061-0.438-0.183-0.579c-0.123-0.14-0.302-0.21-0.539-0.21
			c-0.214,0-0.45,0.053-0.708,0.162c-0.26,0.107-0.56,0.348-0.902,0.724l-0.97,4.167h-1.059l0.851-3.679
			c0.03-0.133,0.059-0.274,0.087-0.426c0.028-0.151,0.044-0.28,0.044-0.385c0-0.22-0.037-0.365-0.108-0.435
			c-0.072-0.07-0.213-0.104-0.422-0.104c-0.084,0-0.191,0.015-0.322,0.047c-0.131,0.032-0.232,0.057-0.304,0.077l0.085-0.367
			c0.297-0.133,0.558-0.231,0.787-0.297c0.228-0.064,0.424-0.097,0.587-0.097c0.304,0,0.52,0.081,0.646,0.247
			c0.128,0.165,0.195,0.388,0.202,0.672h0.034c0.446-0.351,0.812-0.603,1.098-0.754c0.287-0.151,0.629-0.226,1.027-0.226
			c0.336,0,0.609,0.097,0.819,0.292c0.209,0.195,0.327,0.439,0.353,0.735h0.022c0.403-0.337,0.762-0.591,1.075-0.765
			c0.314-0.174,0.68-0.261,1.098-0.261c0.362,0,0.639,0.104,0.833,0.315c0.194,0.21,0.291,0.485,0.291,0.826
			c0,0.068-0.012,0.189-0.032,0.364c-0.02,0.174-0.053,0.345-0.099,0.516l-0.478,1.822c-0.034,0.121-0.066,0.261-0.097,0.418
			c-0.031,0.157-0.045,0.279-0.045,0.366c0,0.216,0.045,0.362,0.136,0.439c0.091,0.077,0.244,0.117,0.46,0.117
			c0.072,0,0.177-0.01,0.313-0.028C207.653,195.533,207.759,195.508,207.83,195.482z"/>
		<path fill="#981B1F" d="M214.022,192.626c0,0.446-0.076,0.892-0.226,1.339c-0.151,0.447-0.371,0.838-0.658,1.175
			c-0.291,0.347-0.643,0.627-1.053,0.837c-0.41,0.21-0.885,0.315-1.425,0.315c-0.627,0-1.138-0.202-1.529-0.608
			s-0.585-0.949-0.585-1.634c0-0.504,0.083-0.974,0.25-1.408c0.166-0.435,0.389-0.818,0.669-1.148
			c0.284-0.329,0.633-0.594,1.051-0.796c0.418-0.203,0.871-0.303,1.359-0.303c0.673,0,1.198,0.204,1.578,0.615
			C213.831,191.423,214.022,191.959,214.022,192.626z M212.865,192.41c0-0.538-0.097-0.942-0.287-1.21
			c-0.191-0.268-0.465-0.403-0.825-0.403c-0.314,0-0.611,0.097-0.888,0.289c-0.278,0.193-0.516,0.506-0.716,0.943
			c-0.155,0.33-0.268,0.696-0.341,1.099c-0.072,0.403-0.107,0.774-0.107,1.115c0,0.541,0.093,0.95,0.28,1.229
			s0.47,0.418,0.849,0.418c0.337,0,0.635-0.105,0.896-0.318c0.261-0.212,0.472-0.481,0.635-0.806
			c0.163-0.317,0.287-0.682,0.375-1.093C212.822,193.264,212.865,192.842,212.865,192.41z"/>
		<path fill="#981B1F" d="M220.719,192.563c0,0.506-0.089,0.988-0.266,1.442c-0.178,0.454-0.414,0.847-0.708,1.18
			c-0.327,0.368-0.684,0.64-1.068,0.818c-0.382,0.179-0.777,0.267-1.18,0.267c-0.325,0-0.591-0.04-0.799-0.119
			c-0.208-0.079-0.393-0.179-0.555-0.296l-0.331,1.486c-0.022,0.095-0.04,0.183-0.053,0.266c-0.014,0.083-0.02,0.149-0.02,0.198
			c0,0.102,0.038,0.183,0.111,0.244c0.074,0.061,0.157,0.104,0.252,0.131c0.095,0.03,0.2,0.053,0.317,0.068s0.223,0.026,0.317,0.034
			l-0.079,0.357h-3.126l0.079-0.357c0.121-0.008,0.234-0.017,0.341-0.028s0.206-0.03,0.301-0.057c0.117-0.034,0.21-0.099,0.28-0.191
			c0.07-0.092,0.121-0.207,0.151-0.343l1.184-5.222c0.03-0.143,0.059-0.287,0.085-0.433c0.026-0.146,0.04-0.272,0.04-0.378
			c0-0.212-0.034-0.353-0.101-0.425c-0.067-0.072-0.208-0.107-0.427-0.107c-0.083,0-0.189,0.015-0.315,0.047
			c-0.129,0.032-0.228,0.059-0.301,0.077l0.085-0.363c0.287-0.129,0.546-0.228,0.777-0.299c0.231-0.071,0.427-0.104,0.589-0.104
			c0.264,0,0.465,0.066,0.601,0.201c0.136,0.135,0.222,0.32,0.255,0.558h0.045c0.257-0.238,0.531-0.435,0.825-0.589
			c0.293-0.155,0.585-0.232,0.877-0.232c0.575,0,1.021,0.195,1.34,0.586C220.558,191.375,220.719,191.901,220.719,192.563z
			 M218.95,194.907c0.193-0.31,0.341-0.664,0.444-1.059c0.104-0.395,0.157-0.815,0.157-1.257c0-0.201-0.019-0.403-0.055-0.605
			c-0.036-0.202-0.093-0.371-0.172-0.503c-0.083-0.147-0.196-0.262-0.341-0.344c-0.144-0.081-0.333-0.121-0.567-0.121
			c-0.174,0-0.367,0.053-0.577,0.159c-0.21,0.105-0.465,0.304-0.767,0.595l-0.724,3.219c0.026,0.216,0.141,0.418,0.347,0.605
			c0.206,0.187,0.456,0.282,0.746,0.282c0.297,0,0.577-0.087,0.837-0.262C218.541,195.443,218.765,195.206,218.95,194.907z"/>
		<path fill="#981B1F" d="M225.183,195.301h-0.034c-0.347,0.291-0.68,0.52-0.994,0.686c-0.314,0.166-0.671,0.25-1.071,0.25
			c-0.363,0-0.65-0.105-0.862-0.315s-0.317-0.484-0.317-0.825c0-0.091,0.008-0.198,0.022-0.323c0.015-0.125,0.051-0.31,0.107-0.555
			l0.44-1.769c0.042-0.17,0.074-0.319,0.097-0.446s0.034-0.248,0.034-0.365c0-0.212-0.036-0.353-0.105-0.424
			c-0.07-0.071-0.212-0.104-0.427-0.104c-0.083,0-0.189,0.015-0.315,0.047c-0.129,0.032-0.228,0.057-0.301,0.077l0.085-0.367
			c0.295-0.133,0.554-0.233,0.779-0.303c0.225-0.068,0.406-0.102,0.543-0.102c0.303,0,0.525,0.068,0.671,0.204
			s0.22,0.341,0.22,0.613c0,0.068-0.008,0.161-0.022,0.278s-0.038,0.234-0.068,0.351l-0.514,2.07
			c-0.038,0.159-0.07,0.306-0.097,0.444c-0.027,0.138-0.04,0.244-0.04,0.315c0,0.254,0.061,0.454,0.183,0.601
			c0.122,0.147,0.304,0.222,0.543,0.222c0.278,0,0.546-0.068,0.811-0.204c0.262-0.136,0.51-0.323,0.741-0.561l0.938-4.242
			l0.979-0.068l0.068,0.085l-0.975,4.44c-0.143,0.65-0.327,1.206-0.55,1.667c-0.223,0.462-0.484,0.833-0.783,1.117
			c-0.314,0.299-0.652,0.514-1.015,0.646c-0.363,0.133-0.777,0.198-1.242,0.198c-0.321,0-0.577-0.022-0.765-0.068
			c-0.189-0.045-0.339-0.107-0.448-0.187c-0.109-0.075-0.183-0.161-0.222-0.255c-0.039-0.095-0.057-0.189-0.057-0.284
			c0-0.163,0.049-0.306,0.147-0.431c0.098-0.125,0.24-0.187,0.425-0.187c0.14,0,0.259,0.04,0.357,0.119
			c0.098,0.079,0.178,0.166,0.238,0.261c0.068,0.102,0.131,0.218,0.187,0.345c0.056,0.128,0.102,0.23,0.136,0.306h0.136
			c0.216,0,0.444-0.053,0.684-0.159c0.24-0.105,0.46-0.27,0.66-0.494c0.218-0.242,0.41-0.554,0.583-0.936
			C224.945,196.292,225.081,195.833,225.183,195.301z"/>
		<path fill="#981B1F" d="M229.882,195.47c0,0.212-0.077,0.391-0.23,0.541c-0.153,0.15-0.335,0.225-0.546,0.225
			c-0.211,0-0.395-0.075-0.548-0.225c-0.153-0.149-0.228-0.329-0.228-0.541s0.075-0.395,0.228-0.548s0.337-0.228,0.548-0.228
			c0.211,0,0.393,0.075,0.546,0.228S229.882,195.259,229.882,195.47z"/>
	</g>
</g>
</svg>
